SplineFontDB: 3.1
FontName: Quaxiculo
FullName: Quaxiculo
FamilyName: Quaxiculo
Weight: Regular

StartChar: A
Encoding: 65 65 0
Width: 400
VWidth: 0
Flags: HMW
LayerCount: 2
UndoRedoHistory
Layer: 1
Undoes
UndoOperation
Index: 0
Type: 1
WasModified: 0
WasOrder2: 0
Layer: 2
Width: 200
VWidth: 0
LBearingChange: 0
UnicodeEnc: 0
InstructionsLength: 0
EndUndoOperation
EndUndoes
Redoes
EndRedoes
EndUndoRedoHistory
Fore
SplineSet
140 560 m 4
 148 560 154 558 160 554 c 4
 166 558 174 560 180 560 c 4
 188 560 194 558 200 554 c 4
 206 558 214 560 220 560 c 4
 228 560 234 558 240 554 c 4
 246 558 254 560 260 560 c 4
 282 560 300 542 300 520 c 4
 300 498 282 480 260 480 c 4
 252 480 246 482 240 486 c 4
 234 482 226 480 220 480 c 4
 212 480 206 482 200 486 c 4
 194 482 186 480 180 480 c 4
 172 480 166 482 160 486 c 4
 154 482 146 480 140 480 c 4
 118 480 100 498 100 520 c 4
 100 542 118 560 140 560 c 4
100 480 m 4
 122 480 140 462 140 440 c 4
 140 418 122 400 100 400 c 4
 78 400 60 418 60 440 c 4
 60 462 78 480 100 480 c 4
300 480 m 4
 322 480 340 462 340 440 c 4
 340 418 322 400 300 400 c 4
 278 400 260 418 260 440 c 4
 260 462 278 480 300 480 c 4
60 400 m 4
 82 400 100 382 100 360 c 4
 100 338 82 320 60 320 c 4
 38 320 20 338 20 360 c 4
 20 382 38 400 60 400 c 4
60 319 m 4
 82 319 100 302 100 280 c 4
 100 258 82 240 60 240 c 4
 38 240 20 258 20 280 c 4
 20 302 38 319 60 319 c 4
60 239 m 4
 68 239 74 238 80 234 c 4
 86 238 94 240 100 240 c 4
 108 240 114 238 120 234 c 4
 126 238 134 240 140 240 c 4
 148 240 154 238 160 234 c 4
 166 238 174 240 180 240 c 4
 188 240 194 238 200 234 c 4
 206 238 214 240 220 240 c 4
 228 240 234 238 240 234 c 4
 246 238 254 240 260 240 c 4
 268 240 274 238 280 234 c 4
 286 238 294 240 300 240 c 4
 308 240 314 238 320 234 c 4
 326 238 334 240 340 240 c 4
 362 240 380 222 380 200 c 4
 380 178 362 160 340 160 c 4
 332 160 326 162 320 166 c 4
 314 162 306 160 300 160 c 4
 292 160 286 162 280 166 c 4
 274 162 266 160 260 160 c 4
 252 160 246 162 240 166 c 4
 234 162 226 160 220 160 c 4
 212 160 206 162 200 166 c 4
 194 162 186 160 180 160 c 4
 172 160 166 162 160 166 c 4
 154 162 146 160 140 160 c 4
 132 160 126 162 120 166 c 4
 114 162 106 160 100 160 c 4
 92 160 86 162 80 166 c 4
 74 162 66 160 60 160 c 4
 38 160 20 178 20 200 c 4
 20 222 38 239 60 239 c 4
340 241 m 4
 318 241 300 258 300 280 c 4
 300 302 318 320 340 320 c 4
 362 320 380 302 380 280 c 4
 380 258 362 241 340 241 c 4
340 321 m 4
 318 321 300 338 300 360 c 4
 300 382 318 400 340 400 c 4
 362 400 380 382 380 360 c 4
 380 338 362 321 340 321 c 4
340 159 m 4
 362 159 380 142 380 120 c 4
 380 98 362 80 340 80 c 4
 318 80 300 98 300 120 c 4
 300 142 318 159 340 159 c 4
340 79 m 4
 362 79 380 62 380 40 c 4
 380 18 362 0 340 0 c 4
 318 0 300 18 300 40 c 4
 300 62 318 79 340 79 c 4
60 159 m 4
 82 159 100 142 100 120 c 4
 100 98 82 80 60 80 c 4
 38 80 20 98 20 120 c 4
 20 142 38 159 60 159 c 4
60 79 m 4
 82 79 100 62 100 40 c 4
 100 18 82 0 60 0 c 4
 38 0 20 18 20 40 c 4
 20 62 38 79 60 79 c 4
EndSplineSet
Validated: 1
EndChar

StartChar: g
Encoding: 103 103 1
Width: 400
VWidth: 0
Flags: HMW
LayerCount: 2
UndoRedoHistory
Layer: 1
Undoes
UndoOperation
Index: 0
Type: 1
WasModified: 0
WasOrder2: 0
Layer: 2
Width: 200
VWidth: 0
LBearingChange: 0
UnicodeEnc: 0
InstructionsLength: 0
EndUndoOperation
EndUndoes
Redoes
EndRedoes
EndUndoRedoHistory
Fore
SplineSet
120 394 m 4
 126 394 134 392 140 390 c 4
 146 392 154 394 160 394 c 4
 166 394 174 392 180 390 c 4
 186 392 194 394 200 394 c 4
 206 394 214 392 220 390 c 4
 226 392 234 394 240 394 c 4
 246 394 254 392 260 390 c 4
 266 392 274 394 280 394 c 4
 302 394 320 376 320 354 c 4
 320 332 302 314 280 314 c 4
 274 314 266 318 260 320 c 4
 254 318 246 314 240 314 c 4
 234 314 226 318 220 320 c 4
 214 318 206 314 200 314 c 4
 194 314 186 318 180 320 c 4
 174 318 166 314 160 314 c 4
 154 314 146 318 140 320 c 4
 134 318 126 314 120 314 c 4
 98 314 80 332 80 354 c 4
 80 376 98 394 120 394 c 4
80 314 m 4
 102 314 120 296 120 274 c 4
 120 252 102 234 80 234 c 4
 58 234 40 252 40 274 c 4
 40 296 58 314 80 314 c 4
80 233 m 4
 102 233 120 216 120 194 c 4
 120 172 102 154 80 154 c 4
 58 154 40 172 40 194 c 4
 40 216 58 233 80 233 c 4
80 153 m 4
 102 153 120 136 120 114 c 4
 120 92 102 74 80 74 c 4
 58 74 40 92 40 114 c 4
 40 136 58 153 80 153 c 4
320 314 m 4
 342 314 360 296 360 274 c 4
 360 252 342 234 320 234 c 4
 298 234 280 252 280 274 c 4
 280 296 298 314 320 314 c 4
320 233 m 4
 342 233 360 216 360 194 c 4
 360 172 342 154 320 154 c 4
 298 154 280 172 280 194 c 4
 280 216 298 233 320 233 c 4
320 153 m 4
 342 153 360 136 360 114 c 4
 360 92 342 74 320 74 c 4
 298 74 280 92 280 114 c 4
 280 136 298 153 320 153 c 4
320 73 m 4
 342 73 360 56 360 34 c 4
 360 12 342 -6 320 -6 c 4
 314 -6 306 -2 300 0 c 4
 294 -2 286 -6 280 -6 c 4
 274 -6 266 -2 260 0 c 4
 254 -2 246 -6 240 -6 c 4
 234 -6 226 -2 220 0 c 4
 214 -2 206 -6 200 -6 c 4
 194 -6 186 -2 180 0 c 4
 174 -2 166 -6 160 -6 c 4
 154 -6 146 -2 140 0 c 4
 134 -2 126 -6 120 -6 c 4
 98 -6 80 12 80 34 c 4
 80 56 98 74 120 74 c 4
 126 74 134 72 140 70 c 4
 146 72 154 74 160 74 c 4
 166 74 174 72 180 70 c 4
 186 72 194 74 200 74 c 4
 206 74 214 72 220 70 c 4
 226 72 234 74 240 74 c 4
 246 74 254 72 260 70 c 4
 266 72 274 74 280 74 c 4
 286 74 294 72 300 70 c 4
 306 72 314 73 320 73 c 4
320 -7 m 4
 342 -7 360 -24 360 -46 c 4
 360 -68 342 -86 320 -86 c 4
 298 -86 280 -68 280 -46 c 4
 280 -24 298 -7 320 -7 c 4
120 -86 m 4
 126 -86 134 -88 140 -90 c 4
 146 -88 154 -86 160 -86 c 4
 166 -86 174 -88 180 -90 c 4
 186 -88 194 -86 200 -86 c 4
 206 -86 214 -88 220 -90 c 4
 226 -88 234 -86 240 -86 c 4
 246 -86 254 -88 260 -90 c 4
 266 -88 274 -86 280 -86 c 4
 302 -86 320 -104 320 -126 c 4
 320 -148 302 -166 280 -166 c 4
 274 -166 266 -162 260 -160 c 4
 254 -162 246 -166 240 -166 c 4
 234 -166 226 -162 220 -160 c 4
 214 -162 206 -166 200 -166 c 4
 194 -166 186 -162 180 -160 c 4
 174 -162 166 -166 160 -166 c 4
 154 -166 146 -162 140 -160 c 4
 134 -162 126 -166 120 -166 c 4
 98 -166 80 -148 80 -126 c 4
 80 -104 98 -86 120 -86 c 4
EndSplineSet
Validated: 1
EndChar

StartChar: exclam
Encoding: 33 33 35
Width: 400
VWidth: 0
Flags: HMW
LayerCount: 2
UndoRedoHistory
Layer: 1
Undoes
UndoOperation
Index: 0
Type: 1
WasModified: 0
WasOrder2: 0
Layer: 2
Width: 200
VWidth: 0
LBearingChange: 0
UnicodeEnc: 0
InstructionsLength: 0
EndUndoOperation
EndUndoes
Redoes
EndRedoes
EndUndoRedoHistory
Fore
SplineSet
200 560 m 4
 222 560 240 542 240 520 c 4
 240 498 222 480 200 480 c 4
 178 480 160 498 160 520 c 4
 160 542 178 560 200 560 c 4
200 479 m 4
 222 479 240 462 240 440 c 4
 240 418 222 400 200 400 c 4
 178 400 160 418 160 440 c 4
 160 462 178 479 200 479 c 4
200 399 m 4
 222 399 240 382 240 360 c 4
 240 338 222 320 200 320 c 4
 178 320 160 338 160 360 c 4
 160 382 178 399 200 399 c 4
200 319 m 4
 222 319 240 302 240 280 c 4
 240 258 222 240 200 240 c 4
 178 240 160 258 160 280 c 4
 160 302 178 319 200 319 c 4
200 239 m 4
 222 239 240 222 240 200 c 4
 240 178 222 160 200 160 c 4
 178 160 160 178 160 200 c 4
 160 222 178 239 200 239 c 4
200 80 m 4
 222 80 240 62 240 40 c 4
 240 18 222 0 200 0 c 4
 178 0 160 18 160 40 c 4
 160 62 178 80 200 80 c 4
EndSplineSet
Validated: 1
EndChar

StartChar: quotedbl
Encoding: 34 34 36
Width: 400
VWidth: 0
Flags: HMW
LayerCount: 2
UndoRedoHistory
Layer: 1
Undoes
UndoOperation
Index: 0
Type: 1
WasModified: 0
WasOrder2: 0
Layer: 2
Width: 200
VWidth: 0
LBearingChange: 0
UnicodeEnc: 0
InstructionsLength: 0
EndUndoOperation
EndUndoes
Redoes
EndRedoes
EndUndoRedoHistory
Fore
SplineSet
140 560 m 4
 162 560 180 542 180 520 c 4
 180 498 162 480 140 480 c 4
 118 480 100 498 100 520 c 4
 100 542 118 560 140 560 c 4
140 479 m 4
 162 479 180 462 180 440 c 4
 180 418 162 400 140 400 c 4
 118 400 100 418 100 440 c 4
 100 462 118 479 140 479 c 4
140 399 m 4
 162 399 180 382 180 360 c 4
 180 338 162 320 140 320 c 4
 118 320 100 338 100 360 c 4
 100 382 118 399 140 399 c 4
260 560 m 4
 282 560 300 542 300 520 c 4
 300 498 282 480 260 480 c 4
 238 480 220 498 220 520 c 4
 220 542 238 560 260 560 c 4
260 479 m 4
 282 479 300 462 300 440 c 4
 300 418 282 400 260 400 c 4
 238 400 220 418 220 440 c 4
 220 462 238 479 260 479 c 4
260 399 m 4
 282 399 300 382 300 360 c 4
 300 338 282 320 260 320 c 4
 238 320 220 338 220 360 c 4
 220 382 238 399 260 399 c 4
EndSplineSet
Validated: 1
EndChar

StartChar: numbersign
Encoding: 35 35 37
Width: 400
VWidth: 0
Flags: HMW
LayerCount: 2
UndoRedoHistory
Layer: 1
Undoes
UndoOperation
Index: 0
Type: 1
WasModified: 0
WasOrder2: 0
Layer: 2
Width: 200
VWidth: 0
LBearingChange: 0
UnicodeEnc: 0
InstructionsLength: 0
EndUndoOperation
EndUndoes
Redoes
EndRedoes
EndUndoRedoHistory
Fore
SplineSet
120 480 m 4
 142 480 160 462 160 440 c 4
 160 418 142 400 120 400 c 4
 98 400 80 418 80 440 c 4
 80 462 98 480 120 480 c 4
120 399 m 4
 126 399 134 396 140 394 c 4
 146 396 154 400 160 400 c 4
 166 400 174 396 180 394 c 4
 186 396 194 400 200 400 c 4
 206 400 214 396 220 394 c 4
 226 396 234 400 240 400 c 4
 246 400 254 396 260 394 c 4
 266 396 274 400 280 400 c 4
 286 400 294 396 300 394 c 4
 306 396 314 400 320 400 c 4
 342 400 360 382 360 360 c 4
 360 338 342 320 320 320 c 4
 314 320 306 324 300 326 c 4
 294 324 286 320 280 320 c 4
 274 320 266 324 260 326 c 4
 254 324 246 320 240 320 c 4
 234 320 226 324 220 326 c 4
 214 324 206 320 200 320 c 4
 194 320 186 324 180 326 c 4
 174 324 166 320 160 320 c 4
 154 320 146 324 140 326 c 4
 134 324 126 320 120 320 c 4
 114 320 106 324 100 326 c 4
 94 324 86 320 80 320 c 4
 58 320 40 338 40 360 c 4
 40 382 58 400 80 400 c 4
 86 400 94 396 100 394 c 4
 106 396 114 399 120 399 c 4
280 401 m 4
 258 401 240 418 240 440 c 4
 240 462 258 480 280 480 c 4
 302 480 320 462 320 440 c 4
 320 418 302 401 280 401 c 4
280 319 m 4
 302 319 320 302 320 280 c 4
 320 258 302 240 280 240 c 4
 258 240 240 258 240 280 c 4
 240 302 258 319 280 319 c 4
280 239 m 4
 286 239 294 236 300 234 c 4
 306 236 314 240 320 240 c 4
 342 240 360 222 360 200 c 4
 360 178 342 160 320 160 c 4
 314 160 306 164 300 166 c 4
 294 164 286 160 280 160 c 4
 274 160 266 164 260 166 c 4
 254 164 246 160 240 160 c 4
 234 160 226 164 220 166 c 4
 214 164 206 160 200 160 c 4
 194 160 186 164 180 166 c 4
 174 164 166 160 160 160 c 4
 154 160 146 164 140 166 c 4
 134 164 126 160 120 160 c 4
 114 160 106 164 100 166 c 4
 94 164 86 160 80 160 c 4
 58 160 40 178 40 200 c 4
 40 222 58 240 80 240 c 4
 86 240 94 236 100 234 c 4
 106 236 114 240 120 240 c 4
 126 240 134 236 140 234 c 4
 146 236 154 240 160 240 c 4
 166 240 174 236 180 234 c 4
 186 236 194 240 200 240 c 4
 206 240 214 236 220 234 c 4
 226 236 234 240 240 240 c 4
 246 240 254 236 260 234 c 4
 266 236 274 239 280 239 c 4
280 159 m 4
 302 159 320 142 320 120 c 4
 320 98 302 80 280 80 c 4
 258 80 240 98 240 120 c 4
 240 142 258 159 280 159 c 4
120 159 m 4
 142 159 160 142 160 120 c 4
 160 98 142 80 120 80 c 4
 98 80 80 98 80 120 c 4
 80 142 98 159 120 159 c 4
120 241 m 4
 98 241 80 258 80 280 c 4
 80 302 98 319 120 319 c 4
 142 319 160 302 160 280 c 4
 160 258 142 241 120 241 c 4
EndSplineSet
Validated: 1
EndChar

StartChar: dollar
Encoding: 36 36 38
Width: 400
VWidth: 0
Flags: HMW
LayerCount: 2
UndoRedoHistory
Layer: 1
Undoes
UndoOperation
Index: 0
Type: 1
WasModified: 0
WasOrder2: 0
Layer: 2
Width: 200
VWidth: 0
LBearingChange: 0
UnicodeEnc: 0
InstructionsLength: 0
EndUndoOperation
EndUndoes
Redoes
EndRedoes
EndUndoRedoHistory
Fore
SplineSet
200 560 m 4
 222 560 240 542 240 520 c 4
 240 498 222 480 200 480 c 4
 178 480 160 498 160 520 c 4
 160 542 178 560 200 560 c 4
200 479 m 4
 206 479 214 476 220 474 c 4
 226 476 234 480 240 480 c 4
 246 480 254 476 260 474 c 4
 266 476 274 480 280 480 c 4
 302 480 320 462 320 440 c 4
 320 418 302 400 280 400 c 4
 274 400 266 404 260 406 c 4
 254 404 246 400 240 400 c 4
 234 400 226 404 220 406 c 4
 214 404 206 400 200 400 c 4
 194 400 186 404 180 406 c 4
 174 404 166 400 160 400 c 4
 154 400 146 404 140 406 c 4
 134 404 126 400 120 400 c 4
 98 400 80 418 80 440 c 4
 80 462 98 480 120 480 c 4
 126 480 134 476 140 474 c 4
 146 476 154 480 160 480 c 4
 166 480 174 476 180 474 c 4
 186 476 194 479 200 479 c 4
80 400 m 4
 102 400 120 382 120 360 c 4
 120 338 102 320 80 320 c 4
 58 320 40 338 40 360 c 4
 40 382 58 400 80 400 c 4
120 320 m 4
 126 320 134 316 140 314 c 4
 146 316 154 320 160 320 c 4
 166 320 174 316 180 314 c 4
 186 316 194 320 200 320 c 4
 206 320 214 316 220 314 c 4
 226 316 234 320 240 320 c 4
 246 320 254 316 260 314 c 4
 266 316 274 320 280 320 c 4
 302 320 320 302 320 280 c 4
 320 258 302 240 280 240 c 4
 274 240 266 244 260 246 c 4
 254 244 246 240 240 240 c 4
 234 240 226 244 220 246 c 4
 214 244 206 240 200 240 c 4
 194 240 186 244 180 246 c 4
 174 244 166 240 160 240 c 4
 154 240 146 244 140 246 c 4
 134 244 126 240 120 240 c 4
 98 240 80 258 80 280 c 4
 80 302 98 320 120 320 c 4
320 240 m 4
 342 240 360 222 360 200 c 4
 360 178 342 160 320 160 c 4
 298 160 280 178 280 200 c 4
 280 222 298 240 320 240 c 4
120 160 m 4
 126 160 134 156 140 154 c 4
 146 156 154 160 160 160 c 4
 166 160 174 156 180 154 c 4
 186 156 194 160 200 160 c 4
 206 160 214 156 220 154 c 4
 226 156 234 160 240 160 c 4
 246 160 254 156 260 154 c 4
 266 156 274 160 280 160 c 4
 302 160 320 142 320 120 c 4
 320 98 302 80 280 80 c 4
 274 80 266 84 260 86 c 4
 254 84 246 80 240 80 c 4
 234 80 226 84 220 86 c 4
 214 84 206 80 200 80 c 4
 194 80 186 84 180 86 c 4
 174 84 166 80 160 80 c 4
 154 80 146 84 140 86 c 4
 134 84 126 80 120 80 c 4
 98 80 80 98 80 120 c 4
 80 142 98 160 120 160 c 4
200 79 m 4
 222 79 240 62 240 40 c 4
 240 18 222 0 200 0 c 4
 178 0 160 18 160 40 c 4
 160 62 178 79 200 79 c 4
EndSplineSet
Validated: 1
EndChar

StartChar: percent
Encoding: 37 37 39
Width: 400
VWidth: 0
Flags: HMW
LayerCount: 2
UndoRedoHistory
Layer: 1
Undoes
UndoOperation
Index: 0
Type: 1
WasModified: 0
WasOrder2: 0
Layer: 2
Width: 200
VWidth: 0
LBearingChange: 0
UnicodeEnc: 0
InstructionsLength: 0
EndUndoOperation
EndUndoes
Redoes
EndRedoes
EndUndoRedoHistory
Fore
SplineSet
80 480 m 4
 86 480 94 476 100 474 c 4
 106 476 114 480 120 480 c 4
 142 480 160 462 160 440 c 4
 160 418 142 400 120 400 c 4
 114 400 106 404 100 406 c 4
 94 404 86 400 80 400 c 4
 58 400 40 418 40 440 c 4
 40 462 58 480 80 480 c 4
120 399 m 4
 142 399 160 382 160 360 c 4
 160 338 142 320 120 320 c 4
 114 320 106 324 100 326 c 4
 94 324 86 320 80 320 c 4
 58 320 40 338 40 360 c 4
 40 382 58 399 80 399 c 4
 86 399 94 396 100 394 c 4
 106 396 114 399 120 399 c 4
280 480 m 4
 302 480 320 462 320 440 c 4
 320 418 302 400 280 400 c 4
 258 400 240 418 240 440 c 4
 240 462 258 480 280 480 c 4
240 400 m 4
 262 400 280 382 280 360 c 4
 280 338 262 320 240 320 c 4
 218 320 200 338 200 360 c 4
 200 382 218 400 240 400 c 4
200 320 m 4
 222 320 240 302 240 280 c 4
 240 258 222 240 200 240 c 4
 178 240 160 258 160 280 c 4
 160 302 178 320 200 320 c 4
160 240 m 4
 182 240 200 222 200 200 c 4
 200 178 182 160 160 160 c 4
 138 160 120 178 120 200 c 4
 120 222 138 240 160 240 c 4
280 240 m 4
 286 240 294 236 300 234 c 4
 306 236 314 240 320 240 c 4
 342 240 360 222 360 200 c 4
 360 178 342 160 320 160 c 4
 314 160 306 164 300 166 c 4
 294 164 286 160 280 160 c 4
 258 160 240 178 240 200 c 4
 240 222 258 240 280 240 c 4
320 159 m 4
 342 159 360 142 360 120 c 4
 360 98 342 80 320 80 c 4
 314 80 306 84 300 86 c 4
 294 84 286 80 280 80 c 4
 258 80 240 98 240 120 c 4
 240 142 258 159 280 159 c 4
 286 159 294 156 300 154 c 4
 306 156 314 159 320 159 c 4
120 160 m 4
 142 160 160 142 160 120 c 4
 160 98 142 80 120 80 c 4
 98 80 80 98 80 120 c 4
 80 142 98 160 120 160 c 4
EndSplineSet
Validated: 1
EndChar

StartChar: ampersand
Encoding: 38 38 40
Width: 400
VWidth: 0
Flags: HMW
LayerCount: 2
UndoRedoHistory
Layer: 1
Undoes
UndoOperation
Index: 0
Type: 1
WasModified: 0
WasOrder2: 0
Layer: 2
Width: 200
VWidth: 0
LBearingChange: 0
UnicodeEnc: 0
InstructionsLength: 0
EndUndoOperation
EndUndoes
Redoes
EndRedoes
EndUndoRedoHistory
Fore
SplineSet
140 560 m 4
 146 560 154 556 160 554 c 4
 166 556 174 560 180 560 c 4
 202 560 220 542 220 520 c 4
 220 498 202 480 180 480 c 4
 174 480 166 484 160 486 c 4
 154 484 146 480 140 480 c 4
 118 480 100 498 100 520 c 4
 100 542 118 560 140 560 c 4
100 480 m 4
 122 480 140 462 140 440 c 4
 140 418 122 400 100 400 c 4
 78 400 60 418 60 440 c 4
 60 462 78 480 100 480 c 4
100 399 m 4
 122 399 140 382 140 360 c 4
 140 338 122 320 100 320 c 4
 78 320 60 338 60 360 c 4
 60 382 78 399 100 399 c 4
220 480 m 4
 242 480 260 462 260 440 c 4
 260 418 242 400 220 400 c 4
 198 400 180 418 180 440 c 4
 180 462 198 480 220 480 c 4
220 399 m 4
 242 399 260 382 260 360 c 4
 260 338 242 320 220 320 c 4
 198 320 180 338 180 360 c 4
 180 382 198 399 220 399 c 4
140 320 m 4
 146 320 154 316 160 314 c 4
 166 316 174 320 180 320 c 4
 202 320 220 302 220 280 c 4
 220 258 202 240 180 240 c 4
 174 240 166 244 160 246 c 4
 154 244 146 240 140 240 c 4
 118 240 100 258 100 280 c 4
 100 302 118 320 140 320 c 4
100 240 m 4
 122 240 140 222 140 200 c 4
 140 178 122 160 100 160 c 4
 78 160 60 178 60 200 c 4
 60 222 78 240 100 240 c 4
220 240 m 4
 242 240 260 222 260 200 c 4
 260 178 242 160 220 160 c 4
 198 160 180 178 180 200 c 4
 180 222 198 240 220 240 c 4
340 240 m 4
 362 240 380 222 380 200 c 4
 380 178 362 160 340 160 c 4
 318 160 300 178 300 200 c 4
 300 222 318 240 340 240 c 4
60 160 m 4
 82 160 100 142 100 120 c 4
 100 98 82 80 60 80 c 4
 38 80 20 98 20 120 c 4
 20 142 38 160 60 160 c 4
260 160 m 4
 266 160 274 156 280 154 c 4
 286 156 294 160 300 160 c 4
 322 160 340 142 340 120 c 4
 340 98 322 80 300 80 c 4
 294 80 286 84 280 86 c 4
 274 84 266 80 260 80 c 4
 238 80 220 98 220 120 c 4
 220 142 238 160 260 160 c 4
100 80 m 4
 106 80 114 76 120 74 c 4
 126 76 134 80 140 80 c 4
 146 80 154 76 160 74 c 4
 166 76 174 80 180 80 c 4
 186 80 194 76 200 74 c 4
 206 76 214 80 220 80 c 4
 242 80 260 62 260 40 c 4
 260 18 242 0 220 0 c 4
 214 0 206 4 200 6 c 4
 194 4 186 0 180 0 c 4
 174 0 166 4 160 6 c 4
 154 4 146 0 140 0 c 4
 134 0 126 4 120 6 c 4
 114 4 106 0 100 0 c 4
 78 0 60 18 60 40 c 4
 60 62 78 80 100 80 c 4
340 80 m 4
 362 80 380 62 380 40 c 4
 380 18 362 0 340 0 c 4
 318 0 300 18 300 40 c 4
 300 62 318 80 340 80 c 4
EndSplineSet
Validated: 1
EndChar

StartChar: quotesingle
Encoding: 39 39 41
Width: 400
VWidth: 0
Flags: HMW
LayerCount: 2
UndoRedoHistory
Layer: 1
Undoes
UndoOperation
Index: 0
Type: 1
WasModified: 0
WasOrder2: 0
Layer: 2
Width: 200
VWidth: 0
LBearingChange: 0
UnicodeEnc: 0
InstructionsLength: 0
EndUndoOperation
EndUndoes
Redoes
EndRedoes
EndUndoRedoHistory
Fore
SplineSet
200 560 m 4
 222 560 240 542 240 520 c 4
 240 498 222 480 200 480 c 4
 178 480 160 498 160 520 c 4
 160 542 178 560 200 560 c 4
200 479 m 4
 222 479 240 462 240 440 c 4
 240 418 222 400 200 400 c 4
 178 400 160 418 160 440 c 4
 160 462 178 479 200 479 c 4
200 399 m 4
 222 399 240 382 240 360 c 4
 240 338 222 320 200 320 c 4
 178 320 160 338 160 360 c 4
 160 382 178 399 200 399 c 4
EndSplineSet
Validated: 1
EndChar

StartChar: parenleft
Encoding: 40 40 42
Width: 400
VWidth: 0
Flags: HMW
LayerCount: 2
UndoRedoHistory
Layer: 1
Undoes
UndoOperation
Index: 0
Type: 1
WasModified: 0
WasOrder2: 0
Layer: 2
Width: 200
VWidth: 0
LBearingChange: 0
UnicodeEnc: 0
InstructionsLength: 0
EndUndoOperation
EndUndoes
Redoes
EndRedoes
EndUndoRedoHistory
Fore
SplineSet
220 560 m 4
 226 560 234 556 240 554 c 4
 246 556 254 560 260 560 c 4
 282 560 300 542 300 520 c 4
 300 498 282 480 260 480 c 4
 254 480 246 484 240 486 c 4
 234 484 226 480 220 480 c 4
 198 480 180 498 180 520 c 4
 180 542 198 560 220 560 c 4
180 480 m 4
 202 480 220 462 220 440 c 4
 220 418 202 400 180 400 c 4
 158 400 140 418 140 440 c 4
 140 462 158 480 180 480 c 4
140 400 m 4
 162 400 180 382 180 360 c 4
 180 338 162 320 140 320 c 4
 118 320 100 338 100 360 c 4
 100 382 118 400 140 400 c 4
140 319 m 4
 162 319 180 302 180 280 c 4
 180 258 162 240 140 240 c 4
 118 240 100 258 100 280 c 4
 100 302 118 319 140 319 c 4
140 239 m 4
 162 239 180 222 180 200 c 4
 180 178 162 160 140 160 c 4
 118 160 100 178 100 200 c 4
 100 222 118 239 140 239 c 4
180 160 m 4
 202 160 220 142 220 120 c 4
 220 98 202 80 180 80 c 4
 158 80 140 98 140 120 c 4
 140 142 158 160 180 160 c 4
220 80 m 4
 226 80 234 76 240 74 c 4
 246 76 254 80 260 80 c 4
 282 80 300 62 300 40 c 4
 300 18 282 0 260 0 c 4
 254 0 246 4 240 6 c 4
 234 4 226 0 220 0 c 4
 198 0 180 18 180 40 c 4
 180 62 198 80 220 80 c 4
EndSplineSet
Validated: 1
EndChar

StartChar: parenright
Encoding: 41 41 43
Width: 400
VWidth: 0
Flags: HMW
LayerCount: 2
UndoRedoHistory
Layer: 1
Undoes
UndoOperation
Index: 0
Type: 1
WasModified: 0
WasOrder2: 0
Layer: 2
Width: 200
VWidth: 0
LBearingChange: 0
UnicodeEnc: 0
InstructionsLength: 0
EndUndoOperation
EndUndoes
Redoes
EndRedoes
EndUndoRedoHistory
Fore
SplineSet
140 560 m 4
 146 560 154 556 160 554 c 4
 166 556 174 560 180 560 c 4
 202 560 220 542 220 520 c 4
 220 498 202 480 180 480 c 4
 174 480 166 484 160 486 c 4
 154 484 146 480 140 480 c 4
 118 480 100 498 100 520 c 4
 100 542 118 560 140 560 c 4
220 480 m 4
 242 480 260 462 260 440 c 4
 260 418 242 400 220 400 c 4
 198 400 180 418 180 440 c 4
 180 462 198 480 220 480 c 4
260 400 m 4
 282 400 300 382 300 360 c 4
 300 338 282 320 260 320 c 4
 238 320 220 338 220 360 c 4
 220 382 238 400 260 400 c 4
260 319 m 4
 282 319 300 302 300 280 c 4
 300 258 282 240 260 240 c 4
 238 240 220 258 220 280 c 4
 220 302 238 319 260 319 c 4
260 239 m 4
 282 239 300 222 300 200 c 4
 300 178 282 160 260 160 c 4
 238 160 220 178 220 200 c 4
 220 222 238 239 260 239 c 4
220 160 m 4
 242 160 260 142 260 120 c 4
 260 98 242 80 220 80 c 4
 198 80 180 98 180 120 c 4
 180 142 198 160 220 160 c 4
140 80 m 4
 146 80 154 76 160 74 c 4
 166 76 174 80 180 80 c 4
 202 80 220 62 220 40 c 4
 220 18 202 0 180 0 c 4
 174 0 166 4 160 6 c 4
 154 4 146 0 140 0 c 4
 118 0 100 18 100 40 c 4
 100 62 118 80 140 80 c 4
EndSplineSet
Validated: 1
EndChar

StartChar: asterisk
Encoding: 42 42 44
Width: 400
VWidth: 0
Flags: HMW
LayerCount: 2
UndoRedoHistory
Layer: 1
Undoes
UndoOperation
Index: 0
Type: 1
WasModified: 0
WasOrder2: 0
Layer: 2
Width: 200
VWidth: 0
LBearingChange: 0
UnicodeEnc: 0
InstructionsLength: 0
EndUndoOperation
EndUndoes
Redoes
EndRedoes
EndUndoRedoHistory
Fore
SplineSet
120 480 m 4
 142 480 160 462 160 440 c 4
 160 418 142 400 120 400 c 4
 98 400 80 418 80 440 c 4
 80 462 98 480 120 480 c 4
280 480 m 4
 302 480 320 462 320 440 c 4
 320 418 302 400 280 400 c 4
 258 400 240 418 240 440 c 4
 240 462 258 480 280 480 c 4
160 400 m 4
 182 400 200 382 200 360 c 4
 200 338 182 320 160 320 c 4
 138 320 120 338 120 360 c 4
 120 382 138 400 160 400 c 4
201 360 m 4
 201 382 218 400 240 400 c 4
 262 400 280 382 280 360 c 4
 280 338 262 320 240 320 c 4
 218 320 201 338 201 360 c 4
240 319 m 4
 246 319 254 316 260 314 c 4
 266 316 274 320 280 320 c 4
 286 320 294 316 300 314 c 4
 306 316 314 320 320 320 c 4
 342 320 360 302 360 280 c 4
 360 258 342 240 320 240 c 4
 314 240 306 244 300 246 c 4
 294 244 286 240 280 240 c 4
 274 240 266 244 260 246 c 4
 254 244 246 240 240 240 c 4
 234 240 226 244 220 246 c 4
 214 244 206 240 200 240 c 4
 194 240 186 244 180 246 c 4
 174 244 166 240 160 240 c 4
 154 240 146 244 140 246 c 4
 134 244 126 240 120 240 c 4
 114 240 106 244 100 246 c 4
 94 244 86 240 80 240 c 4
 58 240 40 258 40 280 c 4
 40 302 58 320 80 320 c 4
 86 320 94 316 100 314 c 4
 106 316 114 320 120 320 c 4
 126 320 134 316 140 314 c 4
 146 316 154 319 160 319 c 4
 166 319 174 316 180 314 c 4
 186 316 194 320 200 320 c 4
 206 320 214 316 220 314 c 4
 226 316 234 319 240 319 c 4
240 239 m 4
 262 239 280 222 280 200 c 4
 280 178 262 160 240 160 c 4
 218 160 200 178 200 200 c 4
 200 222 218 239 240 239 c 4
199 200 m 4
 199 178 182 160 160 160 c 4
 138 160 120 178 120 200 c 4
 120 222 138 239 160 239 c 4
 182 239 199 222 199 200 c 4
120 160 m 4
 142 160 160 142 160 120 c 4
 160 98 142 80 120 80 c 4
 98 80 80 98 80 120 c 4
 80 142 98 160 120 160 c 4
280 160 m 4
 302 160 320 142 320 120 c 4
 320 98 302 80 280 80 c 4
 258 80 240 98 240 120 c 4
 240 142 258 160 280 160 c 4
EndSplineSet
Validated: 1
EndChar

StartChar: plus
Encoding: 43 43 45
Width: 400
VWidth: 0
Flags: HMW
LayerCount: 2
UndoRedoHistory
Layer: 1
Undoes
UndoOperation
Index: 0
Type: 1
WasModified: 0
WasOrder2: 0
Layer: 2
Width: 200
VWidth: 0
LBearingChange: 0
UnicodeEnc: 0
InstructionsLength: 0
EndUndoOperation
EndUndoes
Redoes
EndRedoes
EndUndoRedoHistory
Fore
SplineSet
200 480 m 4
 222 480 240 462 240 440 c 4
 240 418 222 400 200 400 c 4
 178 400 160 418 160 440 c 4
 160 462 178 480 200 480 c 4
200 399 m 4
 222 399 240 382 240 360 c 4
 240 338 222 320 200 320 c 4
 178 320 160 338 160 360 c 4
 160 382 178 399 200 399 c 4
200 319 m 4
 206 319 214 316 220 314 c 4
 226 316 234 320 240 320 c 4
 246 320 254 316 260 314 c 4
 266 316 274 320 280 320 c 4
 286 320 294 316 300 314 c 4
 306 316 314 320 320 320 c 4
 342 320 360 302 360 280 c 4
 360 258 342 240 320 240 c 4
 314 240 306 244 300 246 c 4
 294 244 286 240 280 240 c 4
 274 240 266 244 260 246 c 4
 254 244 246 240 240 240 c 4
 234 240 226 244 220 246 c 4
 214 244 206 240 200 240 c 4
 194 240 186 244 180 246 c 4
 174 244 166 240 160 240 c 4
 154 240 146 244 140 246 c 4
 134 244 126 240 120 240 c 4
 114 240 106 244 100 246 c 4
 94 244 86 240 80 240 c 4
 58 240 40 258 40 280 c 4
 40 302 58 320 80 320 c 4
 86 320 94 316 100 314 c 4
 106 316 114 320 120 320 c 4
 126 320 134 316 140 314 c 4
 146 316 154 320 160 320 c 4
 166 320 174 316 180 314 c 4
 186 316 194 319 200 319 c 4
200 239 m 4
 222 239 240 222 240 200 c 4
 240 178 222 160 200 160 c 4
 178 160 160 178 160 200 c 4
 160 222 178 239 200 239 c 4
200 159 m 4
 222 159 240 142 240 120 c 4
 240 98 222 80 200 80 c 4
 178 80 160 98 160 120 c 4
 160 142 178 159 200 159 c 4
EndSplineSet
Validated: 1
EndChar

StartChar: comma
Encoding: 44 44 46
Width: 400
VWidth: 0
Flags: HMW
LayerCount: 2
UndoRedoHistory
Layer: 1
Undoes
UndoOperation
Index: 0
Type: 1
WasModified: 0
WasOrder2: 0
Layer: 2
Width: 200
VWidth: 0
LBearingChange: 0
UnicodeEnc: 0
InstructionsLength: 0
EndUndoOperation
EndUndoes
Redoes
EndRedoes
EndUndoRedoHistory
Fore
SplineSet
180 160 m 4
 186 160 194 156 200 154 c 4
 206 156 214 160 220 160 c 4
 242 160 260 142 260 120 c 4
 260 98 242 80 220 80 c 4
 214 80 206 84 200 86 c 4
 194 84 186 80 180 80 c 4
 158 80 140 98 140 120 c 4
 140 142 158 160 180 160 c 4
220 79 m 4
 242 79 260 62 260 40 c 4
 260 18 242 0 220 0 c 4
 214 0 206 4 200 6 c 4
 194 4 186 0 180 0 c 4
 158 0 140 18 140 40 c 4
 140 62 158 79 180 79 c 4
 186 79 194 76 200 74 c 4
 206 76 214 79 220 79 c 4
220 -1 m 4
 242 -1 260 -18 260 -40 c 4
 260 -62 242 -80 220 -80 c 4
 198 -80 180 -62 180 -40 c 4
 180 -18 198 -1 220 -1 c 4
180 -80 m 4
 202 -80 220 -98 220 -120 c 4
 220 -142 202 -160 180 -160 c 4
 158 -160 140 -142 140 -120 c 4
 140 -98 158 -80 180 -80 c 4
EndSplineSet
Validated: 1
EndChar

StartChar: hyphen
Encoding: 45 45 47
Width: 400
VWidth: 0
Flags: HMW
LayerCount: 2
UndoRedoHistory
Layer: 1
Undoes
UndoOperation
Index: 0
Type: 1
WasModified: 0
WasOrder2: 0
Layer: 2
Width: 200
VWidth: 0
LBearingChange: 0
UnicodeEnc: 0
InstructionsLength: 0
EndUndoOperation
EndUndoes
Redoes
EndRedoes
EndUndoRedoHistory
Fore
SplineSet
120 320 m 4
 126 320 134 316 140 314 c 4
 146 316 154 320 160 320 c 4
 166 320 174 316 180 314 c 4
 186 316 194 320 200 320 c 4
 206 320 214 316 220 314 c 4
 226 316 234 320 240 320 c 4
 246 320 254 316 260 314 c 4
 266 316 274 320 280 320 c 4
 302 320 320 302 320 280 c 4
 320 258 302 240 280 240 c 4
 274 240 266 244 260 246 c 4
 254 244 246 240 240 240 c 4
 234 240 226 244 220 246 c 4
 214 244 206 240 200 240 c 4
 194 240 186 244 180 246 c 4
 174 244 166 240 160 240 c 4
 154 240 146 244 140 246 c 4
 134 244 126 240 120 240 c 4
 98 240 80 258 80 280 c 4
 80 302 98 320 120 320 c 4
EndSplineSet
Validated: 1
EndChar

StartChar: period
Encoding: 46 46 48
Width: 400
VWidth: 0
Flags: HMW
LayerCount: 2
UndoRedoHistory
Layer: 1
Undoes
UndoOperation
Index: 0
Type: 1
WasModified: 0
WasOrder2: 0
Layer: 2
Width: 200
VWidth: 0
LBearingChange: 0
UnicodeEnc: 0
InstructionsLength: 0
EndUndoOperation
EndUndoes
Redoes
EndRedoes
EndUndoRedoHistory
Fore
SplineSet
180 160 m 4
 186 160 194 156 200 154 c 4
 206 156 214 160 220 160 c 4
 242 160 260 142 260 120 c 4
 260 98 242 80 220 80 c 4
 214 80 206 84 200 86 c 4
 194 84 186 80 180 80 c 4
 158 80 140 98 140 120 c 4
 140 142 158 160 180 160 c 4
220 79 m 4
 242 79 260 62 260 40 c 4
 260 18 242 0 220 0 c 4
 214 0 206 4 200 6 c 4
 194 4 186 0 180 0 c 4
 158 0 140 18 140 40 c 4
 140 62 158 79 180 79 c 4
 186 79 194 76 200 74 c 4
 206 76 214 79 220 79 c 4
EndSplineSet
Validated: 1
EndChar

StartChar: slash
Encoding: 47 47 49
Width: 400
VWidth: 0
Flags: HMW
LayerCount: 2
UndoRedoHistory
Layer: 1
Undoes
UndoOperation
Index: 0
Type: 1
WasModified: 0
WasOrder2: 0
Layer: 2
Width: 200
VWidth: 0
LBearingChange: 0
UnicodeEnc: 0
InstructionsLength: 0
EndUndoOperation
EndUndoes
Redoes
EndRedoes
EndUndoRedoHistory
Fore
SplineSet
320 560 m 4
 342 560 360 542 360 520 c 4
 360 498 342 480 320 480 c 4
 298 480 280 498 280 520 c 4
 280 542 298 560 320 560 c 4
280 480 m 4
 302 480 320 462 320 440 c 4
 320 418 302 400 280 400 c 4
 258 400 240 418 240 440 c 4
 240 462 258 480 280 480 c 4
240 400 m 4
 262 400 280 382 280 360 c 4
 280 338 262 320 240 320 c 4
 218 320 200 338 200 360 c 4
 200 382 218 400 240 400 c 4
200 320 m 4
 222 320 240 302 240 280 c 4
 240 258 222 240 200 240 c 4
 178 240 160 258 160 280 c 4
 160 302 178 320 200 320 c 4
160 240 m 4
 182 240 200 222 200 200 c 4
 200 178 182 160 160 160 c 4
 138 160 120 178 120 200 c 4
 120 222 138 240 160 240 c 4
120 160 m 4
 142 160 160 142 160 120 c 4
 160 98 142 80 120 80 c 4
 98 80 80 98 80 120 c 4
 80 142 98 160 120 160 c 4
80 80 m 4
 102 80 120 62 120 40 c 4
 120 18 102 0 80 0 c 4
 58 0 40 18 40 40 c 4
 40 62 58 80 80 80 c 4
EndSplineSet
Validated: 1
EndChar

StartChar: zero
Encoding: 48 48 50
Width: 400
VWidth: 0
Flags: HMW
LayerCount: 2
UndoRedoHistory
Layer: 1
Undoes
UndoOperation
Index: 0
Type: 1
WasModified: 0
WasOrder2: 0
Layer: 2
Width: 200
VWidth: 0
LBearingChange: 0
UnicodeEnc: 0
InstructionsLength: 0
EndUndoOperation
EndUndoes
Redoes
EndRedoes
EndUndoRedoHistory
Fore
SplineSet
120 560 m 4
 126 560 134 556 140 554 c 4
 146 556 154 560 160 560 c 4
 166 560 174 556 180 554 c 4
 186 556 194 560 200 560 c 4
 206 560 214 556 220 554 c 4
 226 556 234 560 240 560 c 4
 246 560 254 556 260 554 c 4
 266 556 274 560 280 560 c 4
 302 560 320 542 320 520 c 4
 320 498 302 480 280 480 c 4
 274 480 266 484 260 486 c 4
 254 484 246 480 240 480 c 4
 234 480 226 484 220 486 c 4
 214 484 206 480 200 480 c 4
 194 480 186 484 180 486 c 4
 174 484 166 480 160 480 c 4
 154 480 146 484 140 486 c 4
 134 484 126 480 120 480 c 4
 98 480 80 498 80 520 c 4
 80 542 98 560 120 560 c 4
280 479 m 4
 286 479 294 476 300 474 c 4
 306 476 314 480 320 480 c 4
 342 480 360 462 360 440 c 4
 360 418 342 400 320 400 c 4
 314 400 306 404 300 406 c 4
 294 404 286 400 280 400 c 4
 258 400 240 418 240 440 c 4
 240 462 258 479 280 479 c 4
320 399 m 4
 342 399 360 382 360 360 c 4
 360 338 342 320 320 320 c 4
 298 320 280 338 280 360 c 4
 280 382 298 399 320 399 c 4
320 319 m 4
 342 319 360 302 360 280 c 4
 360 258 342 240 320 240 c 4
 298 240 280 258 280 280 c 4
 280 302 298 319 320 319 c 4
320 239 m 4
 342 239 360 222 360 200 c 4
 360 178 342 160 320 160 c 4
 298 160 280 178 280 200 c 4
 280 222 298 239 320 239 c 4
320 159 m 4
 342 159 360 142 360 120 c 4
 360 98 342 80 320 80 c 4
 298 80 280 98 280 120 c 4
 280 142 298 159 320 159 c 4
279 360 m 4
 279 338 262 320 240 320 c 4
 218 320 200 338 200 360 c 4
 200 382 218 400 240 400 c 4
 262 400 279 382 279 360 c 4
80 480 m 4
 102 480 120 462 120 440 c 4
 120 418 102 400 80 400 c 4
 58 400 40 418 40 440 c 4
 40 462 58 480 80 480 c 4
80 399 m 4
 102 399 120 382 120 360 c 4
 120 338 102 320 80 320 c 4
 58 320 40 338 40 360 c 4
 40 382 58 399 80 399 c 4
80 319 m 4
 102 319 120 302 120 280 c 4
 120 258 102 240 80 240 c 4
 58 240 40 258 40 280 c 4
 40 302 58 319 80 319 c 4
80 239 m 4
 102 239 120 222 120 200 c 4
 120 178 102 160 80 160 c 4
 58 160 40 178 40 200 c 4
 40 222 58 239 80 239 c 4
121 200 m 4
 121 222 138 240 160 240 c 4
 182 240 200 222 200 200 c 4
 200 178 182 160 160 160 c 4
 138 160 121 178 121 200 c 4
80 159 m 4
 86 159 94 156 100 154 c 4
 106 156 114 160 120 160 c 4
 142 160 160 142 160 120 c 4
 160 98 142 80 120 80 c 4
 114 80 106 84 100 86 c 4
 94 84 86 80 80 80 c 4
 58 80 40 98 40 120 c 4
 40 142 58 159 80 159 c 4
120 79 m 4
 126 79 134 76 140 74 c 4
 146 76 154 80 160 80 c 4
 166 80 174 76 180 74 c 4
 186 76 194 80 200 80 c 4
 206 80 214 76 220 74 c 4
 226 76 234 80 240 80 c 4
 246 80 254 76 260 74 c 4
 266 76 274 80 280 80 c 4
 302 80 320 62 320 40 c 4
 320 18 302 0 280 0 c 4
 274 0 266 4 260 6 c 4
 254 4 246 0 240 0 c 4
 234 0 226 4 220 6 c 4
 214 4 206 0 200 0 c 4
 194 0 186 4 180 6 c 4
 174 4 166 0 160 0 c 4
 154 0 146 4 140 6 c 4
 134 4 126 0 120 0 c 4
 98 0 80 18 80 40 c 4
 80 62 98 79 120 79 c 4
200 320 m 4
 222 320 240 302 240 280 c 4
 240 258 222 240 200 240 c 4
 178 240 160 258 160 280 c 4
 160 302 178 320 200 320 c 4
EndSplineSet
Validated: 1
EndChar

StartChar: one
Encoding: 49 49 51
Width: 400
VWidth: 0
Flags: HMW
LayerCount: 2
UndoRedoHistory
Layer: 1
Undoes
UndoOperation
Index: 0
Type: 1
WasModified: 0
WasOrder2: 0
Layer: 2
Width: 200
VWidth: 0
LBearingChange: 0
UnicodeEnc: 0
InstructionsLength: 0
EndUndoOperation
EndUndoes
Redoes
EndRedoes
EndUndoRedoHistory
Fore
SplineSet
200 554 m 4
 222 554 240 536 240 514 c 4
 240 492 222 474 200 474 c 4
 178 474 160 492 160 514 c 4
 160 536 178 554 200 554 c 4
200 473 m 4
 222 473 240 456 240 434 c 4
 240 412 222 394 200 394 c 4
 178 394 160 412 160 434 c 4
 160 456 178 473 200 473 c 4
200 393 m 4
 222 393 240 376 240 354 c 4
 240 332 222 314 200 314 c 4
 178 314 160 332 160 354 c 4
 160 376 178 393 200 393 c 4
200 313 m 4
 222 313 240 296 240 274 c 4
 240 252 222 234 200 234 c 4
 178 234 160 252 160 274 c 4
 160 296 178 313 200 313 c 4
200 233 m 4
 222 233 240 216 240 194 c 4
 240 172 222 154 200 154 c 4
 178 154 160 172 160 194 c 4
 160 216 178 233 200 233 c 4
200 153 m 4
 222 153 240 136 240 114 c 4
 240 92 222 74 200 74 c 4
 178 74 160 92 160 114 c 4
 160 136 178 153 200 153 c 4
200 73 m 4
 206 73 214 72 220 70 c 4
 226 72 234 74 240 74 c 4
 246 74 254 72 260 70 c 4
 266 72 274 74 280 74 c 4
 302 74 320 56 320 34 c 4
 320 12 302 -6 280 -6 c 4
 274 -6 266 -2 260 0 c 4
 254 -2 246 -6 240 -6 c 4
 234 -6 226 -2 220 0 c 4
 214 -2 206 -6 200 -6 c 4
 194 -6 186 -2 180 0 c 4
 174 -2 166 -6 160 -6 c 4
 154 -6 146 -2 140 0 c 4
 134 -2 126 -6 120 -6 c 4
 98 -6 80 12 80 34 c 4
 80 56 98 74 120 74 c 4
 126 74 134 72 140 70 c 4
 146 72 154 74 160 74 c 4
 166 74 174 72 180 70 c 4
 186 72 194 73 200 73 c 4
159 434 m 4
 159 412 142 394 120 394 c 4
 98 394 80 412 80 434 c 4
 80 456 98 474 120 474 c 4
 142 474 159 456 159 434 c 4
EndSplineSet
Validated: 1
EndChar

StartChar: two
Encoding: 50 50 52
Width: 400
VWidth: 0
Flags: HMW
LayerCount: 2
UndoRedoHistory
Layer: 1
Undoes
UndoOperation
Index: 0
Type: 1
WasModified: 0
WasOrder2: 0
Layer: 2
Width: 200
VWidth: 0
LBearingChange: 0
UnicodeEnc: 0
InstructionsLength: 0
EndUndoOperation
EndUndoes
Redoes
EndRedoes
EndUndoRedoHistory
Fore
SplineSet
120 560 m 4
 126 560 134 556 140 554 c 4
 146 556 154 560 160 560 c 4
 166 560 174 556 180 554 c 4
 186 556 194 560 200 560 c 4
 206 560 214 556 220 554 c 4
 226 556 234 560 240 560 c 4
 246 560 254 556 260 554 c 4
 266 556 274 560 280 560 c 4
 302 560 320 542 320 520 c 4
 320 498 302 480 280 480 c 4
 274 480 266 484 260 486 c 4
 254 484 246 480 240 480 c 4
 234 480 226 484 220 486 c 4
 214 484 206 480 200 480 c 4
 194 480 186 484 180 486 c 4
 174 484 166 480 160 480 c 4
 154 480 146 484 140 486 c 4
 134 484 126 480 120 480 c 4
 98 480 80 498 80 520 c 4
 80 542 98 560 120 560 c 4
80 480 m 4
 102 480 120 462 120 440 c 4
 120 418 102 400 80 400 c 4
 58 400 40 418 40 440 c 4
 40 462 58 480 80 480 c 4
320 480 m 4
 342 480 360 462 360 440 c 4
 360 418 342 400 320 400 c 4
 298 400 280 418 280 440 c 4
 280 462 298 480 320 480 c 4
320 399 m 4
 342 399 360 382 360 360 c 4
 360 338 342 320 320 320 c 4
 298 320 280 338 280 360 c 4
 280 382 298 399 320 399 c 4
160 320 m 4
 166 320 174 316 180 314 c 4
 186 316 194 320 200 320 c 4
 206 320 214 316 220 314 c 4
 226 316 234 320 240 320 c 4
 246 320 254 316 260 314 c 4
 266 316 274 320 280 320 c 4
 302 320 320 302 320 280 c 4
 320 258 302 240 280 240 c 4
 274 240 266 244 260 246 c 4
 254 244 246 240 240 240 c 4
 234 240 226 244 220 246 c 4
 214 244 206 240 200 240 c 4
 194 240 186 244 180 246 c 4
 174 244 166 240 160 240 c 4
 138 240 120 258 120 280 c 4
 120 302 138 320 160 320 c 4
120 240 m 4
 142 240 160 222 160 200 c 4
 160 178 142 160 120 160 c 4
 98 160 80 178 80 200 c 4
 80 222 98 240 120 240 c 4
80 160 m 4
 102 160 120 142 120 120 c 4
 120 98 102 80 80 80 c 4
 58 80 40 98 40 120 c 4
 40 142 58 160 80 160 c 4
80 79 m 4
 86 79 94 76 100 74 c 4
 106 76 114 80 120 80 c 4
 126 80 134 76 140 74 c 4
 146 76 154 80 160 80 c 4
 166 80 174 76 180 74 c 4
 186 76 194 80 200 80 c 4
 206 80 214 76 220 74 c 4
 226 76 234 80 240 80 c 4
 246 80 254 76 260 74 c 4
 266 76 274 80 280 80 c 4
 286 80 294 76 300 74 c 4
 306 76 314 80 320 80 c 4
 342 80 360 62 360 40 c 4
 360 18 342 0 320 0 c 4
 314 0 306 4 300 6 c 4
 294 4 286 0 280 0 c 4
 274 0 266 4 260 6 c 4
 254 4 246 0 240 0 c 4
 234 0 226 4 220 6 c 4
 214 4 206 0 200 0 c 4
 194 0 186 4 180 6 c 4
 174 4 166 0 160 0 c 4
 154 0 146 4 140 6 c 4
 134 4 126 0 120 0 c 4
 114 0 106 4 100 6 c 4
 94 4 86 0 80 0 c 4
 58 0 40 18 40 40 c 4
 40 62 58 79 80 79 c 4
EndSplineSet
Validated: 1
EndChar

StartChar: three
Encoding: 51 51 53
Width: 400
VWidth: 0
Flags: HMW
LayerCount: 2
UndoRedoHistory
Layer: 1
Undoes
UndoOperation
Index: 0
Type: 1
WasModified: 0
WasOrder2: 0
Layer: 2
Width: 200
VWidth: 0
LBearingChange: 0
UnicodeEnc: 0
InstructionsLength: 0
EndUndoOperation
EndUndoes
Redoes
EndRedoes
EndUndoRedoHistory
Fore
SplineSet
120 560 m 4
 126 560 134 556 140 554 c 4
 146 556 154 560 160 560 c 4
 166 560 174 556 180 554 c 4
 186 556 194 560 200 560 c 4
 206 560 214 556 220 554 c 4
 226 556 234 560 240 560 c 4
 246 560 254 556 260 554 c 4
 266 556 274 560 280 560 c 4
 302 560 320 542 320 520 c 4
 320 498 302 480 280 480 c 4
 274 480 266 484 260 486 c 4
 254 484 246 480 240 480 c 4
 234 480 226 484 220 486 c 4
 214 484 206 480 200 480 c 4
 194 480 186 484 180 486 c 4
 174 484 166 480 160 480 c 4
 154 480 146 484 140 486 c 4
 134 484 126 480 120 480 c 4
 98 480 80 498 80 520 c 4
 80 542 98 560 120 560 c 4
80 480 m 4
 102 480 120 462 120 440 c 4
 120 418 102 400 80 400 c 4
 58 400 40 418 40 440 c 4
 40 462 58 480 80 480 c 4
320 480 m 4
 342 480 360 462 360 440 c 4
 360 418 342 400 320 400 c 4
 298 400 280 418 280 440 c 4
 280 462 298 480 320 480 c 4
320 399 m 4
 342 399 360 382 360 360 c 4
 360 338 342 320 320 320 c 4
 298 320 280 338 280 360 c 4
 280 382 298 399 320 399 c 4
160 320 m 4
 166 320 174 316 180 314 c 4
 186 316 194 320 200 320 c 4
 206 320 214 316 220 314 c 4
 226 316 234 320 240 320 c 4
 246 320 254 316 260 314 c 4
 266 316 274 320 280 320 c 4
 302 320 320 302 320 280 c 4
 320 258 302 240 280 240 c 4
 274 240 266 244 260 246 c 4
 254 244 246 240 240 240 c 4
 234 240 226 244 220 246 c 4
 214 244 206 240 200 240 c 4
 194 240 186 244 180 246 c 4
 174 244 166 240 160 240 c 4
 138 240 120 258 120 280 c 4
 120 302 138 320 160 320 c 4
320 240 m 4
 342 240 360 222 360 200 c 4
 360 178 342 160 320 160 c 4
 298 160 280 178 280 200 c 4
 280 222 298 240 320 240 c 4
320 159 m 4
 342 159 360 142 360 120 c 4
 360 98 342 80 320 80 c 4
 298 80 280 98 280 120 c 4
 280 142 298 159 320 159 c 4
80 160 m 4
 102 160 120 142 120 120 c 4
 120 98 102 80 80 80 c 4
 58 80 40 98 40 120 c 4
 40 142 58 160 80 160 c 4
120 80 m 4
 126 80 134 76 140 74 c 4
 146 76 154 80 160 80 c 4
 166 80 174 76 180 74 c 4
 186 76 194 80 200 80 c 4
 206 80 214 76 220 74 c 4
 226 76 234 80 240 80 c 4
 246 80 254 76 260 74 c 4
 266 76 274 80 280 80 c 4
 302 80 320 62 320 40 c 4
 320 18 302 0 280 0 c 4
 274 0 266 4 260 6 c 4
 254 4 246 0 240 0 c 4
 234 0 226 4 220 6 c 4
 214 4 206 0 200 0 c 4
 194 0 186 4 180 6 c 4
 174 4 166 0 160 0 c 4
 154 0 146 4 140 6 c 4
 134 4 126 0 120 0 c 4
 98 0 80 18 80 40 c 4
 80 62 98 80 120 80 c 4
EndSplineSet
Validated: 1
EndChar

StartChar: four
Encoding: 52 52 54
Width: 400
VWidth: 0
Flags: HMW
LayerCount: 2
UndoRedoHistory
Layer: 1
Undoes
UndoOperation
Index: 0
Type: 1
WasModified: 0
WasOrder2: 0
Layer: 2
Width: 200
VWidth: 0
LBearingChange: 0
UnicodeEnc: 0
InstructionsLength: 0
EndUndoOperation
EndUndoes
Redoes
EndRedoes
EndUndoRedoHistory
Fore
SplineSet
240 560 m 0
 246 560 254 556 260 554 c 0
 266 556 274 560 280 560 c 0
 286 560 294 556 300 554 c 0
 306 556 314 560 320 560 c 0
 342 560 360 542 360 520 c 0
 360 498 342 480 320 480 c 0
 314 480 306 484 300 486 c 0
 294 484 286 480 280 480 c 0
 274 480 266 484 260 486 c 0
 254 484 246 480 240 480 c 0
 218 480 200 498 200 520 c 0
 200 542 218 560 240 560 c 0
320 479 m 0
 342 479 360 462 360 440 c 0
 360 418 342 400 320 400 c 0
 298 400 280 418 280 440 c 0
 280 462 298 479 320 479 c 0
320 399 m 0
 342 399 360 382 360 360 c 0
 360 338 342 320 320 320 c 0
 298 320 280 338 280 360 c 0
 280 382 298 399 320 399 c 0
320 319 m 0
 342 319 360 302 360 280 c 0
 360 258 342 240 320 240 c 0
 298 240 280 258 280 280 c 0
 280 302 298 319 320 319 c 0
320 239 m 0
 342 239 360 222 360 200 c 0
 360 178 342 160 320 160 c 0
 314 160 306 164 300 166 c 0
 294 164 286 160 280 160 c 0
 274 160 266 164 260 166 c 0
 254 164 246 160 240 160 c 0
 234 160 226 164 220 166 c 0
 214 164 206 160 200 160 c 0
 194 160 186 164 180 166 c 0
 174 164 166 160 160 160 c 0
 154 160 146 164 140 166 c 0
 134 164 126 160 120 160 c 0
 114 160 106 164 100 166 c 0
 94 164 86 160 80 160 c 0
 58 160 40 178 40 200 c 0
 40 222 58 240 80 240 c 0
 86 240 94 236 100 234 c 0
 106 236 114 240 120 240 c 0
 126 240 134 236 140 234 c 0
 146 236 154 240 160 240 c 0
 166 240 174 236 180 234 c 0
 186 236 194 240 200 240 c 0
 206 240 214 236 220 234 c 0
 226 236 234 240 240 240 c 0
 246 240 254 236 260 234 c 0
 266 236 274 240 280 240 c 0
 286 240 294 236 300 234 c 0
 306 236 314 239 320 239 c 0
320 159 m 0
 342 159 360 142 360 120 c 0
 360 98 342 80 320 80 c 0
 298 80 280 98 280 120 c 0
 280 142 298 159 320 159 c 0
320 79 m 0
 342 79 360 62 360 40 c 0
 360 18 342 0 320 0 c 0
 298 0 280 18 280 40 c 0
 280 62 298 79 320 79 c 0
80 241 m 0
 58 241 40 258 40 280 c 0
 40 302 58 320 80 320 c 0
 102 320 120 302 120 280 c 0
 120 258 102 241 80 241 c 0
160 480 m 0
 166 480 174 476 180 474 c 0
 186 476 194 480 200 480 c 0
 222 480 240 462 240 440 c 0
 240 418 222 400 200 400 c 0
 194 400 186 404 180 406 c 0
 174 404 166 400 160 400 c 0
 138 400 120 418 120 440 c 0
 120 462 138 480 160 480 c 0
120 400 m 0
 142 400 160 382 160 360 c 0
 160 338 142 320 120 320 c 0
 98 320 80 338 80 360 c 0
 80 382 98 400 120 400 c 0
EndSplineSet
Validated: 1
EndChar

StartChar: five
Encoding: 53 53 55
Width: 400
VWidth: 0
Flags: HMW
LayerCount: 2
UndoRedoHistory
Layer: 1
Undoes
UndoOperation
Index: 0
Type: 1
WasModified: 0
WasOrder2: 0
Layer: 2
Width: 200
VWidth: 0
LBearingChange: 0
UnicodeEnc: 0
InstructionsLength: 0
EndUndoOperation
EndUndoes
Redoes
EndRedoes
EndUndoRedoHistory
Fore
SplineSet
80 560 m 4
 86 560 94 556 100 554 c 4
 106 556 114 560 120 560 c 4
 126 560 134 556 140 554 c 4
 146 556 154 560 160 560 c 4
 166 560 174 556 180 554 c 4
 186 556 194 560 200 560 c 4
 206 560 214 556 220 554 c 4
 226 556 234 560 240 560 c 4
 246 560 254 556 260 554 c 4
 266 556 274 560 280 560 c 4
 286 560 294 556 300 554 c 4
 306 556 314 560 320 560 c 4
 342 560 360 542 360 520 c 4
 360 498 342 480 320 480 c 4
 314 480 306 484 300 486 c 4
 294 484 286 480 280 480 c 4
 274 480 266 484 260 486 c 4
 254 484 246 480 240 480 c 4
 234 480 226 484 220 486 c 4
 214 484 206 480 200 480 c 4
 194 480 186 484 180 486 c 4
 174 484 166 480 160 480 c 4
 154 480 146 484 140 486 c 4
 134 484 126 480 120 480 c 4
 114 480 106 484 100 486 c 4
 94 484 86 480 80 480 c 4
 58 480 40 498 40 520 c 4
 40 542 58 560 80 560 c 4
80 479 m 4
 102 479 120 462 120 440 c 4
 120 418 102 400 80 400 c 4
 58 400 40 418 40 440 c 4
 40 462 58 479 80 479 c 4
80 399 m 4
 102 399 120 382 120 360 c 4
 120 338 102 320 80 320 c 4
 58 320 40 338 40 360 c 4
 40 382 58 399 80 399 c 4
80 319 m 4
 86 319 94 316 100 314 c 4
 106 316 114 320 120 320 c 4
 126 320 134 316 140 314 c 4
 146 316 154 320 160 320 c 4
 166 320 174 316 180 314 c 4
 186 316 194 320 200 320 c 4
 206 320 214 316 220 314 c 4
 226 316 234 320 240 320 c 4
 246 320 254 316 260 314 c 4
 266 316 274 320 280 320 c 4
 302 320 320 302 320 280 c 4
 320 258 302 240 280 240 c 4
 274 240 266 244 260 246 c 4
 254 244 246 240 240 240 c 4
 234 240 226 244 220 246 c 4
 214 244 206 240 200 240 c 4
 194 240 186 244 180 246 c 4
 174 244 166 240 160 240 c 4
 154 240 146 244 140 246 c 4
 134 244 126 240 120 240 c 4
 114 240 106 244 100 246 c 4
 94 244 86 240 80 240 c 4
 58 240 40 258 40 280 c 4
 40 302 58 319 80 319 c 4
320 240 m 4
 342 240 360 222 360 200 c 4
 360 178 342 160 320 160 c 4
 298 160 280 178 280 200 c 4
 280 222 298 240 320 240 c 4
320 159 m 4
 342 159 360 142 360 120 c 4
 360 98 342 80 320 80 c 4
 298 80 280 98 280 120 c 4
 280 142 298 159 320 159 c 4
80 160 m 4
 102 160 120 142 120 120 c 4
 120 98 102 80 80 80 c 4
 58 80 40 98 40 120 c 4
 40 142 58 160 80 160 c 4
120 80 m 4
 126 80 134 76 140 74 c 4
 146 76 154 80 160 80 c 4
 166 80 174 76 180 74 c 4
 186 76 194 80 200 80 c 4
 206 80 214 76 220 74 c 4
 226 76 234 80 240 80 c 4
 246 80 254 76 260 74 c 4
 266 76 274 80 280 80 c 4
 302 80 320 62 320 40 c 4
 320 18 302 0 280 0 c 4
 274 0 266 4 260 6 c 4
 254 4 246 0 240 0 c 4
 234 0 226 4 220 6 c 4
 214 4 206 0 200 0 c 4
 194 0 186 4 180 6 c 4
 174 4 166 0 160 0 c 4
 154 0 146 4 140 6 c 4
 134 4 126 0 120 0 c 4
 98 0 80 18 80 40 c 4
 80 62 98 80 120 80 c 4
EndSplineSet
Validated: 1
EndChar

StartChar: six
Encoding: 54 54 56
Width: 400
VWidth: 0
Flags: HMW
LayerCount: 2
UndoRedoHistory
Layer: 1
Undoes
UndoOperation
Index: 0
Type: 1
WasModified: 0
WasOrder2: 0
Layer: 2
Width: 200
VWidth: 0
LBearingChange: 0
UnicodeEnc: 0
InstructionsLength: 0
EndUndoOperation
EndUndoes
Redoes
EndRedoes
EndUndoRedoHistory
Fore
SplineSet
120 560 m 4
 126 560 134 556 140 554 c 4
 146 556 154 560 160 560 c 4
 166 560 174 556 180 554 c 4
 186 556 194 560 200 560 c 4
 206 560 214 556 220 554 c 4
 226 556 234 560 240 560 c 4
 246 560 254 556 260 554 c 4
 266 556 274 560 280 560 c 4
 302 560 320 542 320 520 c 4
 320 498 302 480 280 480 c 4
 274 480 266 484 260 486 c 4
 254 484 246 480 240 480 c 4
 234 480 226 484 220 486 c 4
 214 484 206 480 200 480 c 4
 194 480 186 484 180 486 c 4
 174 484 166 480 160 480 c 4
 154 480 146 484 140 486 c 4
 134 484 126 480 120 480 c 4
 98 480 80 498 80 520 c 4
 80 542 98 560 120 560 c 4
80 480 m 4
 102 480 120 462 120 440 c 4
 120 418 102 400 80 400 c 4
 58 400 40 418 40 440 c 4
 40 462 58 480 80 480 c 4
80 399 m 4
 102 399 120 382 120 360 c 4
 120 338 102 320 80 320 c 4
 58 320 40 338 40 360 c 4
 40 382 58 399 80 399 c 4
80 319 m 4
 86 319 94 316 100 314 c 4
 106 316 114 320 120 320 c 4
 126 320 134 316 140 314 c 4
 146 316 154 320 160 320 c 4
 166 320 174 316 180 314 c 4
 186 316 194 320 200 320 c 4
 206 320 214 316 220 314 c 4
 226 316 234 320 240 320 c 4
 246 320 254 316 260 314 c 4
 266 316 274 320 280 320 c 4
 302 320 320 302 320 280 c 4
 320 258 302 240 280 240 c 4
 274 240 266 244 260 246 c 4
 254 244 246 240 240 240 c 4
 234 240 226 244 220 246 c 4
 214 244 206 240 200 240 c 4
 194 240 186 244 180 246 c 4
 174 244 166 240 160 240 c 4
 154 240 146 244 140 246 c 4
 134 244 126 240 120 240 c 4
 114 240 106 244 100 246 c 4
 94 244 86 240 80 240 c 4
 58 240 40 258 40 280 c 4
 40 302 58 319 80 319 c 4
80 239 m 4
 102 239 120 222 120 200 c 4
 120 178 102 160 80 160 c 4
 58 160 40 178 40 200 c 4
 40 222 58 239 80 239 c 4
80 159 m 4
 102 159 120 142 120 120 c 4
 120 98 102 80 80 80 c 4
 58 80 40 98 40 120 c 4
 40 142 58 159 80 159 c 4
320 240 m 4
 342 240 360 222 360 200 c 4
 360 178 342 160 320 160 c 4
 298 160 280 178 280 200 c 4
 280 222 298 240 320 240 c 4
320 159 m 4
 342 159 360 142 360 120 c 4
 360 98 342 80 320 80 c 4
 298 80 280 98 280 120 c 4
 280 142 298 159 320 159 c 4
120 80 m 4
 126 80 134 76 140 74 c 4
 146 76 154 80 160 80 c 4
 166 80 174 76 180 74 c 4
 186 76 194 80 200 80 c 4
 206 80 214 76 220 74 c 4
 226 76 234 80 240 80 c 4
 246 80 254 76 260 74 c 4
 266 76 274 80 280 80 c 4
 302 80 320 62 320 40 c 4
 320 18 302 0 280 0 c 4
 274 0 266 4 260 6 c 4
 254 4 246 0 240 0 c 4
 234 0 226 4 220 6 c 4
 214 4 206 0 200 0 c 4
 194 0 186 4 180 6 c 4
 174 4 166 0 160 0 c 4
 154 0 146 4 140 6 c 4
 134 4 126 0 120 0 c 4
 98 0 80 18 80 40 c 4
 80 62 98 80 120 80 c 4
EndSplineSet
Validated: 1
EndChar

StartChar: seven
Encoding: 55 55 57
Width: 400
VWidth: 0
Flags: HMW
LayerCount: 2
UndoRedoHistory
Layer: 1
Undoes
UndoOperation
Index: 0
Type: 1
WasModified: 0
WasOrder2: 0
Layer: 2
Width: 200
VWidth: 0
LBearingChange: 0
UnicodeEnc: 0
InstructionsLength: 0
EndUndoOperation
EndUndoes
Redoes
EndRedoes
EndUndoRedoHistory
Fore
SplineSet
80 560 m 4
 86 560 94 556 100 554 c 4
 106 556 114 560 120 560 c 4
 126 560 134 556 140 554 c 4
 146 556 154 560 160 560 c 4
 166 560 174 556 180 554 c 4
 186 556 194 560 200 560 c 4
 206 560 214 556 220 554 c 4
 226 556 234 560 240 560 c 4
 246 560 254 556 260 554 c 4
 266 556 274 560 280 560 c 4
 286 560 294 556 300 554 c 4
 306 556 314 560 320 560 c 4
 342 560 360 542 360 520 c 4
 360 498 342 480 320 480 c 4
 314 480 306 484 300 486 c 4
 294 484 286 480 280 480 c 4
 274 480 266 484 260 486 c 4
 254 484 246 480 240 480 c 4
 234 480 226 484 220 486 c 4
 214 484 206 480 200 480 c 4
 194 480 186 484 180 486 c 4
 174 484 166 480 160 480 c 4
 154 480 146 484 140 486 c 4
 134 484 126 480 120 480 c 4
 114 480 106 484 100 486 c 4
 94 484 86 480 80 480 c 4
 58 480 40 498 40 520 c 4
 40 542 58 560 80 560 c 4
320 479 m 4
 342 479 360 462 360 440 c 4
 360 418 342 400 320 400 c 4
 298 400 280 418 280 440 c 4
 280 462 298 479 320 479 c 4
280 400 m 4
 302 400 320 382 320 360 c 4
 320 338 302 320 280 320 c 4
 258 320 240 338 240 360 c 4
 240 382 258 400 280 400 c 4
240 320 m 4
 262 320 280 302 280 280 c 4
 280 258 262 240 240 240 c 4
 218 240 200 258 200 280 c 4
 200 302 218 320 240 320 c 4
200 240 m 4
 222 240 240 222 240 200 c 4
 240 178 222 160 200 160 c 4
 178 160 160 178 160 200 c 4
 160 222 178 240 200 240 c 4
160 160 m 4
 182 160 200 142 200 120 c 4
 200 98 182 80 160 80 c 4
 138 80 120 98 120 120 c 4
 120 142 138 160 160 160 c 4
120 80 m 4
 142 80 160 62 160 40 c 4
 160 18 142 0 120 0 c 4
 98 0 80 18 80 40 c 4
 80 62 98 80 120 80 c 4
EndSplineSet
Validated: 1
EndChar

StartChar: eight
Encoding: 56 56 58
Width: 400
VWidth: 0
Flags: HMW
LayerCount: 2
UndoRedoHistory
Layer: 1
Undoes
UndoOperation
Index: 0
Type: 1
WasModified: 0
WasOrder2: 0
Layer: 2
Width: 200
VWidth: 0
LBearingChange: 0
UnicodeEnc: 0
InstructionsLength: 0
EndUndoOperation
EndUndoes
Redoes
EndRedoes
EndUndoRedoHistory
Fore
SplineSet
120 560 m 4
 126 560 134 556 140 554 c 4
 146 556 154 560 160 560 c 4
 166 560 174 556 180 554 c 4
 186 556 194 560 200 560 c 4
 206 560 214 556 220 554 c 4
 226 556 234 560 240 560 c 4
 246 560 254 556 260 554 c 4
 266 556 274 560 280 560 c 4
 302 560 320 542 320 520 c 4
 320 498 302 480 280 480 c 4
 274 480 266 484 260 486 c 4
 254 484 246 480 240 480 c 4
 234 480 226 484 220 486 c 4
 214 484 206 480 200 480 c 4
 194 480 186 484 180 486 c 4
 174 484 166 480 160 480 c 4
 154 480 146 484 140 486 c 4
 134 484 126 480 120 480 c 4
 98 480 80 498 80 520 c 4
 80 542 98 560 120 560 c 4
80 480 m 4
 102 480 120 462 120 440 c 4
 120 418 102 400 80 400 c 4
 58 400 40 418 40 440 c 4
 40 462 58 480 80 480 c 4
80 399 m 4
 102 399 120 382 120 360 c 4
 120 338 102 320 80 320 c 4
 58 320 40 338 40 360 c 4
 40 382 58 399 80 399 c 4
320 480 m 4
 342 480 360 462 360 440 c 4
 360 418 342 400 320 400 c 4
 298 400 280 418 280 440 c 4
 280 462 298 480 320 480 c 4
320 399 m 4
 342 399 360 382 360 360 c 4
 360 338 342 320 320 320 c 4
 298 320 280 338 280 360 c 4
 280 382 298 399 320 399 c 4
120 320 m 4
 126 320 134 316 140 314 c 4
 146 316 154 320 160 320 c 4
 166 320 174 316 180 314 c 4
 186 316 194 320 200 320 c 4
 206 320 214 316 220 314 c 4
 226 316 234 320 240 320 c 4
 246 320 254 316 260 314 c 4
 266 316 274 320 280 320 c 4
 302 320 320 302 320 280 c 4
 320 258 302 240 280 240 c 4
 274 240 266 244 260 246 c 4
 254 244 246 240 240 240 c 4
 234 240 226 244 220 246 c 4
 214 244 206 240 200 240 c 4
 194 240 186 244 180 246 c 4
 174 244 166 240 160 240 c 4
 154 240 146 244 140 246 c 4
 134 244 126 240 120 240 c 4
 98 240 80 258 80 280 c 4
 80 302 98 320 120 320 c 4
80 240 m 4
 102 240 120 222 120 200 c 4
 120 178 102 160 80 160 c 4
 58 160 40 178 40 200 c 4
 40 222 58 240 80 240 c 4
80 159 m 4
 102 159 120 142 120 120 c 4
 120 98 102 80 80 80 c 4
 58 80 40 98 40 120 c 4
 40 142 58 159 80 159 c 4
320 240 m 4
 342 240 360 222 360 200 c 4
 360 178 342 160 320 160 c 4
 298 160 280 178 280 200 c 4
 280 222 298 240 320 240 c 4
320 159 m 4
 342 159 360 142 360 120 c 4
 360 98 342 80 320 80 c 4
 298 80 280 98 280 120 c 4
 280 142 298 159 320 159 c 4
120 80 m 4
 126 80 134 76 140 74 c 4
 146 76 154 80 160 80 c 4
 166 80 174 76 180 74 c 4
 186 76 194 80 200 80 c 4
 206 80 214 76 220 74 c 4
 226 76 234 80 240 80 c 4
 246 80 254 76 260 74 c 4
 266 76 274 80 280 80 c 4
 302 80 320 62 320 40 c 4
 320 18 302 0 280 0 c 4
 274 0 266 4 260 6 c 4
 254 4 246 0 240 0 c 4
 234 0 226 4 220 6 c 4
 214 4 206 0 200 0 c 4
 194 0 186 4 180 6 c 4
 174 4 166 0 160 0 c 4
 154 0 146 4 140 6 c 4
 134 4 126 0 120 0 c 4
 98 0 80 18 80 40 c 4
 80 62 98 80 120 80 c 4
EndSplineSet
Validated: 1
EndChar

StartChar: nine
Encoding: 57 57 59
Width: 400
VWidth: 0
Flags: HMW
LayerCount: 2
UndoRedoHistory
Layer: 1
Undoes
UndoOperation
Index: 0
Type: 1
WasModified: 0
WasOrder2: 0
Layer: 2
Width: 200
VWidth: 0
LBearingChange: 0
UnicodeEnc: 0
InstructionsLength: 0
EndUndoOperation
EndUndoes
Redoes
EndRedoes
EndUndoRedoHistory
Fore
SplineSet
120 560 m 4
 126 560 134 556 140 554 c 4
 146 556 154 560 160 560 c 4
 166 560 174 556 180 554 c 4
 186 556 194 560 200 560 c 4
 206 560 214 556 220 554 c 4
 226 556 234 560 240 560 c 4
 246 560 254 556 260 554 c 4
 266 556 274 560 280 560 c 4
 302 560 320 542 320 520 c 4
 320 498 302 480 280 480 c 4
 274 480 266 484 260 486 c 4
 254 484 246 480 240 480 c 4
 234 480 226 484 220 486 c 4
 214 484 206 480 200 480 c 4
 194 480 186 484 180 486 c 4
 174 484 166 480 160 480 c 4
 154 480 146 484 140 486 c 4
 134 484 126 480 120 480 c 4
 98 480 80 498 80 520 c 4
 80 542 98 560 120 560 c 4
80 480 m 4
 102 480 120 462 120 440 c 4
 120 418 102 400 80 400 c 4
 58 400 40 418 40 440 c 4
 40 462 58 480 80 480 c 4
80 399 m 4
 102 399 120 382 120 360 c 4
 120 338 102 320 80 320 c 4
 58 320 40 338 40 360 c 4
 40 382 58 399 80 399 c 4
320 480 m 4
 342 480 360 462 360 440 c 4
 360 418 342 400 320 400 c 4
 298 400 280 418 280 440 c 4
 280 462 298 480 320 480 c 4
320 399 m 4
 342 399 360 382 360 360 c 4
 360 338 342 320 320 320 c 4
 298 320 280 338 280 360 c 4
 280 382 298 399 320 399 c 4
320 319 m 4
 342 319 360 302 360 280 c 4
 360 258 342 240 320 240 c 4
 314 240 306 244 300 246 c 4
 294 244 286 240 280 240 c 4
 274 240 266 244 260 246 c 4
 254 244 246 240 240 240 c 4
 234 240 226 244 220 246 c 4
 214 244 206 240 200 240 c 4
 194 240 186 244 180 246 c 4
 174 244 166 240 160 240 c 4
 154 240 146 244 140 246 c 4
 134 244 126 240 120 240 c 4
 98 240 80 258 80 280 c 4
 80 302 98 320 120 320 c 4
 126 320 134 316 140 314 c 4
 146 316 154 320 160 320 c 4
 166 320 174 316 180 314 c 4
 186 316 194 320 200 320 c 4
 206 320 214 316 220 314 c 4
 226 316 234 320 240 320 c 4
 246 320 254 316 260 314 c 4
 266 316 274 320 280 320 c 4
 286 320 294 316 300 314 c 4
 306 316 314 319 320 319 c 4
320 239 m 4
 342 239 360 222 360 200 c 4
 360 178 342 160 320 160 c 4
 298 160 280 178 280 200 c 4
 280 222 298 239 320 239 c 4
320 159 m 4
 342 159 360 142 360 120 c 4
 360 98 342 80 320 80 c 4
 298 80 280 98 280 120 c 4
 280 142 298 159 320 159 c 4
120 80 m 4
 126 80 134 76 140 74 c 4
 146 76 154 80 160 80 c 4
 166 80 174 76 180 74 c 4
 186 76 194 80 200 80 c 4
 206 80 214 76 220 74 c 4
 226 76 234 80 240 80 c 4
 246 80 254 76 260 74 c 4
 266 76 274 80 280 80 c 4
 302 80 320 62 320 40 c 4
 320 18 302 0 280 0 c 4
 274 0 266 4 260 6 c 4
 254 4 246 0 240 0 c 4
 234 0 226 4 220 6 c 4
 214 4 206 0 200 0 c 4
 194 0 186 4 180 6 c 4
 174 4 166 0 160 0 c 4
 154 0 146 4 140 6 c 4
 134 4 126 0 120 0 c 4
 98 0 80 18 80 40 c 4
 80 62 98 80 120 80 c 4
EndSplineSet
Validated: 1
EndChar

StartChar: colon
Encoding: 58 58 60
Width: 400
VWidth: 0
Flags: HMW
LayerCount: 2
UndoRedoHistory
Layer: 1
Undoes
UndoOperation
Index: 0
Type: 1
WasModified: 0
WasOrder2: 0
Layer: 2
Width: 200
VWidth: 0
LBearingChange: 0
UnicodeEnc: 0
InstructionsLength: 0
EndUndoOperation
EndUndoes
Redoes
EndRedoes
EndUndoRedoHistory
Fore
SplineSet
180 480 m 4
 186 480 194 476 200 474 c 4
 206 476 214 480 220 480 c 4
 242 480 260 462 260 440 c 4
 260 418 242 400 220 400 c 4
 214 400 206 404 200 406 c 4
 194 404 186 400 180 400 c 4
 158 400 140 418 140 440 c 4
 140 462 158 480 180 480 c 4
220 399 m 4
 242 399 260 382 260 360 c 4
 260 338 242 320 220 320 c 4
 214 320 206 324 200 326 c 4
 194 324 186 320 180 320 c 4
 158 320 140 338 140 360 c 4
 140 382 158 399 180 399 c 4
 186 399 194 396 200 394 c 4
 206 396 214 399 220 399 c 4
180 240 m 4
 186 240 194 236 200 234 c 4
 206 236 214 240 220 240 c 4
 242 240 260 222 260 200 c 4
 260 178 242 160 220 160 c 4
 214 160 206 164 200 166 c 4
 194 164 186 160 180 160 c 4
 158 160 140 178 140 200 c 4
 140 222 158 240 180 240 c 4
220 159 m 4
 242 159 260 142 260 120 c 4
 260 98 242 80 220 80 c 4
 214 80 206 84 200 86 c 4
 194 84 186 80 180 80 c 4
 158 80 140 98 140 120 c 4
 140 142 158 159 180 159 c 4
 186 159 194 156 200 154 c 4
 206 156 214 159 220 159 c 4
EndSplineSet
Validated: 1
EndChar

StartChar: semicolon
Encoding: 59 59 61
Width: 400
VWidth: 0
Flags: HMW
LayerCount: 2
UndoRedoHistory
Layer: 1
Undoes
UndoOperation
Index: 0
Type: 1
WasModified: 0
WasOrder2: 0
Layer: 2
Width: 200
VWidth: 0
LBearingChange: 0
UnicodeEnc: 0
InstructionsLength: 0
EndUndoOperation
EndUndoes
Redoes
EndRedoes
EndUndoRedoHistory
Fore
SplineSet
180 480 m 4
 186 480 194 476 200 474 c 4
 206 476 214 480 220 480 c 4
 242 480 260 462 260 440 c 4
 260 418 242 400 220 400 c 4
 214 400 206 404 200 406 c 4
 194 404 186 400 180 400 c 4
 158 400 140 418 140 440 c 4
 140 462 158 480 180 480 c 4
220 399 m 4
 242 399 260 382 260 360 c 4
 260 338 242 320 220 320 c 4
 214 320 206 324 200 326 c 4
 194 324 186 320 180 320 c 4
 158 320 140 338 140 360 c 4
 140 382 158 399 180 399 c 4
 186 399 194 396 200 394 c 4
 206 396 214 399 220 399 c 4
180 240 m 4
 186 240 194 236 200 234 c 4
 206 236 214 240 220 240 c 4
 242 240 260 222 260 200 c 4
 260 178 242 160 220 160 c 4
 214 160 206 164 200 166 c 4
 194 164 186 160 180 160 c 4
 158 160 140 178 140 200 c 4
 140 222 158 240 180 240 c 4
220 159 m 4
 242 159 260 142 260 120 c 4
 260 98 242 80 220 80 c 4
 214 80 206 84 200 86 c 4
 194 84 186 80 180 80 c 4
 158 80 140 98 140 120 c 4
 140 142 158 159 180 159 c 4
 186 159 194 156 200 154 c 4
 206 156 214 159 220 159 c 4
220 79 m 4
 242 79 260 62 260 40 c 4
 260 18 242 0 220 0 c 4
 198 0 180 18 180 40 c 4
 180 62 198 79 220 79 c 4
180 0 m 4
 202 0 220 -18 220 -40 c 4
 220 -62 202 -80 180 -80 c 4
 158 -80 140 -62 140 -40 c 4
 140 -18 158 0 180 0 c 4
EndSplineSet
Validated: 1
EndChar

StartChar: less
Encoding: 60 60 62
Width: 400
VWidth: 0
Flags: HMW
LayerCount: 2
UndoRedoHistory
Layer: 1
Undoes
UndoOperation
Index: 0
Type: 1
WasModified: 0
WasOrder2: 0
Layer: 2
Width: 200
VWidth: 0
LBearingChange: 0
UnicodeEnc: 0
InstructionsLength: 0
EndUndoOperation
EndUndoes
Redoes
EndRedoes
EndUndoRedoHistory
Fore
SplineSet
240 480 m 4
 262 480 280 462 280 440 c 4
 280 418 262 400 240 400 c 4
 218 400 200 418 200 440 c 4
 200 462 218 480 240 480 c 4
200 400 m 4
 222 400 240 382 240 360 c 4
 240 338 222 320 200 320 c 4
 178 320 160 338 160 360 c 4
 160 382 178 400 200 400 c 4
160 320 m 4
 182 320 200 302 200 280 c 4
 200 258 182 240 160 240 c 4
 138 240 120 258 120 280 c 4
 120 302 138 320 160 320 c 4
200 240 m 4
 222 240 240 222 240 200 c 4
 240 178 222 160 200 160 c 4
 178 160 160 178 160 200 c 4
 160 222 178 240 200 240 c 4
240 160 m 4
 262 160 280 142 280 120 c 4
 280 98 262 80 240 80 c 4
 218 80 200 98 200 120 c 4
 200 142 218 160 240 160 c 4
EndSplineSet
Validated: 1
EndChar

StartChar: equal
Encoding: 61 61 63
Width: 400
VWidth: 0
Flags: HMW
LayerCount: 2
UndoRedoHistory
Layer: 1
Undoes
UndoOperation
Index: 0
Type: 1
WasModified: 0
WasOrder2: 0
Layer: 2
Width: 200
VWidth: 0
LBearingChange: 0
UnicodeEnc: 0
InstructionsLength: 0
EndUndoOperation
EndUndoes
Redoes
EndRedoes
EndUndoRedoHistory
Fore
SplineSet
80 394 m 4
 86 394 94 392 100 390 c 4
 106 392 114 394 120 394 c 4
 126 394 134 392 140 390 c 4
 146 392 154 394 160 394 c 4
 166 394 174 392 180 390 c 4
 186 392 194 394 200 394 c 4
 206 394 214 392 220 390 c 4
 226 392 234 394 240 394 c 4
 246 394 254 392 260 390 c 4
 266 392 274 394 280 394 c 4
 286 394 294 392 300 390 c 4
 306 392 314 394 320 394 c 4
 342 394 360 376 360 354 c 4
 360 332 342 314 320 314 c 4
 314 314 306 318 300 320 c 4
 294 318 286 314 280 314 c 4
 274 314 266 318 260 320 c 4
 254 318 246 314 240 314 c 4
 234 314 226 318 220 320 c 4
 214 318 206 314 200 314 c 4
 194 314 186 318 180 320 c 4
 174 318 166 314 160 314 c 4
 154 314 146 318 140 320 c 4
 134 318 126 314 120 314 c 4
 114 314 106 318 100 320 c 4
 94 318 86 314 80 314 c 4
 58 314 40 332 40 354 c 4
 40 376 58 394 80 394 c 4
80 234 m 4
 86 234 94 232 100 230 c 4
 106 232 114 234 120 234 c 4
 126 234 134 232 140 230 c 4
 146 232 154 234 160 234 c 4
 166 234 174 232 180 230 c 4
 186 232 194 234 200 234 c 4
 206 234 214 232 220 230 c 4
 226 232 234 234 240 234 c 4
 246 234 254 232 260 230 c 4
 266 232 274 234 280 234 c 4
 286 234 294 232 300 230 c 4
 306 232 314 234 320 234 c 4
 342 234 360 216 360 194 c 4
 360 172 342 154 320 154 c 4
 314 154 306 158 300 160 c 4
 294 158 286 154 280 154 c 4
 274 154 266 158 260 160 c 4
 254 158 246 154 240 154 c 4
 234 154 226 158 220 160 c 4
 214 158 206 154 200 154 c 4
 194 154 186 158 180 160 c 4
 174 158 166 154 160 154 c 4
 154 154 146 158 140 160 c 4
 134 158 126 154 120 154 c 4
 114 154 106 158 100 160 c 4
 94 158 86 154 80 154 c 4
 58 154 40 172 40 194 c 4
 40 216 58 234 80 234 c 4
EndSplineSet
Validated: 1
EndChar

StartChar: greater
Encoding: 62 62 64
Width: 400
VWidth: 0
Flags: HMW
LayerCount: 2
UndoRedoHistory
Layer: 1
Undoes
UndoOperation
Index: 0
Type: 1
WasModified: 0
WasOrder2: 0
Layer: 2
Width: 200
VWidth: 0
LBearingChange: 0
UnicodeEnc: 0
InstructionsLength: 0
EndUndoOperation
EndUndoes
Redoes
EndRedoes
EndUndoRedoHistory
Fore
SplineSet
160 480 m 4
 182 480 200 462 200 440 c 4
 200 418 182 400 160 400 c 4
 138 400 120 418 120 440 c 4
 120 462 138 480 160 480 c 4
200 400 m 4
 222 400 240 382 240 360 c 4
 240 338 222 320 200 320 c 4
 178 320 160 338 160 360 c 4
 160 382 178 400 200 400 c 4
240 320 m 4
 262 320 280 302 280 280 c 4
 280 258 262 240 240 240 c 4
 218 240 200 258 200 280 c 4
 200 302 218 320 240 320 c 4
200 240 m 4
 222 240 240 222 240 200 c 4
 240 178 222 160 200 160 c 4
 178 160 160 178 160 200 c 4
 160 222 178 240 200 240 c 4
160 160 m 4
 182 160 200 142 200 120 c 4
 200 98 182 80 160 80 c 4
 138 80 120 98 120 120 c 4
 120 142 138 160 160 160 c 4
EndSplineSet
Validated: 1
EndChar

StartChar: question
Encoding: 63 63 65
Width: 400
VWidth: 0
Flags: HMW
LayerCount: 2
UndoRedoHistory
Layer: 1
Undoes
UndoOperation
Index: 0
Type: 1
WasModified: 0
WasOrder2: 0
Layer: 2
Width: 200
VWidth: 0
LBearingChange: 0
UnicodeEnc: 0
InstructionsLength: 0
EndUndoOperation
EndUndoes
Redoes
EndRedoes
EndUndoRedoHistory
Fore
SplineSet
140 560 m 4
 146 560 154 556 160 554 c 4
 166 556 174 560 180 560 c 4
 186 560 194 556 200 554 c 4
 206 556 214 560 220 560 c 4
 226 560 234 556 240 554 c 4
 246 556 254 560 260 560 c 4
 282 560 300 542 300 520 c 4
 300 498 282 480 260 480 c 4
 254 480 246 484 240 486 c 4
 234 484 226 480 220 480 c 4
 214 480 206 484 200 486 c 4
 194 484 186 480 180 480 c 4
 174 480 166 484 160 486 c 4
 154 484 146 480 140 480 c 4
 118 480 100 498 100 520 c 4
 100 542 118 560 140 560 c 4
100 480 m 4
 122 480 140 462 140 440 c 4
 140 418 122 400 100 400 c 4
 78 400 60 418 60 440 c 4
 60 462 78 480 100 480 c 4
300 480 m 4
 322 480 340 462 340 440 c 4
 340 418 322 400 300 400 c 4
 278 400 260 418 260 440 c 4
 260 462 278 480 300 480 c 4
300 399 m 4
 322 399 340 382 340 360 c 4
 340 338 322 320 300 320 c 4
 278 320 260 338 260 360 c 4
 260 382 278 399 300 399 c 4
260 320 m 4
 282 320 300 302 300 280 c 4
 300 258 282 240 260 240 c 4
 238 240 220 258 220 280 c 4
 220 302 238 320 260 320 c 4
220 240 m 4
 242 240 260 222 260 200 c 4
 260 178 242 160 220 160 c 4
 198 160 180 178 180 200 c 4
 180 222 198 240 220 240 c 4
220 80 m 4
 242 80 260 62 260 40 c 4
 260 18 242 0 220 0 c 4
 198 0 180 18 180 40 c 4
 180 62 198 80 220 80 c 4
EndSplineSet
Validated: 1
EndChar

StartChar: at
Encoding: 64 64 66
Width: 400
VWidth: 0
Flags: HMW
LayerCount: 2
UndoRedoHistory
Layer: 1
Undoes
UndoOperation
Index: 0
Type: 1
WasModified: 0
WasOrder2: 0
Layer: 2
Width: 200
VWidth: 0
LBearingChange: 0
UnicodeEnc: 0
InstructionsLength: 0
EndUndoOperation
EndUndoes
Redoes
EndRedoes
EndUndoRedoHistory
Fore
SplineSet
120 560 m 0
 126 560 134 556 140 554 c 0
 146 556 154 560 160 560 c 0
 166 560 174 556 180 554 c 0
 186 556 194 560 200 560 c 0
 206 560 214 556 220 554 c 0
 226 556 234 560 240 560 c 0
 246 560 254 556 260 554 c 0
 266 556 274 560 280 560 c 0
 302 560 320 542 320 520 c 0
 320 498 302 480 280 480 c 0
 274 480 266 484 260 486 c 0
 254 484 246 480 240 480 c 0
 234 480 226 484 220 486 c 0
 214 484 206 480 200 480 c 0
 194 480 186 484 180 486 c 0
 174 484 166 480 160 480 c 0
 154 480 146 484 140 486 c 0
 134 484 126 480 120 480 c 0
 98 480 80 498 80 520 c 0
 80 542 98 560 120 560 c 0
80 480 m 0
 102 480 120 462 120 440 c 0
 120 418 102 400 80 400 c 0
 58 400 40 418 40 440 c 0
 40 462 58 480 80 480 c 0
320 480 m 0
 342 480 360 462 360 440 c 0
 360 418 342 400 320 400 c 0
 298 400 280 418 280 440 c 0
 280 462 298 480 320 480 c 0
40 400 m 0
 62 400 80 382 80 360 c 0
 80 338 62 320 40 320 c 0
 18 320 0 338 0 360 c 0
 0 382 18 400 40 400 c 0
40 319 m 0
 62 319 80 302 80 280 c 0
 80 258 62 240 40 240 c 0
 18 240 0 258 0 280 c 0
 0 302 18 319 40 319 c 0
81 280 m 0
 81 302 98 320 120 320 c 0
 142 320 160 302 160 280 c 0
 160 258 142 240 120 240 c 0
 98 240 81 258 81 280 c 0
40 239 m 0
 62 239 80 222 80 200 c 0
 80 178 62 160 40 160 c 0
 18 160 0 178 0 200 c 0
 0 222 18 239 40 239 c 0
160 400 m 0
 166 400 174 396 180 394 c 0
 186 396 194 400 200 400 c 0
 206 400 214 396 220 394 c 0
 226 396 234 400 240 400 c 0
 262 400 280 382 280 360 c 0
 280 338 262 320 240 320 c 0
 234 320 226 324 220 326 c 0
 214 324 206 320 200 320 c 0
 194 320 186 324 180 326 c 0
 174 324 166 320 160 320 c 0
 138 320 120 338 120 360 c 0
 120 382 138 400 160 400 c 0
240 319 m 0
 262 319 280 302 280 280 c 0
 280 258 262 240 240 240 c 0
 218 240 200 258 200 280 c 0
 200 302 218 319 240 319 c 0
240 239 m 0
 246 239 254 236 260 234 c 0
 266 236 274 240 280 240 c 0
 286 240 294 236 300 234 c 0
 306 236 314 240 320 240 c 0
 326 240 334 236 340 234 c 0
 346 236 354 240 360 240 c 0
 382 240 400 222 400 200 c 0
 400 178 382 160 360 160 c 0
 354 160 346 164 340 166 c 0
 334 164 326 160 320 160 c 0
 314 160 306 164 300 166 c 0
 294 164 286 160 280 160 c 0
 274 160 266 164 260 166 c 0
 254 164 246 160 240 160 c 0
 234 160 226 164 220 166 c 0
 214 164 206 160 200 160 c 0
 194 160 186 164 180 166 c 0
 174 164 166 160 160 160 c 0
 138 160 120 178 120 200 c 0
 120 222 138 240 160 240 c 0
 166 240 174 236 180 234 c 0
 186 236 194 240 200 240 c 0
 206 240 214 236 220 234 c 0
 226 236 234 239 240 239 c 0
360 241 m 0
 338 241 320 258 320 280 c 0
 320 302 338 320 360 320 c 0
 382 320 400 302 400 280 c 0
 400 258 382 241 360 241 c 0
360 321 m 0
 338 321 320 338 320 360 c 0
 320 382 338 400 360 400 c 0
 382 400 400 382 400 360 c 0
 400 338 382 321 360 321 c 0
80 160 m 0
 102 160 120 142 120 120 c 0
 120 98 102 80 80 80 c 0
 58 80 40 98 40 120 c 0
 40 142 58 160 80 160 c 0
120 80 m 0
 126 80 134 76 140 74 c 0
 146 76 154 80 160 80 c 0
 166 80 174 76 180 74 c 0
 186 76 194 80 200 80 c 0
 206 80 214 76 220 74 c 0
 226 76 234 80 240 80 c 0
 246 80 254 76 260 74 c 0
 266 76 274 80 280 80 c 0
 302 80 320 62 320 40 c 0
 320 18 302 0 280 0 c 0
 274 0 266 4 260 6 c 0
 254 4 246 0 240 0 c 0
 234 0 226 4 220 6 c 0
 214 4 206 0 200 0 c 0
 194 0 186 4 180 6 c 0
 174 4 166 0 160 0 c 0
 154 0 146 4 140 6 c 0
 134 4 126 0 120 0 c 0
 98 0 80 18 80 40 c 0
 80 62 98 80 120 80 c 0
EndSplineSet
Validated: 1
EndChar

StartChar: B
Encoding: 66 66 67
Width: 400
VWidth: 0
Flags: HMW
LayerCount: 2
UndoRedoHistory
Layer: 1
Undoes
UndoOperation
Index: 0
Type: 1
WasModified: 0
WasOrder2: 0
Layer: 2
Width: 200
VWidth: 0
LBearingChange: 0
UnicodeEnc: 0
InstructionsLength: 0
EndUndoOperation
EndUndoes
Redoes
EndRedoes
EndUndoRedoHistory
Fore
SplineSet
60 560 m 4
 66 560 75 558 80 555 c 4
 85 558 94 560 100 560 c 4
 106 560 115 558 120 555 c 4
 125 558 134 560 140 560 c 4
 146 560 155 558 160 555 c 4
 165 558 174 560 180 560 c 4
 186 560 195 558 200 555 c 4
 205 558 214 560 220 560 c 4
 226 560 235 558 240 555 c 4
 245 558 254 560 260 560 c 4
 266 560 275 558 280 555 c 4
 285 558 294 560 300 560 c 4
 322 560 340 542 340 520 c 4
 340 498 322 480 300 480 c 4
 294 480 285 482 280 485 c 4
 275 482 266 480 260 480 c 4
 254 480 245 482 240 485 c 4
 235 482 226 480 220 480 c 4
 214 480 205 482 200 485 c 4
 195 482 186 480 180 480 c 4
 174 480 165 482 160 485 c 4
 155 482 146 480 140 480 c 4
 134 480 125 482 120 485 c 4
 115 482 106 480 100 480 c 4
 94 480 85 482 80 485 c 4
 75 482 66 480 60 480 c 4
 38 480 20 498 20 520 c 4
 20 542 38 560 60 560 c 4
60 479 m 4
 82 479 100 462 100 440 c 4
 100 418 82 400 60 400 c 4
 38 400 20 418 20 440 c 4
 20 462 38 479 60 479 c 4
60 399 m 4
 82 399 100 382 100 360 c 4
 100 338 82 320 60 320 c 4
 38 320 20 338 20 360 c 4
 20 382 38 399 60 399 c 4
60 319 m 4
 66 319 75 318 80 315 c 4
 85 318 94 320 100 320 c 4
 106 320 115 318 120 315 c 4
 125 318 134 320 140 320 c 4
 146 320 155 318 160 315 c 4
 165 318 174 320 180 320 c 4
 186 320 195 318 200 315 c 4
 205 318 214 320 220 320 c 4
 226 320 235 318 240 315 c 4
 245 318 254 320 260 320 c 4
 266 320 275 318 280 315 c 4
 285 318 294 320 300 320 c 4
 322 320 340 302 340 280 c 4
 340 258 322 240 300 240 c 4
 294 240 285 242 280 245 c 4
 275 242 266 240 260 240 c 4
 254 240 245 242 240 245 c 4
 235 242 226 240 220 240 c 4
 214 240 205 242 200 245 c 4
 195 242 186 240 180 240 c 4
 174 240 165 242 160 245 c 4
 155 242 146 240 140 240 c 4
 134 240 125 242 120 245 c 4
 115 242 106 240 100 240 c 4
 94 240 85 242 80 245 c 4
 75 242 66 240 60 240 c 4
 38 240 20 258 20 280 c 4
 20 302 38 319 60 319 c 4
60 239 m 4
 82 239 100 222 100 200 c 4
 100 178 82 160 60 160 c 4
 38 160 20 178 20 200 c 4
 20 222 38 239 60 239 c 4
60 159 m 4
 82 159 100 142 100 120 c 4
 100 98 82 80 60 80 c 4
 38 80 20 98 20 120 c 4
 20 142 38 159 60 159 c 4
60 79 m 4
 66 79 75 78 80 75 c 4
 85 78 94 80 100 80 c 4
 106 80 115 78 120 75 c 4
 125 78 134 80 140 80 c 4
 146 80 155 78 160 75 c 4
 165 78 174 80 180 80 c 4
 186 80 195 78 200 75 c 4
 205 78 214 80 220 80 c 4
 226 80 235 78 240 75 c 4
 245 78 254 80 260 80 c 4
 266 80 275 78 280 75 c 4
 285 78 294 80 300 80 c 4
 322 80 340 62 340 40 c 4
 340 18 322 0 300 0 c 4
 294 0 285 2 280 5 c 4
 275 2 266 0 260 0 c 4
 254 0 245 2 240 5 c 4
 235 2 226 0 220 0 c 4
 214 0 205 2 200 5 c 4
 195 2 186 0 180 0 c 4
 174 0 165 2 160 5 c 4
 155 2 146 0 140 0 c 4
 134 0 125 2 120 5 c 4
 115 2 106 0 100 0 c 4
 94 0 85 2 80 5 c 4
 75 2 66 0 60 0 c 4
 38 0 20 18 20 40 c 4
 20 62 38 79 60 79 c 4
340 480 m 4
 362 480 380 462 380 440 c 4
 380 418 362 400 340 400 c 4
 318 400 300 418 300 440 c 4
 300 462 318 480 340 480 c 4
340 399 m 4
 362 399 380 382 380 360 c 4
 380 338 362 320 340 320 c 4
 318 320 300 338 300 360 c 4
 300 382 318 399 340 399 c 4
340 240 m 4
 362 240 380 222 380 200 c 4
 380 178 362 160 340 160 c 4
 318 160 300 178 300 200 c 4
 300 222 318 240 340 240 c 4
340 159 m 4
 362 159 380 142 380 120 c 4
 380 98 362 80 340 80 c 4
 318 80 300 98 300 120 c 4
 300 142 318 159 340 159 c 4
EndSplineSet
Validated: 1
EndChar

StartChar: C
Encoding: 67 67 68
Width: 400
VWidth: 0
Flags: HMW
LayerCount: 2
UndoRedoHistory
Layer: 1
Undoes
UndoOperation
Index: 0
Type: 1
WasModified: 0
WasOrder2: 0
Layer: 2
Width: 200
VWidth: 0
LBearingChange: 0
UnicodeEnc: 0
InstructionsLength: 0
EndUndoOperation
EndUndoes
Redoes
EndRedoes
EndUndoRedoHistory
Fore
SplineSet
140 560 m 4
 146 560 154 556 160 554 c 4
 166 556 174 560 180 560 c 4
 186 560 194 556 200 554 c 4
 206 556 214 560 220 560 c 4
 226 560 234 556 240 554 c 4
 246 556 254 560 260 560 c 4
 266 560 274 556 280 554 c 4
 286 556 294 560 300 560 c 4
 322 560 340 542 340 520 c 4
 340 498 322 480 300 480 c 4
 294 480 286 484 280 486 c 4
 274 484 266 480 260 480 c 4
 254 480 246 484 240 486 c 4
 234 484 226 480 220 480 c 4
 214 480 206 484 200 486 c 4
 194 484 186 480 180 480 c 4
 174 480 166 484 160 486 c 4
 154 484 146 480 140 480 c 4
 118 480 100 498 100 520 c 4
 100 542 118 560 140 560 c 4
100 480 m 4
 122 480 140 462 140 440 c 4
 140 418 122 400 100 400 c 4
 78 400 60 418 60 440 c 4
 60 462 78 480 100 480 c 4
340 480 m 4
 362 480 380 462 380 440 c 4
 380 418 362 400 340 400 c 4
 318 400 300 418 300 440 c 4
 300 462 318 480 340 480 c 4
60 400 m 4
 82 400 100 382 100 360 c 4
 100 338 82 320 60 320 c 4
 38 320 20 338 20 360 c 4
 20 382 38 400 60 400 c 4
60 319 m 4
 82 319 100 302 100 280 c 4
 100 258 82 240 60 240 c 4
 38 240 20 258 20 280 c 4
 20 302 38 319 60 319 c 4
60 239 m 4
 82 239 100 222 100 200 c 4
 100 178 82 160 60 160 c 4
 38 160 20 178 20 200 c 4
 20 222 38 239 60 239 c 4
100 160 m 4
 122 160 140 142 140 120 c 4
 140 98 122 80 100 80 c 4
 78 80 60 98 60 120 c 4
 60 142 78 160 100 160 c 4
340 160 m 4
 362 160 380 142 380 120 c 4
 380 98 362 80 340 80 c 4
 318 80 300 98 300 120 c 4
 300 142 318 160 340 160 c 4
140 80 m 4
 146 80 154 76 160 74 c 4
 166 76 174 80 180 80 c 4
 186 80 194 76 200 74 c 4
 206 76 214 80 220 80 c 4
 226 80 234 76 240 74 c 4
 246 76 254 80 260 80 c 4
 266 80 274 76 280 74 c 4
 286 76 294 80 300 80 c 4
 322 80 340 62 340 40 c 4
 340 18 322 0 300 0 c 4
 294 0 286 4 280 6 c 4
 274 4 266 0 260 0 c 4
 254 0 246 4 240 6 c 4
 234 4 226 0 220 0 c 4
 214 0 206 4 200 6 c 4
 194 4 186 0 180 0 c 4
 174 0 166 4 160 6 c 4
 154 4 146 0 140 0 c 4
 118 0 100 18 100 40 c 4
 100 62 118 80 140 80 c 4
EndSplineSet
Validated: 1
EndChar

StartChar: D
Encoding: 68 68 69
Width: 400
VWidth: 0
Flags: HMW
LayerCount: 2
UndoRedoHistory
Layer: 1
Undoes
UndoOperation
Index: 0
Type: 1
WasModified: 0
WasOrder2: 0
Layer: 2
Width: 200
VWidth: 0
LBearingChange: 0
UnicodeEnc: 0
InstructionsLength: 0
EndUndoOperation
EndUndoes
Redoes
EndRedoes
EndUndoRedoHistory
Fore
SplineSet
60 560 m 4
 66 560 74 556 80 554 c 4
 86 556 94 560 100 560 c 4
 106 560 114 556 120 554 c 4
 126 556 134 560 140 560 c 4
 146 560 154 556 160 554 c 4
 166 556 174 560 180 560 c 4
 186 560 194 556 200 554 c 4
 206 556 214 560 220 560 c 4
 226 560 234 556 240 554 c 4
 246 556 254 560 260 560 c 4
 282 560 300 542 300 520 c 4
 300 498 282 480 260 480 c 4
 254 480 246 484 240 486 c 4
 234 484 226 480 220 480 c 4
 214 480 206 484 200 486 c 4
 194 484 186 480 180 480 c 4
 174 480 166 484 160 486 c 4
 154 484 146 480 140 480 c 4
 134 480 126 484 120 486 c 4
 114 484 106 480 100 480 c 4
 94 480 86 484 80 486 c 4
 74 484 66 480 60 480 c 4
 38 480 20 498 20 520 c 4
 20 542 38 560 60 560 c 4
60 479 m 4
 82 479 100 462 100 440 c 4
 100 418 82 400 60 400 c 4
 38 400 20 418 20 440 c 4
 20 462 38 479 60 479 c 4
60 399 m 4
 82 399 100 382 100 360 c 4
 100 338 82 320 60 320 c 4
 38 320 20 338 20 360 c 4
 20 382 38 399 60 399 c 4
60 319 m 4
 82 319 100 302 100 280 c 4
 100 258 82 240 60 240 c 4
 38 240 20 258 20 280 c 4
 20 302 38 319 60 319 c 4
60 239 m 4
 82 239 100 222 100 200 c 4
 100 178 82 160 60 160 c 4
 38 160 20 178 20 200 c 4
 20 222 38 239 60 239 c 4
60 159 m 4
 82 159 100 142 100 120 c 4
 100 98 82 80 60 80 c 4
 38 80 20 98 20 120 c 4
 20 142 38 159 60 159 c 4
60 79 m 4
 66 79 74 76 80 74 c 4
 86 76 94 80 100 80 c 4
 106 80 114 76 120 74 c 4
 126 76 134 80 140 80 c 4
 146 80 154 76 160 74 c 4
 166 76 174 80 180 80 c 4
 186 80 194 76 200 74 c 4
 206 76 214 80 220 80 c 4
 226 80 234 76 240 74 c 4
 246 76 254 80 260 80 c 4
 282 80 300 62 300 40 c 4
 300 18 282 0 260 0 c 4
 254 0 246 4 240 6 c 4
 234 4 226 0 220 0 c 4
 214 0 206 4 200 6 c 4
 194 4 186 0 180 0 c 4
 174 0 166 4 160 6 c 4
 154 4 146 0 140 0 c 4
 134 0 126 4 120 6 c 4
 114 4 106 0 100 0 c 4
 94 0 86 4 80 6 c 4
 74 4 66 0 60 0 c 4
 38 0 20 18 20 40 c 4
 20 62 38 79 60 79 c 4
300 480 m 4
 322 480 340 462 340 440 c 4
 340 418 322 400 300 400 c 4
 278 400 260 418 260 440 c 4
 260 462 278 480 300 480 c 4
340 400 m 4
 362 400 380 382 380 360 c 4
 380 338 362 320 340 320 c 4
 318 320 300 338 300 360 c 4
 300 382 318 400 340 400 c 4
340 319 m 4
 362 319 380 302 380 280 c 4
 380 258 362 240 340 240 c 4
 318 240 300 258 300 280 c 4
 300 302 318 319 340 319 c 4
340 239 m 4
 362 239 380 222 380 200 c 4
 380 178 362 160 340 160 c 4
 318 160 300 178 300 200 c 4
 300 222 318 239 340 239 c 4
300 160 m 4
 322 160 340 142 340 120 c 4
 340 98 322 80 300 80 c 4
 278 80 260 98 260 120 c 4
 260 142 278 160 300 160 c 4
EndSplineSet
Validated: 1
EndChar

StartChar: E
Encoding: 69 69 70
Width: 400
VWidth: 0
Flags: HMW
LayerCount: 2
UndoRedoHistory
Layer: 1
Undoes
UndoOperation
Index: 0
Type: 1
WasModified: 0
WasOrder2: 0
Layer: 2
Width: 200
VWidth: 0
LBearingChange: 0
UnicodeEnc: 0
InstructionsLength: 0
EndUndoOperation
EndUndoes
Redoes
EndRedoes
EndUndoRedoHistory
Fore
SplineSet
60 560 m 4
 66 560 74 556 80 554 c 4
 86 556 94 560 100 560 c 4
 106 560 114 556 120 554 c 4
 126 556 134 560 140 560 c 4
 146 560 154 556 160 554 c 4
 166 556 174 560 180 560 c 4
 186 560 194 556 200 554 c 4
 206 556 214 560 220 560 c 4
 226 560 234 556 240 554 c 4
 246 556 254 560 260 560 c 4
 266 560 274 556 280 554 c 4
 286 556 294 560 300 560 c 4
 306 560 314 556 320 554 c 4
 326 556 334 560 340 560 c 4
 362 560 380 542 380 520 c 4
 380 498 362 480 340 480 c 4
 334 480 326 484 320 486 c 4
 314 484 306 480 300 480 c 4
 294 480 286 484 280 486 c 4
 274 484 266 480 260 480 c 4
 254 480 246 484 240 486 c 4
 234 484 226 480 220 480 c 4
 214 480 206 484 200 486 c 4
 194 484 186 480 180 480 c 4
 174 480 166 484 160 486 c 4
 154 484 146 480 140 480 c 4
 134 480 126 484 120 486 c 4
 114 484 106 480 100 480 c 4
 94 480 86 484 80 486 c 4
 74 484 66 480 60 480 c 4
 38 480 20 498 20 520 c 4
 20 542 38 560 60 560 c 4
60 479 m 4
 82 479 100 462 100 440 c 4
 100 418 82 400 60 400 c 4
 38 400 20 418 20 440 c 4
 20 462 38 479 60 479 c 4
60 399 m 4
 82 399 100 382 100 360 c 4
 100 338 82 320 60 320 c 4
 38 320 20 338 20 360 c 4
 20 382 38 399 60 399 c 4
60 319 m 4
 66 319 74 316 80 314 c 4
 86 316 94 320 100 320 c 4
 106 320 114 316 120 314 c 4
 126 316 134 320 140 320 c 4
 146 320 154 316 160 314 c 4
 166 316 174 320 180 320 c 4
 186 320 194 316 200 314 c 4
 206 316 214 320 220 320 c 4
 226 320 234 316 240 314 c 4
 246 316 254 320 260 320 c 4
 266 320 274 316 280 314 c 4
 286 316 294 320 300 320 c 4
 322 320 340 302 340 280 c 4
 340 258 322 240 300 240 c 4
 294 240 286 244 280 246 c 4
 274 244 266 240 260 240 c 4
 254 240 246 244 240 246 c 4
 234 244 226 240 220 240 c 4
 214 240 206 244 200 246 c 4
 194 244 186 240 180 240 c 4
 174 240 166 244 160 246 c 4
 154 244 146 240 140 240 c 4
 134 240 126 244 120 246 c 4
 114 244 106 240 100 240 c 4
 94 240 86 244 80 246 c 4
 74 244 66 240 60 240 c 4
 38 240 20 258 20 280 c 4
 20 302 38 319 60 319 c 4
60 239 m 4
 82 239 100 222 100 200 c 4
 100 178 82 160 60 160 c 4
 38 160 20 178 20 200 c 4
 20 222 38 239 60 239 c 4
60 159 m 4
 82 159 100 142 100 120 c 4
 100 98 82 80 60 80 c 4
 38 80 20 98 20 120 c 4
 20 142 38 159 60 159 c 4
60 79 m 4
 66 79 74 76 80 74 c 4
 86 76 94 80 100 80 c 4
 106 80 114 76 120 74 c 4
 126 76 134 80 140 80 c 4
 146 80 154 76 160 74 c 4
 166 76 174 80 180 80 c 4
 186 80 194 76 200 74 c 4
 206 76 214 80 220 80 c 4
 226 80 234 76 240 74 c 4
 246 76 254 80 260 80 c 4
 266 80 274 76 280 74 c 4
 286 76 294 80 300 80 c 4
 306 80 314 76 320 74 c 4
 326 76 334 80 340 80 c 4
 362 80 380 62 380 40 c 4
 380 18 362 0 340 0 c 4
 334 0 326 4 320 6 c 4
 314 4 306 0 300 0 c 4
 294 0 286 4 280 6 c 4
 274 4 266 0 260 0 c 4
 254 0 246 4 240 6 c 4
 234 4 226 0 220 0 c 4
 214 0 206 4 200 6 c 4
 194 4 186 0 180 0 c 4
 174 0 166 4 160 6 c 4
 154 4 146 0 140 0 c 4
 134 0 126 4 120 6 c 4
 114 4 106 0 100 0 c 4
 94 0 86 4 80 6 c 4
 74 4 66 0 60 0 c 4
 38 0 20 18 20 40 c 4
 20 62 38 79 60 79 c 4
EndSplineSet
Validated: 1
EndChar

StartChar: F
Encoding: 70 70 71
Width: 400
VWidth: 0
Flags: HMW
LayerCount: 2
UndoRedoHistory
Layer: 1
Undoes
UndoOperation
Index: 0
Type: 1
WasModified: 0
WasOrder2: 0
Layer: 2
Width: 200
VWidth: 0
LBearingChange: 0
UnicodeEnc: 0
InstructionsLength: 0
EndUndoOperation
EndUndoes
Redoes
EndRedoes
EndUndoRedoHistory
Fore
SplineSet
60 560 m 4
 66 560 74 556 80 554 c 4
 86 556 94 560 100 560 c 4
 106 560 114 556 120 554 c 4
 126 556 134 560 140 560 c 4
 146 560 154 556 160 554 c 4
 166 556 174 560 180 560 c 4
 186 560 194 556 200 554 c 4
 206 556 214 560 220 560 c 4
 226 560 234 556 240 554 c 4
 246 556 254 560 260 560 c 4
 266 560 274 556 280 554 c 4
 286 556 294 560 300 560 c 4
 306 560 314 556 320 554 c 4
 326 556 334 560 340 560 c 4
 362 560 380 542 380 520 c 4
 380 498 362 480 340 480 c 4
 334 480 326 484 320 486 c 4
 314 484 306 480 300 480 c 4
 294 480 286 484 280 486 c 4
 274 484 266 480 260 480 c 4
 254 480 246 484 240 486 c 4
 234 484 226 480 220 480 c 4
 214 480 206 484 200 486 c 4
 194 484 186 480 180 480 c 4
 174 480 166 484 160 486 c 4
 154 484 146 480 140 480 c 4
 134 480 126 484 120 486 c 4
 114 484 106 480 100 480 c 4
 94 480 86 484 80 486 c 4
 74 484 66 480 60 480 c 4
 38 480 20 498 20 520 c 4
 20 542 38 560 60 560 c 4
60 479 m 4
 82 479 100 462 100 440 c 4
 100 418 82 400 60 400 c 4
 38 400 20 418 20 440 c 4
 20 462 38 479 60 479 c 4
60 399 m 4
 82 399 100 382 100 360 c 4
 100 338 82 320 60 320 c 4
 38 320 20 338 20 360 c 4
 20 382 38 399 60 399 c 4
60 319 m 4
 66 319 74 316 80 314 c 4
 86 316 94 320 100 320 c 4
 106 320 114 316 120 314 c 4
 126 316 134 320 140 320 c 4
 146 320 154 316 160 314 c 4
 166 316 174 320 180 320 c 4
 186 320 194 316 200 314 c 4
 206 316 214 320 220 320 c 4
 226 320 234 316 240 314 c 4
 246 316 254 320 260 320 c 4
 282 320 300 302 300 280 c 4
 300 258 282 240 260 240 c 4
 254 240 246 244 240 246 c 4
 234 244 226 240 220 240 c 4
 214 240 206 244 200 246 c 4
 194 244 186 240 180 240 c 4
 174 240 166 244 160 246 c 4
 154 244 146 240 140 240 c 4
 134 240 126 244 120 246 c 4
 114 244 106 240 100 240 c 4
 94 240 86 244 80 246 c 4
 74 244 66 240 60 240 c 4
 38 240 20 258 20 280 c 4
 20 302 38 319 60 319 c 4
60 239 m 4
 82 239 100 222 100 200 c 4
 100 178 82 160 60 160 c 4
 38 160 20 178 20 200 c 4
 20 222 38 239 60 239 c 4
60 159 m 4
 82 159 100 142 100 120 c 4
 100 98 82 80 60 80 c 4
 38 80 20 98 20 120 c 4
 20 142 38 159 60 159 c 4
60 79 m 4
 82 79 100 62 100 40 c 4
 100 18 82 0 60 0 c 4
 38 0 20 18 20 40 c 4
 20 62 38 79 60 79 c 4
EndSplineSet
Validated: 1
EndChar

StartChar: G
Encoding: 71 71 72
Width: 400
VWidth: 0
Flags: HMW
LayerCount: 2
UndoRedoHistory
Layer: 1
Undoes
UndoOperation
Index: 0
Type: 1
WasModified: 0
WasOrder2: 0
Layer: 2
Width: 200
VWidth: 0
LBearingChange: 0
UnicodeEnc: 0
InstructionsLength: 0
EndUndoOperation
EndUndoes
Redoes
EndRedoes
EndUndoRedoHistory
Fore
SplineSet
140 560 m 4
 146 560 154 556 160 554 c 4
 166 556 174 560 180 560 c 4
 186 560 194 556 200 554 c 4
 206 556 214 560 220 560 c 4
 226 560 234 556 240 554 c 4
 246 556 254 560 260 560 c 4
 266 560 274 556 280 554 c 4
 286 556 294 560 300 560 c 4
 322 560 340 542 340 520 c 4
 340 498 322 480 300 480 c 4
 294 480 286 484 280 486 c 4
 274 484 266 480 260 480 c 4
 254 480 246 484 240 486 c 4
 234 484 226 480 220 480 c 4
 214 480 206 484 200 486 c 4
 194 484 186 480 180 480 c 4
 174 480 166 484 160 486 c 4
 154 484 146 480 140 480 c 4
 118 480 100 498 100 520 c 4
 100 542 118 560 140 560 c 4
100 480 m 4
 122 480 140 462 140 440 c 4
 140 418 122 400 100 400 c 4
 78 400 60 418 60 440 c 4
 60 462 78 480 100 480 c 4
60 400 m 4
 82 400 100 382 100 360 c 4
 100 338 82 320 60 320 c 4
 38 320 20 338 20 360 c 4
 20 382 38 400 60 400 c 4
60 319 m 4
 82 319 100 302 100 280 c 4
 100 258 82 240 60 240 c 4
 38 240 20 258 20 280 c 4
 20 302 38 319 60 319 c 4
60 239 m 4
 82 239 100 222 100 200 c 4
 100 178 82 160 60 160 c 4
 38 160 20 178 20 200 c 4
 20 222 38 239 60 239 c 4
260 320 m 4
 266 320 274 316 280 314 c 4
 286 316 294 320 300 320 c 4
 306 320 314 316 320 314 c 4
 326 316 334 320 340 320 c 4
 362 320 380 302 380 280 c 4
 380 258 362 240 340 240 c 4
 334 240 326 244 320 246 c 4
 314 244 306 240 300 240 c 4
 294 240 286 244 280 246 c 4
 274 244 266 240 260 240 c 4
 238 240 220 258 220 280 c 4
 220 302 238 320 260 320 c 4
340 239 m 4
 362 239 380 222 380 200 c 4
 380 178 362 160 340 160 c 4
 318 160 300 178 300 200 c 4
 300 222 318 239 340 239 c 4
340 159 m 4
 362 159 380 142 380 120 c 4
 380 98 362 80 340 80 c 4
 318 80 300 98 300 120 c 4
 300 142 318 159 340 159 c 4
100 160 m 4
 122 160 140 142 140 120 c 4
 140 98 122 80 100 80 c 4
 78 80 60 98 60 120 c 4
 60 142 78 160 100 160 c 4
140 80 m 4
 146 80 154 76 160 74 c 4
 166 76 174 80 180 80 c 4
 186 80 194 76 200 74 c 4
 206 76 214 80 220 80 c 4
 226 80 234 76 240 74 c 4
 246 76 254 80 260 80 c 4
 266 80 274 76 280 74 c 4
 286 76 294 80 300 80 c 4
 322 80 340 62 340 40 c 4
 340 18 322 0 300 0 c 4
 294 0 286 4 280 6 c 4
 274 4 266 0 260 0 c 4
 254 0 246 4 240 6 c 4
 234 4 226 0 220 0 c 4
 214 0 206 4 200 6 c 4
 194 4 186 0 180 0 c 4
 174 0 166 4 160 6 c 4
 154 4 146 0 140 0 c 4
 118 0 100 18 100 40 c 4
 100 62 118 80 140 80 c 4
EndSplineSet
Validated: 1
EndChar

StartChar: H
Encoding: 72 72 73
Width: 400
VWidth: 0
Flags: HMW
LayerCount: 2
UndoRedoHistory
Layer: 1
Undoes
UndoOperation
Index: 0
Type: 1
WasModified: 0
WasOrder2: 0
Layer: 2
Width: 200
VWidth: 0
LBearingChange: 0
UnicodeEnc: 0
InstructionsLength: 0
EndUndoOperation
EndUndoes
Redoes
EndRedoes
EndUndoRedoHistory
Fore
SplineSet
60 560 m 4
 82 560 100 542 100 520 c 4
 100 498 82 480 60 480 c 4
 38 480 20 498 20 520 c 4
 20 542 38 560 60 560 c 4
60 479 m 4
 82 479 100 462 100 440 c 4
 100 418 82 400 60 400 c 4
 38 400 20 418 20 440 c 4
 20 462 38 479 60 479 c 4
60 399 m 4
 82 399 100 382 100 360 c 4
 100 338 82 320 60 320 c 4
 38 320 20 338 20 360 c 4
 20 382 38 399 60 399 c 4
60 319 m 4
 66 319 74 316 80 314 c 4
 86 316 94 320 100 320 c 4
 106 320 114 316 120 314 c 4
 126 316 134 320 140 320 c 4
 146 320 154 316 160 314 c 4
 166 316 174 320 180 320 c 4
 186 320 194 316 200 314 c 4
 206 316 214 320 220 320 c 4
 226 320 234 316 240 314 c 4
 246 316 254 320 260 320 c 4
 266 320 274 316 280 314 c 4
 286 316 294 320 300 320 c 4
 306 320 314 316 320 314 c 4
 326 316 334 320 340 320 c 4
 362 320 380 302 380 280 c 4
 380 258 362 240 340 240 c 4
 334 240 326 244 320 246 c 4
 314 244 306 240 300 240 c 4
 294 240 286 244 280 246 c 4
 274 244 266 240 260 240 c 4
 254 240 246 244 240 246 c 4
 234 244 226 240 220 240 c 4
 214 240 206 244 200 246 c 4
 194 244 186 240 180 240 c 4
 174 240 166 244 160 246 c 4
 154 244 146 240 140 240 c 4
 134 240 126 244 120 246 c 4
 114 244 106 240 100 240 c 4
 94 240 86 244 80 246 c 4
 74 244 66 240 60 240 c 4
 38 240 20 258 20 280 c 4
 20 302 38 319 60 319 c 4
340 321 m 4
 318 321 300 338 300 360 c 4
 300 382 318 400 340 400 c 4
 362 400 380 382 380 360 c 4
 380 338 362 321 340 321 c 4
340 401 m 4
 318 401 300 418 300 440 c 4
 300 462 318 480 340 480 c 4
 362 480 380 462 380 440 c 4
 380 418 362 401 340 401 c 4
340 481 m 4
 318 481 300 498 300 520 c 4
 300 542 318 560 340 560 c 4
 362 560 380 542 380 520 c 4
 380 498 362 481 340 481 c 4
340 239 m 4
 362 239 380 222 380 200 c 4
 380 178 362 160 340 160 c 4
 318 160 300 178 300 200 c 4
 300 222 318 239 340 239 c 4
340 159 m 4
 362 159 380 142 380 120 c 4
 380 98 362 80 340 80 c 4
 318 80 300 98 300 120 c 4
 300 142 318 159 340 159 c 4
340 79 m 4
 362 79 380 62 380 40 c 4
 380 18 362 0 340 0 c 4
 318 0 300 18 300 40 c 4
 300 62 318 79 340 79 c 4
60 239 m 4
 82 239 100 222 100 200 c 4
 100 178 82 160 60 160 c 4
 38 160 20 178 20 200 c 4
 20 222 38 239 60 239 c 4
60 159 m 4
 82 159 100 142 100 120 c 4
 100 98 82 80 60 80 c 4
 38 80 20 98 20 120 c 4
 20 142 38 159 60 159 c 4
60 79 m 4
 82 79 100 62 100 40 c 4
 100 18 82 0 60 0 c 4
 38 0 20 18 20 40 c 4
 20 62 38 79 60 79 c 4
EndSplineSet
Validated: 1
EndChar

StartChar: I
Encoding: 73 73 74
Width: 400
VWidth: 0
Flags: HMW
LayerCount: 2
UndoRedoHistory
Layer: 1
Undoes
UndoOperation
Index: 0
Type: 1
WasModified: 0
WasOrder2: 0
Layer: 2
Width: 200
VWidth: 0
LBearingChange: 0
UnicodeEnc: 0
InstructionsLength: 0
EndUndoOperation
EndUndoes
Redoes
EndRedoes
EndUndoRedoHistory
Fore
SplineSet
80 560 m 4
 86 560 94 556 100 554 c 4
 106 556 114 560 120 560 c 4
 126 560 134 556 140 554 c 4
 146 556 154 560 160 560 c 4
 166 560 174 556 180 554 c 4
 186 556 194 560 200 560 c 4
 206 560 214 556 220 554 c 4
 226 556 234 560 240 560 c 4
 246 560 254 556 260 554 c 4
 266 556 274 560 280 560 c 4
 286 560 294 556 300 554 c 4
 306 556 314 560 320 560 c 4
 342 560 360 542 360 520 c 4
 360 498 342 480 320 480 c 4
 314 480 306 484 300 486 c 4
 294 484 286 480 280 480 c 4
 274 480 266 484 260 486 c 4
 254 484 246 480 240 480 c 4
 234 480 226 484 220 486 c 4
 214 484 206 480 200 480 c 4
 194 480 186 484 180 486 c 4
 174 484 166 480 160 480 c 4
 154 480 146 484 140 486 c 4
 134 484 126 480 120 480 c 4
 114 480 106 484 100 486 c 4
 94 484 86 480 80 480 c 4
 58 480 40 498 40 520 c 4
 40 542 58 560 80 560 c 4
200 479 m 4
 222 479 240 462 240 440 c 4
 240 418 222 400 200 400 c 4
 178 400 160 418 160 440 c 4
 160 462 178 479 200 479 c 4
200 399 m 4
 222 399 240 382 240 360 c 4
 240 338 222 320 200 320 c 4
 178 320 160 338 160 360 c 4
 160 382 178 399 200 399 c 4
200 319 m 4
 222 319 240 302 240 280 c 4
 240 258 222 240 200 240 c 4
 178 240 160 258 160 280 c 4
 160 302 178 319 200 319 c 4
200 239 m 4
 222 239 240 222 240 200 c 4
 240 178 222 160 200 160 c 4
 178 160 160 178 160 200 c 4
 160 222 178 239 200 239 c 4
200 159 m 4
 222 159 240 142 240 120 c 4
 240 98 222 80 200 80 c 4
 178 80 160 98 160 120 c 4
 160 142 178 159 200 159 c 4
200 79 m 4
 206 79 214 76 220 74 c 4
 226 76 234 80 240 80 c 4
 246 80 254 76 260 74 c 4
 266 76 274 80 280 80 c 4
 286 80 294 76 300 74 c 4
 306 76 314 80 320 80 c 4
 342 80 360 62 360 40 c 4
 360 18 342 0 320 0 c 4
 314 0 306 4 300 6 c 4
 294 4 286 0 280 0 c 4
 274 0 266 4 260 6 c 4
 254 4 246 0 240 0 c 4
 234 0 226 4 220 6 c 4
 214 4 206 0 200 0 c 4
 194 0 186 4 180 6 c 4
 174 4 166 0 160 0 c 4
 154 0 146 4 140 6 c 4
 134 4 126 0 120 0 c 4
 114 0 106 4 100 6 c 4
 94 4 86 0 80 0 c 4
 58 0 40 18 40 40 c 4
 40 62 58 80 80 80 c 4
 86 80 94 76 100 74 c 4
 106 76 114 80 120 80 c 4
 126 80 134 76 140 74 c 4
 146 76 154 80 160 80 c 4
 166 80 174 76 180 74 c 4
 186 76 194 79 200 79 c 4
EndSplineSet
Validated: 1
EndChar

StartChar: J
Encoding: 74 74 75
Width: 400
VWidth: 0
Flags: HMW
LayerCount: 2
UndoRedoHistory
Layer: 1
Undoes
UndoOperation
Index: 0
Type: 1
WasModified: 0
WasOrder2: 0
Layer: 2
Width: 200
VWidth: 0
LBearingChange: 0
UnicodeEnc: 0
InstructionsLength: 0
EndUndoOperation
EndUndoes
Redoes
EndRedoes
EndUndoRedoHistory
Fore
SplineSet
160 560 m 0
 166 560 174 556 180 554 c 0
 186 556 194 560 200 560 c 0
 206 560 214 556 220 554 c 0
 226 556 234 560 240 560 c 0
 246 560 254 556 260 554 c 0
 266 556 274 560 280 560 c 0
 286 560 294 556 300 554 c 0
 306 556 314 560 320 560 c 0
 326 560 334 556 340 554 c 0
 346 556 354 560 360 560 c 0
 382 560 400 542 400 520 c 0
 400 498 382 480 360 480 c 0
 354 480 346 484 340 486 c 0
 334 484 326 480 320 480 c 0
 314 480 306 484 300 486 c 0
 294 484 286 480 280 480 c 0
 274 480 266 484 260 486 c 0
 254 484 246 480 240 480 c 0
 234 480 226 484 220 486 c 0
 214 484 206 480 200 480 c 0
 194 480 186 484 180 486 c 0
 174 484 166 480 160 480 c 0
 138 480 120 498 120 520 c 0
 120 542 138 560 160 560 c 0
280 479 m 0
 302 479 320 462 320 440 c 0
 320 418 302 400 280 400 c 0
 258 400 240 418 240 440 c 0
 240 462 258 479 280 479 c 0
280 399 m 0
 302 399 320 382 320 360 c 0
 320 338 302 320 280 320 c 0
 258 320 240 338 240 360 c 0
 240 382 258 399 280 399 c 0
280 319 m 0
 302 319 320 302 320 280 c 0
 320 258 302 240 280 240 c 0
 258 240 240 258 240 280 c 0
 240 302 258 319 280 319 c 0
280 239 m 0
 302 239 320 222 320 200 c 0
 320 178 302 160 280 160 c 0
 258 160 240 178 240 200 c 0
 240 222 258 239 280 239 c 0
280 159 m 0
 302 159 320 142 320 120 c 0
 320 98 302 80 280 80 c 0
 258 80 240 98 240 120 c 0
 240 142 258 159 280 159 c 0
40 240 m 0
 62 240 80 222 80 200 c 0
 80 178 62 160 40 160 c 0
 18 160 0 178 0 200 c 0
 0 222 18 240 40 240 c 0
40 159 m 0
 62 159 80 142 80 120 c 0
 80 98 62 80 40 80 c 0
 18 80 0 98 0 120 c 0
 0 142 18 159 40 159 c 0
80 80 m 0
 86 80 94 76 100 74 c 0
 106 76 114 80 120 80 c 0
 126 80 134 76 140 74 c 0
 146 76 154 80 160 80 c 0
 166 80 174 76 180 74 c 0
 186 76 194 80 200 80 c 0
 206 80 214 76 220 74 c 0
 226 76 234 80 240 80 c 0
 262 80 280 62 280 40 c 0
 280 18 262 0 240 0 c 0
 234 0 226 4 220 6 c 0
 214 4 206 0 200 0 c 0
 194 0 186 4 180 6 c 0
 174 4 166 0 160 0 c 0
 154 0 146 4 140 6 c 0
 134 4 126 0 120 0 c 0
 114 0 106 4 100 6 c 0
 94 4 86 0 80 0 c 0
 58 0 40 18 40 40 c 0
 40 62 58 80 80 80 c 0
EndSplineSet
Validated: 1
EndChar

StartChar: K
Encoding: 75 75 76
Width: 400
VWidth: 0
Flags: HMW
LayerCount: 2
UndoRedoHistory
Layer: 1
Undoes
UndoOperation
Index: 0
Type: 1
WasModified: 0
WasOrder2: 0
Layer: 2
Width: 200
VWidth: 0
LBearingChange: 0
UnicodeEnc: 0
InstructionsLength: 0
EndUndoOperation
EndUndoes
Redoes
EndRedoes
EndUndoRedoHistory
Fore
SplineSet
80 560 m 4
 102 560 120 542 120 520 c 4
 120 498 102 480 80 480 c 4
 58 480 40 498 40 520 c 4
 40 542 58 560 80 560 c 4
80 479 m 4
 102 479 120 462 120 440 c 4
 120 418 102 400 80 400 c 4
 58 400 40 418 40 440 c 4
 40 462 58 479 80 479 c 4
80 399 m 4
 102 399 120 382 120 360 c 4
 120 338 102 320 80 320 c 4
 58 320 40 338 40 360 c 4
 40 382 58 399 80 399 c 4
80 319 m 4
 86 319 94 316 100 314 c 4
 106 316 114 320 120 320 c 4
 126 320 134 316 140 314 c 4
 146 316 154 320 160 320 c 4
 166 320 174 316 180 314 c 4
 186 316 194 320 200 320 c 4
 222 320 240 302 240 280 c 4
 240 258 222 240 200 240 c 4
 194 240 186 244 180 246 c 4
 174 244 166 240 160 240 c 4
 154 240 146 244 140 246 c 4
 134 244 126 240 120 240 c 4
 114 240 106 244 100 246 c 4
 94 244 86 240 80 240 c 4
 58 240 40 258 40 280 c 4
 40 302 58 319 80 319 c 4
80 239 m 4
 102 239 120 222 120 200 c 4
 120 178 102 160 80 160 c 4
 58 160 40 178 40 200 c 4
 40 222 58 239 80 239 c 4
80 159 m 4
 102 159 120 142 120 120 c 4
 120 98 102 80 80 80 c 4
 58 80 40 98 40 120 c 4
 40 142 58 159 80 159 c 4
80 79 m 4
 102 79 120 62 120 40 c 4
 120 18 102 0 80 0 c 4
 58 0 40 18 40 40 c 4
 40 62 58 79 80 79 c 4
320 560 m 4
 342 560 360 542 360 520 c 4
 360 498 342 480 320 480 c 4
 298 480 280 498 280 520 c 4
 280 542 298 560 320 560 c 4
280 480 m 4
 302 480 320 462 320 440 c 4
 320 418 302 400 280 400 c 4
 258 400 240 418 240 440 c 4
 240 462 258 480 280 480 c 4
240 400 m 4
 262 400 280 382 280 360 c 4
 280 338 262 320 240 320 c 4
 218 320 200 338 200 360 c 4
 200 382 218 400 240 400 c 4
240 240 m 4
 262 240 280 222 280 200 c 4
 280 178 262 160 240 160 c 4
 218 160 200 178 200 200 c 4
 200 222 218 240 240 240 c 4
280 160 m 4
 302 160 320 142 320 120 c 4
 320 98 302 80 280 80 c 4
 258 80 240 98 240 120 c 4
 240 142 258 160 280 160 c 4
320 80 m 4
 342 80 360 62 360 40 c 4
 360 18 342 0 320 0 c 4
 298 0 280 18 280 40 c 4
 280 62 298 80 320 80 c 4
EndSplineSet
Validated: 1
EndChar

StartChar: L
Encoding: 76 76 77
Width: 400
VWidth: 0
Flags: HMW
LayerCount: 2
UndoRedoHistory
Layer: 1
Undoes
UndoOperation
Index: 0
Type: 1
WasModified: 0
WasOrder2: 0
Layer: 2
Width: 200
VWidth: 0
LBearingChange: 0
UnicodeEnc: 0
InstructionsLength: 0
EndUndoOperation
EndUndoes
Redoes
EndRedoes
EndUndoRedoHistory
Fore
SplineSet
80 560 m 4
 102 560 120 542 120 520 c 4
 120 498 102 480 80 480 c 4
 58 480 40 498 40 520 c 4
 40 542 58 560 80 560 c 4
80 479 m 4
 102 479 120 462 120 440 c 4
 120 418 102 400 80 400 c 4
 58 400 40 418 40 440 c 4
 40 462 58 479 80 479 c 4
80 399 m 4
 102 399 120 382 120 360 c 4
 120 338 102 320 80 320 c 4
 58 320 40 338 40 360 c 4
 40 382 58 399 80 399 c 4
80 319 m 4
 102 319 120 302 120 280 c 4
 120 258 102 240 80 240 c 4
 58 240 40 258 40 280 c 4
 40 302 58 319 80 319 c 4
80 239 m 4
 102 239 120 222 120 200 c 4
 120 178 102 160 80 160 c 4
 58 160 40 178 40 200 c 4
 40 222 58 239 80 239 c 4
80 159 m 4
 102 159 120 142 120 120 c 4
 120 98 102 80 80 80 c 4
 58 80 40 98 40 120 c 4
 40 142 58 159 80 159 c 4
80 79 m 4
 86 79 94 76 100 74 c 4
 106 76 114 80 120 80 c 4
 126 80 134 76 140 74 c 4
 146 76 154 80 160 80 c 4
 166 80 174 76 180 74 c 4
 186 76 194 80 200 80 c 4
 206 80 214 76 220 74 c 4
 226 76 234 80 240 80 c 4
 246 80 254 76 260 74 c 4
 266 76 274 80 280 80 c 4
 286 80 294 76 300 74 c 4
 306 76 314 80 320 80 c 4
 342 80 360 62 360 40 c 4
 360 18 342 0 320 0 c 4
 314 0 306 4 300 6 c 4
 294 4 286 0 280 0 c 4
 274 0 266 4 260 6 c 4
 254 4 246 0 240 0 c 4
 234 0 226 4 220 6 c 4
 214 4 206 0 200 0 c 4
 194 0 186 4 180 6 c 4
 174 4 166 0 160 0 c 4
 154 0 146 4 140 6 c 4
 134 4 126 0 120 0 c 4
 114 0 106 4 100 6 c 4
 94 4 86 0 80 0 c 4
 58 0 40 18 40 40 c 4
 40 62 58 79 80 79 c 4
EndSplineSet
Validated: 1
EndChar

StartChar: M
Encoding: 77 77 78
Width: 400
VWidth: 0
Flags: HMW
LayerCount: 2
UndoRedoHistory
Layer: 1
Undoes
UndoOperation
Index: 0
Type: 1
WasModified: 0
WasOrder2: 0
Layer: 2
Width: 200
VWidth: 0
LBearingChange: 0
UnicodeEnc: 0
InstructionsLength: 0
EndUndoOperation
EndUndoes
Redoes
EndRedoes
EndUndoRedoHistory
Fore
SplineSet
40 560 m 0
 46 560 54 556 60 554 c 0
 66 556 74 560 80 560 c 0
 102 560 120 542 120 520 c 0
 120 498 102 480 80 480 c 0
 74 480 66 484 60 486 c 0
 54 484 46 480 40 480 c 0
 18 480 0 498 0 520 c 0
 0 542 18 560 40 560 c 0
40 479 m 0
 62 479 80 462 80 440 c 0
 80 418 62 400 40 400 c 0
 18 400 0 418 0 440 c 0
 0 462 18 479 40 479 c 0
81 440 m 0
 81 462 98 480 120 480 c 0
 142 480 160 462 160 440 c 0
 160 418 142 400 120 400 c 0
 98 400 81 418 81 440 c 0
40 399 m 0
 62 399 80 382 80 360 c 0
 80 338 62 320 40 320 c 0
 18 320 0 338 0 360 c 0
 0 382 18 399 40 399 c 0
40 319 m 0
 62 319 80 302 80 280 c 0
 80 258 62 240 40 240 c 0
 18 240 0 258 0 280 c 0
 0 302 18 319 40 319 c 0
40 239 m 0
 62 239 80 222 80 200 c 0
 80 178 62 160 40 160 c 0
 18 160 0 178 0 200 c 0
 0 222 18 239 40 239 c 0
40 159 m 0
 62 159 80 142 80 120 c 0
 80 98 62 80 40 80 c 0
 18 80 0 98 0 120 c 0
 0 142 18 159 40 159 c 0
40 79 m 0
 62 79 80 62 80 40 c 0
 80 18 62 0 40 0 c 0
 18 0 0 18 0 40 c 0
 0 62 18 79 40 79 c 0
320 560 m 0
 326 560 334 556 340 554 c 0
 346 556 354 560 360 560 c 0
 382 560 400 542 400 520 c 0
 400 498 382 480 360 480 c 0
 354 480 346 484 340 486 c 0
 334 484 326 480 320 480 c 0
 298 480 280 498 280 520 c 0
 280 542 298 560 320 560 c 0
360 479 m 0
 382 479 400 462 400 440 c 0
 400 418 382 400 360 400 c 0
 338 400 320 418 320 440 c 0
 320 462 338 479 360 479 c 0
360 399 m 0
 382 399 400 382 400 360 c 0
 400 338 382 320 360 320 c 0
 338 320 320 338 320 360 c 0
 320 382 338 399 360 399 c 0
360 319 m 0
 382 319 400 302 400 280 c 0
 400 258 382 240 360 240 c 0
 338 240 320 258 320 280 c 0
 320 302 338 319 360 319 c 0
360 239 m 0
 382 239 400 222 400 200 c 0
 400 178 382 160 360 160 c 0
 338 160 320 178 320 200 c 0
 320 222 338 239 360 239 c 0
360 159 m 0
 382 159 400 142 400 120 c 0
 400 98 382 80 360 80 c 0
 338 80 320 98 320 120 c 0
 320 142 338 159 360 159 c 0
360 79 m 0
 382 79 400 62 400 40 c 0
 400 18 382 0 360 0 c 0
 338 0 320 18 320 40 c 0
 320 62 338 79 360 79 c 0
319 440 m 0
 319 418 302 400 280 400 c 0
 258 400 240 418 240 440 c 0
 240 462 258 480 280 480 c 0
 302 480 319 462 319 440 c 0
160 400 m 0
 182 400 200 382 200 360 c 0
 200 338 182 320 160 320 c 0
 138 320 120 338 120 360 c 0
 120 382 138 400 160 400 c 0
201 360 m 0
 201 382 218 400 240 400 c 0
 262 400 280 382 280 360 c 0
 280 338 262 320 240 320 c 0
 218 320 201 338 201 360 c 0
200 320 m 0
 222 320 240 302 240 280 c 0
 240 258 222 240 200 240 c 0
 178 240 160 258 160 280 c 0
 160 302 178 320 200 320 c 0
EndSplineSet
Validated: 1
EndChar

StartChar: N
Encoding: 78 78 79
Width: 400
VWidth: 0
Flags: HMW
LayerCount: 2
UndoRedoHistory
Layer: 1
Undoes
UndoOperation
Index: 0
Type: 1
WasModified: 0
WasOrder2: 0
Layer: 2
Width: 200
VWidth: 0
LBearingChange: 0
UnicodeEnc: 0
InstructionsLength: 0
EndUndoOperation
EndUndoes
Redoes
EndRedoes
EndUndoRedoHistory
Fore
SplineSet
60 560 m 0
 66 560 74 556 80 554 c 0
 86 556 94 560 100 560 c 0
 122 560 140 542 140 520 c 0
 140 498 122 480 100 480 c 0
 94 480 86 484 80 486 c 0
 74 484 66 480 60 480 c 0
 38 480 20 498 20 520 c 0
 20 542 38 560 60 560 c 0
60 479 m 0
 82 479 100 462 100 440 c 0
 100 418 82 400 60 400 c 0
 38 400 20 418 20 440 c 0
 20 462 38 479 60 479 c 0
101 440 m 0
 101 462 118 480 140 480 c 0
 162 480 180 462 180 440 c 0
 180 418 162 400 140 400 c 0
 118 400 101 418 101 440 c 0
60 399 m 0
 82 399 100 382 100 360 c 0
 100 338 82 320 60 320 c 0
 38 320 20 338 20 360 c 0
 20 382 38 399 60 399 c 0
60 319 m 0
 82 319 100 302 100 280 c 0
 100 258 82 240 60 240 c 0
 38 240 20 258 20 280 c 0
 20 302 38 319 60 319 c 0
60 239 m 0
 82 239 100 222 100 200 c 0
 100 178 82 160 60 160 c 0
 38 160 20 178 20 200 c 0
 20 222 38 239 60 239 c 0
60 159 m 0
 82 159 100 142 100 120 c 0
 100 98 82 80 60 80 c 0
 38 80 20 98 20 120 c 0
 20 142 38 159 60 159 c 0
60 79 m 0
 82 79 100 62 100 40 c 0
 100 18 82 0 60 0 c 0
 38 0 20 18 20 40 c 0
 20 62 38 79 60 79 c 0
340 560 m 0
 362 560 380 542 380 520 c 0
 380 498 362 480 340 480 c 0
 318 480 300 498 300 520 c 0
 300 542 318 560 340 560 c 0
340 479 m 0
 362 479 380 462 380 440 c 0
 380 418 362 400 340 400 c 0
 318 400 300 418 300 440 c 0
 300 462 318 479 340 479 c 0
340 399 m 0
 362 399 380 382 380 360 c 0
 380 338 362 320 340 320 c 0
 318 320 300 338 300 360 c 0
 300 382 318 399 340 399 c 0
340 319 m 0
 362 319 380 302 380 280 c 0
 380 258 362 240 340 240 c 0
 318 240 300 258 300 280 c 0
 300 302 318 319 340 319 c 0
340 239 m 0
 362 239 380 222 380 200 c 0
 380 178 362 160 340 160 c 0
 318 160 300 178 300 200 c 0
 300 222 318 239 340 239 c 0
340 159 m 0
 362 159 380 142 380 120 c 0
 380 98 362 80 340 80 c 0
 334 80 326 84 320 86 c 0
 314 84 306 80 300 80 c 0
 278 80 260 98 260 120 c 0
 260 142 278 160 300 160 c 0
 306 160 314 156 320 154 c 0
 326 156 334 159 340 159 c 0
340 79 m 0
 362 79 380 62 380 40 c 0
 380 18 362 0 340 0 c 0
 318 0 300 18 300 40 c 0
 300 62 318 79 340 79 c 0
299 200 m 0
 299 178 282 160 260 160 c 0
 238 160 220 178 220 200 c 0
 220 222 238 240 260 240 c 0
 282 240 299 222 299 200 c 0
180 400 m 0
 202 400 220 382 220 360 c 0
 220 338 202 320 180 320 c 0
 158 320 140 338 140 360 c 0
 140 382 158 400 180 400 c 0
220 320 m 0
 242 320 260 302 260 280 c 0
 260 258 242 240 220 240 c 0
 198 240 180 258 180 280 c 0
 180 302 198 320 220 320 c 0
EndSplineSet
Validated: 1
EndChar

StartChar: O
Encoding: 79 79 80
Width: 400
VWidth: 0
Flags: HMW
LayerCount: 2
UndoRedoHistory
Layer: 1
Undoes
UndoOperation
Index: 0
Type: 1
WasModified: 0
WasOrder2: 0
Layer: 2
Width: 200
VWidth: 0
LBearingChange: 0
UnicodeEnc: 0
InstructionsLength: 0
EndUndoOperation
EndUndoes
Redoes
EndRedoes
EndUndoRedoHistory
Fore
SplineSet
140 560 m 4
 146 560 154 556 160 554 c 4
 166 556 174 560 180 560 c 4
 186 560 194 556 200 554 c 4
 206 556 214 560 220 560 c 4
 226 560 234 556 240 554 c 4
 246 556 254 560 260 560 c 4
 282 560 300 542 300 520 c 4
 300 498 282 480 260 480 c 4
 254 480 246 484 240 486 c 4
 234 484 226 480 220 480 c 4
 214 480 206 484 200 486 c 4
 194 484 186 480 180 480 c 4
 174 480 166 484 160 486 c 4
 154 484 146 480 140 480 c 4
 118 480 100 498 100 520 c 4
 100 542 118 560 140 560 c 4
100 480 m 4
 122 480 140 462 140 440 c 4
 140 418 122 400 100 400 c 4
 78 400 60 418 60 440 c 4
 60 462 78 480 100 480 c 4
300 480 m 4
 322 480 340 462 340 440 c 4
 340 418 322 400 300 400 c 4
 278 400 260 418 260 440 c 4
 260 462 278 480 300 480 c 4
60 400 m 4
 82 400 100 382 100 360 c 4
 100 338 82 320 60 320 c 4
 38 320 20 338 20 360 c 4
 20 382 38 400 60 400 c 4
60 319 m 4
 82 319 100 302 100 280 c 4
 100 258 82 240 60 240 c 4
 38 240 20 258 20 280 c 4
 20 302 38 319 60 319 c 4
60 239 m 4
 82 239 100 222 100 200 c 4
 100 178 82 160 60 160 c 4
 38 160 20 178 20 200 c 4
 20 222 38 239 60 239 c 4
340 400 m 4
 362 400 380 382 380 360 c 4
 380 338 362 320 340 320 c 4
 318 320 300 338 300 360 c 4
 300 382 318 400 340 400 c 4
340 319 m 4
 362 319 380 302 380 280 c 4
 380 258 362 240 340 240 c 4
 318 240 300 258 300 280 c 4
 300 302 318 319 340 319 c 4
340 239 m 4
 362 239 380 222 380 200 c 4
 380 178 362 160 340 160 c 4
 318 160 300 178 300 200 c 4
 300 222 318 239 340 239 c 4
100 160 m 4
 122 160 140 142 140 120 c 4
 140 98 122 80 100 80 c 4
 78 80 60 98 60 120 c 4
 60 142 78 160 100 160 c 4
300 160 m 4
 322 160 340 142 340 120 c 4
 340 98 322 80 300 80 c 4
 278 80 260 98 260 120 c 4
 260 142 278 160 300 160 c 4
140 80 m 4
 146 80 154 76 160 74 c 4
 166 76 174 80 180 80 c 4
 186 80 194 76 200 74 c 4
 206 76 214 80 220 80 c 4
 226 80 234 76 240 74 c 4
 246 76 254 80 260 80 c 4
 282 80 300 62 300 40 c 4
 300 18 282 0 260 0 c 4
 254 0 246 4 240 6 c 4
 234 4 226 0 220 0 c 4
 214 0 206 4 200 6 c 4
 194 4 186 0 180 0 c 4
 174 0 166 4 160 6 c 4
 154 4 146 0 140 0 c 4
 118 0 100 18 100 40 c 4
 100 62 118 80 140 80 c 4
EndSplineSet
Validated: 1
EndChar

StartChar: P
Encoding: 80 80 81
Width: 400
VWidth: 0
Flags: HMW
LayerCount: 2
UndoRedoHistory
Layer: 1
Undoes
UndoOperation
Index: 0
Type: 1
WasModified: 0
WasOrder2: 0
Layer: 2
Width: 200
VWidth: 0
LBearingChange: 0
UnicodeEnc: 0
InstructionsLength: 0
EndUndoOperation
EndUndoes
Redoes
EndRedoes
EndUndoRedoHistory
Fore
SplineSet
60 560 m 4
 66 560 74 556 80 554 c 4
 86 556 94 560 100 560 c 4
 106 560 114 556 120 554 c 4
 126 556 134 560 140 560 c 4
 146 560 154 556 160 554 c 4
 166 556 174 560 180 560 c 4
 186 560 194 556 200 554 c 4
 206 556 214 560 220 560 c 4
 226 560 234 556 240 554 c 4
 246 556 254 560 260 560 c 4
 266 560 274 556 280 554 c 4
 286 556 294 560 300 560 c 4
 322 560 340 542 340 520 c 4
 340 498 322 480 300 480 c 4
 294 480 286 484 280 486 c 4
 274 484 266 480 260 480 c 4
 254 480 246 484 240 486 c 4
 234 484 226 480 220 480 c 4
 214 480 206 484 200 486 c 4
 194 484 186 480 180 480 c 4
 174 480 166 484 160 486 c 4
 154 484 146 480 140 480 c 4
 134 480 126 484 120 486 c 4
 114 484 106 480 100 480 c 4
 94 480 86 484 80 486 c 4
 74 484 66 480 60 480 c 4
 38 480 20 498 20 520 c 4
 20 542 38 560 60 560 c 4
60 479 m 4
 82 479 100 462 100 440 c 4
 100 418 82 400 60 400 c 4
 38 400 20 418 20 440 c 4
 20 462 38 479 60 479 c 4
60 399 m 4
 82 399 100 382 100 360 c 4
 100 338 82 320 60 320 c 4
 38 320 20 338 20 360 c 4
 20 382 38 399 60 399 c 4
60 319 m 4
 66 319 74 316 80 314 c 4
 86 316 94 320 100 320 c 4
 106 320 114 316 120 314 c 4
 126 316 134 320 140 320 c 4
 146 320 154 316 160 314 c 4
 166 316 174 320 180 320 c 4
 186 320 194 316 200 314 c 4
 206 316 214 320 220 320 c 4
 226 320 234 316 240 314 c 4
 246 316 254 320 260 320 c 4
 266 320 274 316 280 314 c 4
 286 316 294 320 300 320 c 4
 322 320 340 302 340 280 c 4
 340 258 322 240 300 240 c 4
 294 240 286 244 280 246 c 4
 274 244 266 240 260 240 c 4
 254 240 246 244 240 246 c 4
 234 244 226 240 220 240 c 4
 214 240 206 244 200 246 c 4
 194 244 186 240 180 240 c 4
 174 240 166 244 160 246 c 4
 154 244 146 240 140 240 c 4
 134 240 126 244 120 246 c 4
 114 244 106 240 100 240 c 4
 94 240 86 244 80 246 c 4
 74 244 66 240 60 240 c 4
 38 240 20 258 20 280 c 4
 20 302 38 319 60 319 c 4
60 239 m 4
 82 239 100 222 100 200 c 4
 100 178 82 160 60 160 c 4
 38 160 20 178 20 200 c 4
 20 222 38 239 60 239 c 4
60 159 m 4
 82 159 100 142 100 120 c 4
 100 98 82 80 60 80 c 4
 38 80 20 98 20 120 c 4
 20 142 38 159 60 159 c 4
60 79 m 4
 82 79 100 62 100 40 c 4
 100 18 82 0 60 0 c 4
 38 0 20 18 20 40 c 4
 20 62 38 79 60 79 c 4
340 480 m 4
 362 480 380 462 380 440 c 4
 380 418 362 400 340 400 c 4
 318 400 300 418 300 440 c 4
 300 462 318 480 340 480 c 4
340 399 m 4
 362 399 380 382 380 360 c 4
 380 338 362 320 340 320 c 4
 318 320 300 338 300 360 c 4
 300 382 318 399 340 399 c 4
EndSplineSet
Validated: 1
EndChar

StartChar: Q
Encoding: 81 81 82
Width: 400
VWidth: 0
Flags: HMW
LayerCount: 2
UndoRedoHistory
Layer: 1
Undoes
UndoOperation
Index: 0
Type: 1
WasModified: 0
WasOrder2: 0
Layer: 2
Width: 200
VWidth: 0
LBearingChange: 0
UnicodeEnc: 0
InstructionsLength: 0
EndUndoOperation
EndUndoes
Redoes
EndRedoes
EndUndoRedoHistory
Fore
SplineSet
140 560 m 4
 146 560 154 556 160 554 c 4
 166 556 174 560 180 560 c 4
 186 560 194 556 200 554 c 4
 206 556 214 560 220 560 c 4
 226 560 234 556 240 554 c 4
 246 556 254 560 260 560 c 4
 282 560 300 542 300 520 c 4
 300 498 282 480 260 480 c 4
 254 480 246 484 240 486 c 4
 234 484 226 480 220 480 c 4
 214 480 206 484 200 486 c 4
 194 484 186 480 180 480 c 4
 174 480 166 484 160 486 c 4
 154 484 146 480 140 480 c 4
 118 480 100 498 100 520 c 4
 100 542 118 560 140 560 c 4
100 480 m 4
 122 480 140 462 140 440 c 4
 140 418 122 400 100 400 c 4
 78 400 60 418 60 440 c 4
 60 462 78 480 100 480 c 4
300 480 m 4
 322 480 340 462 340 440 c 4
 340 418 322 400 300 400 c 4
 278 400 260 418 260 440 c 4
 260 462 278 480 300 480 c 4
60 400 m 4
 82 400 100 382 100 360 c 4
 100 338 82 320 60 320 c 4
 38 320 20 338 20 360 c 4
 20 382 38 400 60 400 c 4
60 319 m 4
 82 319 100 302 100 280 c 4
 100 258 82 240 60 240 c 4
 38 240 20 258 20 280 c 4
 20 302 38 319 60 319 c 4
60 239 m 4
 82 239 100 222 100 200 c 4
 100 178 82 160 60 160 c 4
 38 160 20 178 20 200 c 4
 20 222 38 239 60 239 c 4
340 400 m 4
 362 400 380 382 380 360 c 4
 380 338 362 320 340 320 c 4
 318 320 300 338 300 360 c 4
 300 382 318 400 340 400 c 4
340 319 m 4
 362 319 380 302 380 280 c 4
 380 258 362 240 340 240 c 4
 318 240 300 258 300 280 c 4
 300 302 318 319 340 319 c 4
340 239 m 4
 362 239 380 222 380 200 c 4
 380 178 362 160 340 160 c 4
 318 160 300 178 300 200 c 4
 300 222 318 239 340 239 c 4
100 160 m 4
 122 160 140 142 140 120 c 4
 140 98 122 80 100 80 c 4
 78 80 60 98 60 120 c 4
 60 142 78 160 100 160 c 4
220 160 m 4
 242 160 260 142 260 120 c 4
 260 98 242 80 220 80 c 4
 198 80 180 98 180 120 c 4
 180 142 198 160 220 160 c 4
261 120 m 4
 261 142 278 160 300 160 c 4
 322 160 340 142 340 120 c 4
 340 98 322 80 300 80 c 4
 278 80 261 98 261 120 c 4
220 79 m 4
 226 79 234 76 240 74 c 4
 246 76 254 80 260 80 c 4
 282 80 300 62 300 40 c 4
 300 18 282 0 260 0 c 4
 254 0 246 4 240 6 c 4
 234 4 226 0 220 0 c 4
 214 0 206 4 200 6 c 4
 194 4 186 0 180 0 c 4
 174 0 166 4 160 6 c 4
 154 4 146 0 140 0 c 4
 118 0 100 18 100 40 c 4
 100 62 118 80 140 80 c 4
 146 80 154 76 160 74 c 4
 166 76 174 80 180 80 c 4
 186 80 194 76 200 74 c 4
 206 76 214 79 220 79 c 4
300 0 m 4
 322 0 340 -18 340 -40 c 4
 340 -62 322 -80 300 -80 c 4
 278 -80 260 -62 260 -40 c 4
 260 -18 278 0 300 0 c 4
EndSplineSet
Validated: 1
EndChar

StartChar: R
Encoding: 82 82 83
Width: 400
VWidth: 0
Flags: HMW
LayerCount: 2
UndoRedoHistory
Layer: 1
Undoes
UndoOperation
Index: 0
Type: 1
WasModified: 0
WasOrder2: 0
Layer: 2
Width: 200
VWidth: 0
LBearingChange: 0
UnicodeEnc: 0
InstructionsLength: 0
EndUndoOperation
EndUndoes
Redoes
EndRedoes
EndUndoRedoHistory
Fore
SplineSet
60 560 m 4
 66 560 74 556 80 554 c 4
 86 556 94 560 100 560 c 4
 106 560 114 556 120 554 c 4
 126 556 134 560 140 560 c 4
 146 560 154 556 160 554 c 4
 166 556 174 560 180 560 c 4
 186 560 194 556 200 554 c 4
 206 556 214 560 220 560 c 4
 226 560 234 556 240 554 c 4
 246 556 254 560 260 560 c 4
 266 560 274 556 280 554 c 4
 286 556 294 560 300 560 c 4
 322 560 340 542 340 520 c 4
 340 498 322 480 300 480 c 4
 294 480 286 484 280 486 c 4
 274 484 266 480 260 480 c 4
 254 480 246 484 240 486 c 4
 234 484 226 480 220 480 c 4
 214 480 206 484 200 486 c 4
 194 484 186 480 180 480 c 4
 174 480 166 484 160 486 c 4
 154 484 146 480 140 480 c 4
 134 480 126 484 120 486 c 4
 114 484 106 480 100 480 c 4
 94 480 86 484 80 486 c 4
 74 484 66 480 60 480 c 4
 38 480 20 498 20 520 c 4
 20 542 38 560 60 560 c 4
60 479 m 4
 82 479 100 462 100 440 c 4
 100 418 82 400 60 400 c 4
 38 400 20 418 20 440 c 4
 20 462 38 479 60 479 c 4
60 399 m 4
 82 399 100 382 100 360 c 4
 100 338 82 320 60 320 c 4
 38 320 20 338 20 360 c 4
 20 382 38 399 60 399 c 4
60 319 m 4
 66 319 74 316 80 314 c 4
 86 316 94 320 100 320 c 4
 106 320 114 316 120 314 c 4
 126 316 134 320 140 320 c 4
 146 320 154 316 160 314 c 4
 166 316 174 320 180 320 c 4
 186 320 194 316 200 314 c 4
 206 316 214 320 220 320 c 4
 226 320 234 316 240 314 c 4
 246 316 254 320 260 320 c 4
 266 320 274 316 280 314 c 4
 286 316 294 320 300 320 c 4
 322 320 340 302 340 280 c 4
 340 258 322 240 300 240 c 4
 294 240 286 244 280 246 c 4
 274 244 266 240 260 240 c 4
 254 240 246 244 240 246 c 4
 234 244 226 240 220 240 c 4
 214 240 206 244 200 246 c 4
 194 244 186 240 180 240 c 4
 174 240 166 244 160 246 c 4
 154 244 146 240 140 240 c 4
 134 240 126 244 120 246 c 4
 114 244 106 240 100 240 c 4
 94 240 86 244 80 246 c 4
 74 244 66 240 60 240 c 4
 38 240 20 258 20 280 c 4
 20 302 38 319 60 319 c 4
260 239 m 4
 282 239 300 222 300 200 c 4
 300 178 282 160 260 160 c 4
 238 160 220 178 220 200 c 4
 220 222 238 239 260 239 c 4
60 239 m 4
 82 239 100 222 100 200 c 4
 100 178 82 160 60 160 c 4
 38 160 20 178 20 200 c 4
 20 222 38 239 60 239 c 4
60 159 m 4
 82 159 100 142 100 120 c 4
 100 98 82 80 60 80 c 4
 38 80 20 98 20 120 c 4
 20 142 38 159 60 159 c 4
60 79 m 4
 82 79 100 62 100 40 c 4
 100 18 82 0 60 0 c 4
 38 0 20 18 20 40 c 4
 20 62 38 79 60 79 c 4
340 480 m 4
 362 480 380 462 380 440 c 4
 380 418 362 400 340 400 c 4
 318 400 300 418 300 440 c 4
 300 462 318 480 340 480 c 4
340 399 m 4
 362 399 380 382 380 360 c 4
 380 338 362 320 340 320 c 4
 318 320 300 338 300 360 c 4
 300 382 318 399 340 399 c 4
300 160 m 4
 322 160 340 142 340 120 c 4
 340 98 322 80 300 80 c 4
 278 80 260 98 260 120 c 4
 260 142 278 160 300 160 c 4
340 80 m 4
 362 80 380 62 380 40 c 4
 380 18 362 0 340 0 c 4
 318 0 300 18 300 40 c 4
 300 62 318 80 340 80 c 4
EndSplineSet
Validated: 1
EndChar

StartChar: S
Encoding: 83 83 84
Width: 400
VWidth: 0
Flags: HMW
LayerCount: 2
UndoRedoHistory
Layer: 1
Undoes
UndoOperation
Index: 0
Type: 1
WasModified: 0
WasOrder2: 0
Layer: 2
Width: 200
VWidth: 0
LBearingChange: 0
UnicodeEnc: 0
InstructionsLength: 0
EndUndoOperation
EndUndoes
Redoes
EndRedoes
EndUndoRedoHistory
Fore
SplineSet
100 560 m 4
 106 560 114 556 120 554 c 4
 126 556 134 560 140 560 c 4
 146 560 154 556 160 554 c 4
 166 556 174 560 180 560 c 4
 186 560 194 556 200 554 c 4
 206 556 214 560 220 560 c 4
 226 560 234 556 240 554 c 4
 246 556 254 560 260 560 c 4
 266 560 274 556 280 554 c 4
 286 556 294 560 300 560 c 4
 322 560 340 542 340 520 c 4
 340 498 322 480 300 480 c 4
 294 480 286 484 280 486 c 4
 274 484 266 480 260 480 c 4
 254 480 246 484 240 486 c 4
 234 484 226 480 220 480 c 4
 214 480 206 484 200 486 c 4
 194 484 186 480 180 480 c 4
 174 480 166 484 160 486 c 4
 154 484 146 480 140 480 c 4
 134 480 126 484 120 486 c 4
 114 484 106 480 100 480 c 4
 78 480 60 498 60 520 c 4
 60 542 78 560 100 560 c 4
60 480 m 4
 82 480 100 462 100 440 c 4
 100 418 82 400 60 400 c 4
 38 400 20 418 20 440 c 4
 20 462 38 480 60 480 c 4
60 399 m 4
 82 399 100 382 100 360 c 4
 100 338 82 320 60 320 c 4
 38 320 20 338 20 360 c 4
 20 382 38 399 60 399 c 4
100 320 m 4
 106 320 114 316 120 314 c 4
 126 316 134 320 140 320 c 4
 146 320 154 316 160 314 c 4
 166 316 174 320 180 320 c 4
 186 320 194 316 200 314 c 4
 206 316 214 320 220 320 c 4
 226 320 234 316 240 314 c 4
 246 316 254 320 260 320 c 4
 266 320 274 316 280 314 c 4
 286 316 294 320 300 320 c 4
 322 320 340 302 340 280 c 4
 340 258 322 240 300 240 c 4
 294 240 286 244 280 246 c 4
 274 244 266 240 260 240 c 4
 254 240 246 244 240 246 c 4
 234 244 226 240 220 240 c 4
 214 240 206 244 200 246 c 4
 194 244 186 240 180 240 c 4
 174 240 166 244 160 246 c 4
 154 244 146 240 140 240 c 4
 134 240 126 244 120 246 c 4
 114 244 106 240 100 240 c 4
 78 240 60 258 60 280 c 4
 60 302 78 320 100 320 c 4
340 240 m 4
 362 240 380 222 380 200 c 4
 380 178 362 160 340 160 c 4
 318 160 300 178 300 200 c 4
 300 222 318 240 340 240 c 4
340 159 m 4
 362 159 380 142 380 120 c 4
 380 98 362 80 340 80 c 4
 318 80 300 98 300 120 c 4
 300 142 318 159 340 159 c 4
100 80 m 4
 106 80 114 76 120 74 c 4
 126 76 134 80 140 80 c 4
 146 80 154 76 160 74 c 4
 166 76 174 80 180 80 c 4
 186 80 194 76 200 74 c 4
 206 76 214 80 220 80 c 4
 226 80 234 76 240 74 c 4
 246 76 254 80 260 80 c 4
 266 80 274 76 280 74 c 4
 286 76 294 80 300 80 c 4
 322 80 340 62 340 40 c 4
 340 18 322 0 300 0 c 4
 294 0 286 4 280 6 c 4
 274 4 266 0 260 0 c 4
 254 0 246 4 240 6 c 4
 234 4 226 0 220 0 c 4
 214 0 206 4 200 6 c 4
 194 4 186 0 180 0 c 4
 174 0 166 4 160 6 c 4
 154 4 146 0 140 0 c 4
 134 0 126 4 120 6 c 4
 114 4 106 0 100 0 c 4
 78 0 60 18 60 40 c 4
 60 62 78 80 100 80 c 4
EndSplineSet
Validated: 1
EndChar

StartChar: T
Encoding: 84 84 85
Width: 400
VWidth: 0
Flags: HMW
LayerCount: 2
UndoRedoHistory
Layer: 1
Undoes
UndoOperation
Index: 0
Type: 1
WasModified: 0
WasOrder2: 0
Layer: 2
Width: 200
VWidth: 0
LBearingChange: 0
UnicodeEnc: 0
InstructionsLength: 0
EndUndoOperation
EndUndoes
Redoes
EndRedoes
EndUndoRedoHistory
Fore
SplineSet
80 560 m 4
 86 560 94 556 100 554 c 4
 106 556 114 560 120 560 c 4
 126 560 134 556 140 554 c 4
 146 556 154 560 160 560 c 4
 166 560 174 556 180 554 c 4
 186 556 194 560 200 560 c 4
 206 560 214 556 220 554 c 4
 226 556 234 560 240 560 c 4
 246 560 254 556 260 554 c 4
 266 556 274 560 280 560 c 4
 286 560 294 556 300 554 c 4
 306 556 314 560 320 560 c 4
 342 560 360 542 360 520 c 4
 360 498 342 480 320 480 c 4
 314 480 306 484 300 486 c 4
 294 484 286 480 280 480 c 4
 274 480 266 484 260 486 c 4
 254 484 246 480 240 480 c 4
 234 480 226 484 220 486 c 4
 214 484 206 480 200 480 c 4
 194 480 186 484 180 486 c 4
 174 484 166 480 160 480 c 4
 154 480 146 484 140 486 c 4
 134 484 126 480 120 480 c 4
 114 480 106 484 100 486 c 4
 94 484 86 480 80 480 c 4
 58 480 40 498 40 520 c 4
 40 542 58 560 80 560 c 4
200 479 m 4
 222 479 240 462 240 440 c 4
 240 418 222 400 200 400 c 4
 178 400 160 418 160 440 c 4
 160 462 178 479 200 479 c 4
200 399 m 4
 222 399 240 382 240 360 c 4
 240 338 222 320 200 320 c 4
 178 320 160 338 160 360 c 4
 160 382 178 399 200 399 c 4
200 319 m 4
 222 319 240 302 240 280 c 4
 240 258 222 240 200 240 c 4
 178 240 160 258 160 280 c 4
 160 302 178 319 200 319 c 4
200 239 m 4
 222 239 240 222 240 200 c 4
 240 178 222 160 200 160 c 4
 178 160 160 178 160 200 c 4
 160 222 178 239 200 239 c 4
200 159 m 4
 222 159 240 142 240 120 c 4
 240 98 222 80 200 80 c 4
 178 80 160 98 160 120 c 4
 160 142 178 159 200 159 c 4
200 79 m 4
 222 79 240 62 240 40 c 4
 240 18 222 0 200 0 c 4
 178 0 160 18 160 40 c 4
 160 62 178 79 200 79 c 4
EndSplineSet
Validated: 1
EndChar

StartChar: U
Encoding: 85 85 86
Width: 400
VWidth: 0
Flags: HMW
LayerCount: 2
UndoRedoHistory
Layer: 1
Undoes
UndoOperation
Index: 0
Type: 1
WasModified: 0
WasOrder2: 0
Layer: 2
Width: 200
VWidth: 0
LBearingChange: 0
UnicodeEnc: 0
InstructionsLength: 0
EndUndoOperation
EndUndoes
Redoes
EndRedoes
EndUndoRedoHistory
Fore
SplineSet
60 560 m 4
 82 560 100 542 100 520 c 4
 100 498 82 480 60 480 c 4
 38 480 20 498 20 520 c 4
 20 542 38 560 60 560 c 4
60 479 m 4
 82 479 100 462 100 440 c 4
 100 418 82 400 60 400 c 4
 38 400 20 418 20 440 c 4
 20 462 38 479 60 479 c 4
60 399 m 4
 82 399 100 382 100 360 c 4
 100 338 82 320 60 320 c 4
 38 320 20 338 20 360 c 4
 20 382 38 399 60 399 c 4
60 319 m 4
 82 319 100 302 100 280 c 4
 100 258 82 240 60 240 c 4
 38 240 20 258 20 280 c 4
 20 302 38 319 60 319 c 4
60 239 m 4
 82 239 100 222 100 200 c 4
 100 178 82 160 60 160 c 4
 38 160 20 178 20 200 c 4
 20 222 38 239 60 239 c 4
60 159 m 4
 82 159 100 142 100 120 c 4
 100 98 82 80 60 80 c 4
 38 80 20 98 20 120 c 4
 20 142 38 159 60 159 c 4
340 560 m 4
 362 560 380 542 380 520 c 4
 380 498 362 480 340 480 c 4
 318 480 300 498 300 520 c 4
 300 542 318 560 340 560 c 4
340 479 m 4
 362 479 380 462 380 440 c 4
 380 418 362 400 340 400 c 4
 318 400 300 418 300 440 c 4
 300 462 318 479 340 479 c 4
340 399 m 4
 362 399 380 382 380 360 c 4
 380 338 362 320 340 320 c 4
 318 320 300 338 300 360 c 4
 300 382 318 399 340 399 c 4
340 319 m 4
 362 319 380 302 380 280 c 4
 380 258 362 240 340 240 c 4
 318 240 300 258 300 280 c 4
 300 302 318 319 340 319 c 4
340 239 m 4
 362 239 380 222 380 200 c 4
 380 178 362 160 340 160 c 4
 318 160 300 178 300 200 c 4
 300 222 318 239 340 239 c 4
340 159 m 4
 362 159 380 142 380 120 c 4
 380 98 362 80 340 80 c 4
 318 80 300 98 300 120 c 4
 300 142 318 159 340 159 c 4
100 80 m 4
 106 80 114 76 120 74 c 4
 126 76 134 80 140 80 c 4
 146 80 154 76 160 74 c 4
 166 76 174 80 180 80 c 4
 186 80 194 76 200 74 c 4
 206 76 214 80 220 80 c 4
 226 80 234 76 240 74 c 4
 246 76 254 80 260 80 c 4
 266 80 274 76 280 74 c 4
 286 76 294 80 300 80 c 4
 322 80 340 62 340 40 c 4
 340 18 322 0 300 0 c 4
 294 0 286 4 280 6 c 4
 274 4 266 0 260 0 c 4
 254 0 246 4 240 6 c 4
 234 4 226 0 220 0 c 4
 214 0 206 4 200 6 c 4
 194 4 186 0 180 0 c 4
 174 0 166 4 160 6 c 4
 154 4 146 0 140 0 c 4
 134 0 126 4 120 6 c 4
 114 4 106 0 100 0 c 4
 78 0 60 18 60 40 c 4
 60 62 78 80 100 80 c 4
EndSplineSet
Validated: 1
EndChar

StartChar: V
Encoding: 86 86 87
Width: 400
VWidth: 0
Flags: HMW
LayerCount: 2
UndoRedoHistory
Layer: 1
Undoes
UndoOperation
Index: 0
Type: 1
WasModified: 0
WasOrder2: 0
Layer: 2
Width: 200
VWidth: 0
LBearingChange: 0
UnicodeEnc: 0
InstructionsLength: 0
EndUndoOperation
EndUndoes
Redoes
EndRedoes
EndUndoRedoHistory
Fore
SplineSet
40 560 m 0
 62 560 80 542 80 520 c 0
 80 498 62 480 40 480 c 0
 18 480 0 498 0 520 c 0
 0 542 18 560 40 560 c 0
40 479 m 0
 62 479 80 462 80 440 c 0
 80 418 62 400 40 400 c 0
 18 400 0 418 0 440 c 0
 0 462 18 479 40 479 c 0
40 399 m 0
 62 399 80 382 80 360 c 0
 80 338 62 320 40 320 c 0
 18 320 0 338 0 360 c 0
 0 382 18 399 40 399 c 0
360 560 m 0
 382 560 400 542 400 520 c 0
 400 498 382 480 360 480 c 0
 338 480 320 498 320 520 c 0
 320 542 338 560 360 560 c 0
360 479 m 0
 382 479 400 462 400 440 c 0
 400 418 382 400 360 400 c 0
 338 400 320 418 320 440 c 0
 320 462 338 479 360 479 c 0
360 399 m 0
 382 399 400 382 400 360 c 0
 400 338 382 320 360 320 c 0
 338 320 320 338 320 360 c 0
 320 382 338 399 360 399 c 0
80 320 m 0
 102 320 120 302 120 280 c 0
 120 258 102 240 80 240 c 0
 58 240 40 258 40 280 c 0
 40 302 58 320 80 320 c 0
320 320 m 0
 342 320 360 302 360 280 c 0
 360 258 342 240 320 240 c 0
 298 240 280 258 280 280 c 0
 280 302 298 320 320 320 c 0
120 240 m 0
 142 240 160 222 160 200 c 0
 160 178 142 160 120 160 c 0
 98 160 80 178 80 200 c 0
 80 222 98 240 120 240 c 0
280 240 m 0
 302 240 320 222 320 200 c 0
 320 178 302 160 280 160 c 0
 258 160 240 178 240 200 c 0
 240 222 258 240 280 240 c 0
160 160 m 0
 182 160 200 142 200 120 c 0
 200 98 182 80 160 80 c 0
 138 80 120 98 120 120 c 0
 120 142 138 160 160 160 c 0
201 120 m 0
 201 142 218 160 240 160 c 0
 262 160 280 142 280 120 c 0
 280 98 262 80 240 80 c 0
 218 80 201 98 201 120 c 0
200 80 m 0
 222 80 240 62 240 40 c 0
 240 18 222 0 200 0 c 0
 178 0 160 18 160 40 c 0
 160 62 178 80 200 80 c 0
EndSplineSet
Validated: 1
EndChar

StartChar: W
Encoding: 87 87 88
Width: 400
VWidth: 0
Flags: HMW
LayerCount: 2
UndoRedoHistory
Layer: 1
Undoes
UndoOperation
Index: 0
Type: 1
WasModified: 0
WasOrder2: 0
Layer: 2
Width: 200
VWidth: 0
LBearingChange: 0
UnicodeEnc: 0
InstructionsLength: 0
EndUndoOperation
EndUndoes
Redoes
EndRedoes
EndUndoRedoHistory
Fore
SplineSet
40 560 m 0
 62 560 80 542 80 520 c 0
 80 498 62 480 40 480 c 0
 18 480 0 498 0 520 c 0
 0 542 18 560 40 560 c 0
40 479 m 0
 62 479 80 462 80 440 c 0
 80 418 62 400 40 400 c 0
 18 400 0 418 0 440 c 0
 0 462 18 479 40 479 c 0
40 399 m 0
 62 399 80 382 80 360 c 0
 80 338 62 320 40 320 c 0
 18 320 0 338 0 360 c 0
 0 382 18 399 40 399 c 0
40 319 m 0
 62 319 80 302 80 280 c 0
 80 258 62 240 40 240 c 0
 18 240 0 258 0 280 c 0
 0 302 18 319 40 319 c 0
40 239 m 0
 62 239 80 222 80 200 c 0
 80 178 62 160 40 160 c 0
 18 160 0 178 0 200 c 0
 0 222 18 239 40 239 c 0
40 159 m 0
 62 159 80 142 80 120 c 0
 80 98 62 80 40 80 c 0
 18 80 0 98 0 120 c 0
 0 142 18 159 40 159 c 0
360 560 m 0
 382 560 400 542 400 520 c 0
 400 498 382 480 360 480 c 0
 338 480 320 498 320 520 c 0
 320 542 338 560 360 560 c 0
360 479 m 0
 382 479 400 462 400 440 c 0
 400 418 382 400 360 400 c 0
 338 400 320 418 320 440 c 0
 320 462 338 479 360 479 c 0
360 399 m 0
 382 399 400 382 400 360 c 0
 400 338 382 320 360 320 c 0
 338 320 320 338 320 360 c 0
 320 382 338 399 360 399 c 0
360 319 m 0
 382 319 400 302 400 280 c 0
 400 258 382 240 360 240 c 0
 338 240 320 258 320 280 c 0
 320 302 338 319 360 319 c 0
360 239 m 0
 382 239 400 222 400 200 c 0
 400 178 382 160 360 160 c 0
 338 160 320 178 320 200 c 0
 320 222 338 239 360 239 c 0
360 159 m 0
 382 159 400 142 400 120 c 0
 400 98 382 80 360 80 c 0
 338 80 320 98 320 120 c 0
 320 142 338 159 360 159 c 0
200 400 m 0
 222 400 240 382 240 360 c 0
 240 338 222 320 200 320 c 0
 178 320 160 338 160 360 c 0
 160 382 178 400 200 400 c 0
200 319 m 0
 222 319 240 302 240 280 c 0
 240 258 222 240 200 240 c 0
 178 240 160 258 160 280 c 0
 160 302 178 319 200 319 c 0
200 239 m 0
 222 239 240 222 240 200 c 0
 240 178 222 160 200 160 c 0
 178 160 160 178 160 200 c 0
 160 222 178 239 200 239 c 0
160 160 m 0
 182 160 200 142 200 120 c 0
 200 98 182 80 160 80 c 0
 138 80 120 98 120 120 c 0
 120 142 138 160 160 160 c 0
201 120 m 0
 201 142 218 160 240 160 c 0
 262 160 280 142 280 120 c 0
 280 98 262 80 240 80 c 0
 218 80 201 98 201 120 c 0
80 80 m 0
 86 80 94 76 100 74 c 0
 106 76 114 80 120 80 c 0
 142 80 160 62 160 40 c 0
 160 18 142 0 120 0 c 0
 114 0 106 4 100 6 c 0
 94 4 86 0 80 0 c 0
 58 0 40 18 40 40 c 0
 40 62 58 80 80 80 c 0
280 80 m 0
 286 80 294 76 300 74 c 0
 306 76 314 80 320 80 c 0
 342 80 360 62 360 40 c 0
 360 18 342 0 320 0 c 0
 314 0 306 4 300 6 c 0
 294 4 286 0 280 0 c 0
 258 0 240 18 240 40 c 0
 240 62 258 80 280 80 c 0
EndSplineSet
Validated: 1
EndChar

StartChar: X
Encoding: 88 88 89
Width: 400
VWidth: 0
Flags: HMW
LayerCount: 2
UndoRedoHistory
Layer: 1
Undoes
UndoOperation
Index: 0
Type: 1
WasModified: 0
WasOrder2: 0
Layer: 2
Width: 200
VWidth: 0
LBearingChange: 0
UnicodeEnc: 0
InstructionsLength: 0
EndUndoOperation
EndUndoes
Redoes
EndRedoes
EndUndoRedoHistory
Fore
SplineSet
60 560 m 4
 82 560 100 542 100 520 c 4
 100 498 82 480 60 480 c 4
 38 480 20 498 20 520 c 4
 20 542 38 560 60 560 c 4
340 560 m 4
 362 560 380 542 380 520 c 4
 380 498 362 480 340 480 c 4
 318 480 300 498 300 520 c 4
 300 542 318 560 340 560 c 4
100 480 m 4
 122 480 140 462 140 440 c 4
 140 418 122 400 100 400 c 4
 78 400 60 418 60 440 c 4
 60 462 78 480 100 480 c 4
300 480 m 4
 322 480 340 462 340 440 c 4
 340 418 322 400 300 400 c 4
 278 400 260 418 260 440 c 4
 260 462 278 480 300 480 c 4
140 400 m 4
 162 400 180 382 180 360 c 4
 180 338 162 320 140 320 c 4
 118 320 100 338 100 360 c 4
 100 382 118 400 140 400 c 4
260 400 m 4
 282 400 300 382 300 360 c 4
 300 338 282 320 260 320 c 4
 238 320 220 338 220 360 c 4
 220 382 238 400 260 400 c 4
180 320 m 4
 186 320 194 316 200 314 c 4
 206 316 214 320 220 320 c 4
 242 320 260 302 260 280 c 4
 260 258 242 240 220 240 c 4
 214 240 206 244 200 246 c 4
 194 244 186 240 180 240 c 4
 158 240 140 258 140 280 c 4
 140 302 158 320 180 320 c 4
140 240 m 4
 162 240 180 222 180 200 c 4
 180 178 162 160 140 160 c 4
 118 160 100 178 100 200 c 4
 100 222 118 240 140 240 c 4
260 240 m 4
 282 240 300 222 300 200 c 4
 300 178 282 160 260 160 c 4
 238 160 220 178 220 200 c 4
 220 222 238 240 260 240 c 4
100 160 m 4
 122 160 140 142 140 120 c 4
 140 98 122 80 100 80 c 4
 78 80 60 98 60 120 c 4
 60 142 78 160 100 160 c 4
300 160 m 4
 322 160 340 142 340 120 c 4
 340 98 322 80 300 80 c 4
 278 80 260 98 260 120 c 4
 260 142 278 160 300 160 c 4
60 80 m 4
 82 80 100 62 100 40 c 4
 100 18 82 0 60 0 c 4
 38 0 20 18 20 40 c 4
 20 62 38 80 60 80 c 4
340 80 m 4
 362 80 380 62 380 40 c 4
 380 18 362 0 340 0 c 4
 318 0 300 18 300 40 c 4
 300 62 318 80 340 80 c 4
EndSplineSet
Validated: 1
EndChar

StartChar: Y
Encoding: 89 89 90
Width: 400
VWidth: 0
Flags: HMW
LayerCount: 2
UndoRedoHistory
Layer: 1
Undoes
UndoOperation
Index: 0
Type: 1
WasModified: 0
WasOrder2: 0
Layer: 2
Width: 200
VWidth: 0
LBearingChange: 0
UnicodeEnc: 0
InstructionsLength: 0
EndUndoOperation
EndUndoes
Redoes
EndRedoes
EndUndoRedoHistory
Fore
SplineSet
40 560 m 0
 62 560 80 542 80 520 c 0
 80 498 62 480 40 480 c 0
 18 480 0 498 0 520 c 0
 0 542 18 560 40 560 c 0
360 560 m 0
 382 560 400 542 400 520 c 0
 400 498 382 480 360 480 c 0
 338 480 320 498 320 520 c 0
 320 542 338 560 360 560 c 0
80 480 m 0
 102 480 120 462 120 440 c 0
 120 418 102 400 80 400 c 0
 58 400 40 418 40 440 c 0
 40 462 58 480 80 480 c 0
320 480 m 0
 342 480 360 462 360 440 c 0
 360 418 342 400 320 400 c 0
 298 400 280 418 280 440 c 0
 280 462 298 480 320 480 c 0
120 400 m 0
 142 400 160 382 160 360 c 0
 160 338 142 320 120 320 c 0
 98 320 80 338 80 360 c 0
 80 382 98 400 120 400 c 0
280 400 m 0
 302 400 320 382 320 360 c 0
 320 338 302 320 280 320 c 0
 258 320 240 338 240 360 c 0
 240 382 258 400 280 400 c 0
160 320 m 0
 182 320 200 302 200 280 c 0
 200 258 182 240 160 240 c 0
 138 240 120 258 120 280 c 0
 120 302 138 320 160 320 c 0
201 280 m 0
 201 302 218 320 240 320 c 0
 262 320 280 302 280 280 c 0
 280 258 262 240 240 240 c 0
 218 240 201 258 201 280 c 0
200 240 m 0
 222 240 240 222 240 200 c 0
 240 178 222 160 200 160 c 0
 178 160 160 178 160 200 c 0
 160 222 178 240 200 240 c 0
200 159 m 0
 222 159 240 142 240 120 c 0
 240 98 222 80 200 80 c 0
 178 80 160 98 160 120 c 0
 160 142 178 159 200 159 c 0
200 79 m 0
 222 79 240 62 240 40 c 0
 240 18 222 0 200 0 c 0
 178 0 160 18 160 40 c 0
 160 62 178 79 200 79 c 0
EndSplineSet
Validated: 1
EndChar

StartChar: Z
Encoding: 90 90 91
Width: 400
VWidth: 0
Flags: HMW
LayerCount: 2
UndoRedoHistory
Layer: 1
Undoes
UndoOperation
Index: 0
Type: 1
WasModified: 0
WasOrder2: 0
Layer: 2
Width: 200
VWidth: 0
LBearingChange: 0
UnicodeEnc: 0
InstructionsLength: 0
EndUndoOperation
EndUndoes
Redoes
EndRedoes
EndUndoRedoHistory
Fore
SplineSet
60 560 m 4
 66 560 74 556 80 554 c 4
 86 556 94 560 100 560 c 4
 106 560 114 556 120 554 c 4
 126 556 134 560 140 560 c 4
 146 560 154 556 160 554 c 4
 166 556 174 560 180 560 c 4
 186 560 194 556 200 554 c 4
 206 556 214 560 220 560 c 4
 226 560 234 556 240 554 c 4
 246 556 254 560 260 560 c 4
 266 560 274 556 280 554 c 4
 286 556 294 560 300 560 c 4
 306 560 314 556 320 554 c 4
 326 556 334 560 340 560 c 4
 362 560 380 542 380 520 c 4
 380 498 362 480 340 480 c 4
 334 480 326 484 320 486 c 4
 314 484 306 480 300 480 c 4
 294 480 286 484 280 486 c 4
 274 484 266 480 260 480 c 4
 254 480 246 484 240 486 c 4
 234 484 226 480 220 480 c 4
 214 480 206 484 200 486 c 4
 194 484 186 480 180 480 c 4
 174 480 166 484 160 486 c 4
 154 484 146 480 140 480 c 4
 134 480 126 484 120 486 c 4
 114 484 106 480 100 480 c 4
 94 480 86 484 80 486 c 4
 74 484 66 480 60 480 c 4
 38 480 20 498 20 520 c 4
 20 542 38 560 60 560 c 4
340 479 m 4
 362 479 380 462 380 440 c 4
 380 418 362 400 340 400 c 4
 318 400 300 418 300 440 c 4
 300 462 318 479 340 479 c 4
340 399 m 4
 362 399 380 382 380 360 c 4
 380 338 362 320 340 320 c 4
 334 320 326 324 320 326 c 4
 314 324 306 320 300 320 c 4
 278 320 260 338 260 360 c 4
 260 382 278 400 300 400 c 4
 306 400 314 396 320 394 c 4
 326 396 334 399 340 399 c 4
180 320 m 4
 186 320 194 316 200 314 c 4
 206 316 214 320 220 320 c 4
 226 320 234 316 240 314 c 4
 246 316 254 320 260 320 c 4
 282 320 300 302 300 280 c 4
 300 258 282 240 260 240 c 4
 254 240 246 244 240 246 c 4
 234 244 226 240 220 240 c 4
 214 240 206 244 200 246 c 4
 194 244 186 240 180 240 c 4
 158 240 140 258 140 280 c 4
 140 302 158 320 180 320 c 4
100 240 m 4
 106 240 114 236 120 234 c 4
 126 236 134 240 140 240 c 4
 162 240 180 222 180 200 c 4
 180 178 162 160 140 160 c 4
 134 160 126 164 120 166 c 4
 114 164 106 160 100 160 c 4
 78 160 60 178 60 200 c 4
 60 222 78 240 100 240 c 4
60 160 m 4
 82 160 100 142 100 120 c 4
 100 98 82 80 60 80 c 4
 38 80 20 98 20 120 c 4
 20 142 38 160 60 160 c 4
60 79 m 4
 66 79 74 76 80 74 c 4
 86 76 94 80 100 80 c 4
 106 80 114 76 120 74 c 4
 126 76 134 80 140 80 c 4
 146 80 154 76 160 74 c 4
 166 76 174 80 180 80 c 4
 186 80 194 76 200 74 c 4
 206 76 214 80 220 80 c 4
 226 80 234 76 240 74 c 4
 246 76 254 80 260 80 c 4
 266 80 274 76 280 74 c 4
 286 76 294 80 300 80 c 4
 306 80 314 76 320 74 c 4
 326 76 334 80 340 80 c 4
 362 80 380 62 380 40 c 4
 380 18 362 0 340 0 c 4
 334 0 326 4 320 6 c 4
 314 4 306 0 300 0 c 4
 294 0 286 4 280 6 c 4
 274 4 266 0 260 0 c 4
 254 0 246 4 240 6 c 4
 234 4 226 0 220 0 c 4
 214 0 206 4 200 6 c 4
 194 4 186 0 180 0 c 4
 174 0 166 4 160 6 c 4
 154 4 146 0 140 0 c 4
 134 0 126 4 120 6 c 4
 114 4 106 0 100 0 c 4
 94 0 86 4 80 6 c 4
 74 4 66 0 60 0 c 4
 38 0 20 18 20 40 c 4
 20 62 38 79 60 79 c 4
EndSplineSet
Validated: 1
EndChar

StartChar: bracketleft
Encoding: 91 91 92
Width: 400
VWidth: 0
Flags: HMW
LayerCount: 2
UndoRedoHistory
Layer: 1
Undoes
UndoOperation
Index: 0
Type: 1
WasModified: 0
WasOrder2: 0
Layer: 2
Width: 200
VWidth: 0
LBearingChange: 0
UnicodeEnc: 0
InstructionsLength: 0
EndUndoOperation
EndUndoes
Redoes
EndRedoes
EndUndoRedoHistory
Fore
SplineSet
160 560 m 4
 166 560 174 556 180 554 c 4
 186 556 194 560 200 560 c 4
 206 560 214 556 220 554 c 4
 226 556 234 560 240 560 c 4
 262 560 280 542 280 520 c 4
 280 498 262 480 240 480 c 4
 234 480 226 484 220 486 c 4
 214 484 206 480 200 480 c 4
 194 480 186 484 180 486 c 4
 174 484 166 480 160 480 c 4
 138 480 120 498 120 520 c 4
 120 542 138 560 160 560 c 4
160 479 m 4
 182 479 200 462 200 440 c 4
 200 418 182 400 160 400 c 4
 138 400 120 418 120 440 c 4
 120 462 138 479 160 479 c 4
160 399 m 4
 182 399 200 382 200 360 c 4
 200 338 182 320 160 320 c 4
 138 320 120 338 120 360 c 4
 120 382 138 399 160 399 c 4
160 319 m 4
 182 319 200 302 200 280 c 4
 200 258 182 240 160 240 c 4
 138 240 120 258 120 280 c 4
 120 302 138 319 160 319 c 4
160 239 m 4
 182 239 200 222 200 200 c 4
 200 178 182 160 160 160 c 4
 138 160 120 178 120 200 c 4
 120 222 138 239 160 239 c 4
160 159 m 4
 182 159 200 142 200 120 c 4
 200 98 182 80 160 80 c 4
 138 80 120 98 120 120 c 4
 120 142 138 159 160 159 c 4
160 79 m 4
 166 79 174 76 180 74 c 4
 186 76 194 80 200 80 c 4
 206 80 214 76 220 74 c 4
 226 76 234 80 240 80 c 4
 262 80 280 62 280 40 c 4
 280 18 262 0 240 0 c 4
 234 0 226 4 220 6 c 4
 214 4 206 0 200 0 c 4
 194 0 186 4 180 6 c 4
 174 4 166 0 160 0 c 4
 138 0 120 18 120 40 c 4
 120 62 138 79 160 79 c 4
EndSplineSet
Validated: 1
EndChar

StartChar: backslash
Encoding: 92 92 93
Width: 400
VWidth: 0
Flags: HMW
LayerCount: 2
UndoRedoHistory
Layer: 1
Undoes
UndoOperation
Index: 0
Type: 1
WasModified: 0
WasOrder2: 0
Layer: 2
Width: 200
VWidth: 0
LBearingChange: 0
UnicodeEnc: 0
InstructionsLength: 0
EndUndoOperation
EndUndoes
Redoes
EndRedoes
EndUndoRedoHistory
Fore
SplineSet
80 560 m 4
 102 560 120 542 120 520 c 4
 120 498 102 480 80 480 c 4
 58 480 40 498 40 520 c 4
 40 542 58 560 80 560 c 4
120 480 m 4
 142 480 160 462 160 440 c 4
 160 418 142 400 120 400 c 4
 98 400 80 418 80 440 c 4
 80 462 98 480 120 480 c 4
160 400 m 4
 182 400 200 382 200 360 c 4
 200 338 182 320 160 320 c 4
 138 320 120 338 120 360 c 4
 120 382 138 400 160 400 c 4
200 320 m 4
 222 320 240 302 240 280 c 4
 240 258 222 240 200 240 c 4
 178 240 160 258 160 280 c 4
 160 302 178 320 200 320 c 4
240 240 m 4
 262 240 280 222 280 200 c 4
 280 178 262 160 240 160 c 4
 218 160 200 178 200 200 c 4
 200 222 218 240 240 240 c 4
280 160 m 4
 302 160 320 142 320 120 c 4
 320 98 302 80 280 80 c 4
 258 80 240 98 240 120 c 4
 240 142 258 160 280 160 c 4
320 80 m 4
 342 80 360 62 360 40 c 4
 360 18 342 0 320 0 c 4
 298 0 280 18 280 40 c 4
 280 62 298 80 320 80 c 4
EndSplineSet
Validated: 1
EndChar

StartChar: bracketright
Encoding: 93 93 94
Width: 400
VWidth: 0
Flags: HMW
LayerCount: 2
UndoRedoHistory
Layer: 1
Undoes
UndoOperation
Index: 0
Type: 1
WasModified: 0
WasOrder2: 0
Layer: 2
Width: 200
VWidth: 0
LBearingChange: 0
UnicodeEnc: 0
InstructionsLength: 0
EndUndoOperation
EndUndoes
Redoes
EndRedoes
EndUndoRedoHistory
Fore
SplineSet
160 560 m 4
 166 560 174 556 180 554 c 4
 186 556 194 560 200 560 c 4
 206 560 214 556 220 554 c 4
 226 556 234 560 240 560 c 4
 262 560 280 542 280 520 c 4
 280 498 262 480 240 480 c 4
 234 480 226 484 220 486 c 4
 214 484 206 480 200 480 c 4
 194 480 186 484 180 486 c 4
 174 484 166 480 160 480 c 4
 138 480 120 498 120 520 c 4
 120 542 138 560 160 560 c 4
240 479 m 4
 262 479 280 462 280 440 c 4
 280 418 262 400 240 400 c 4
 218 400 200 418 200 440 c 4
 200 462 218 479 240 479 c 4
240 399 m 4
 262 399 280 382 280 360 c 4
 280 338 262 320 240 320 c 4
 218 320 200 338 200 360 c 4
 200 382 218 399 240 399 c 4
240 319 m 4
 262 319 280 302 280 280 c 4
 280 258 262 240 240 240 c 4
 218 240 200 258 200 280 c 4
 200 302 218 319 240 319 c 4
240 239 m 4
 262 239 280 222 280 200 c 4
 280 178 262 160 240 160 c 4
 218 160 200 178 200 200 c 4
 200 222 218 239 240 239 c 4
240 159 m 4
 262 159 280 142 280 120 c 4
 280 98 262 80 240 80 c 4
 218 80 200 98 200 120 c 4
 200 142 218 159 240 159 c 4
240 79 m 4
 262 79 280 62 280 40 c 4
 280 18 262 0 240 0 c 4
 234 0 226 4 220 6 c 4
 214 4 206 0 200 0 c 4
 194 0 186 4 180 6 c 4
 174 4 166 0 160 0 c 4
 138 0 120 18 120 40 c 4
 120 62 138 80 160 80 c 4
 166 80 174 76 180 74 c 4
 186 76 194 80 200 80 c 4
 206 80 214 76 220 74 c 4
 226 76 234 79 240 79 c 4
EndSplineSet
Validated: 1
EndChar

StartChar: asciicircum
Encoding: 94 94 95
Width: 400
VWidth: 0
Flags: HMW
LayerCount: 2
UndoRedoHistory
Layer: 1
Undoes
UndoOperation
Index: 0
Type: 1
WasModified: 0
WasOrder2: 0
Layer: 2
Width: 200
VWidth: 0
LBearingChange: 0
UnicodeEnc: 0
InstructionsLength: 0
EndUndoOperation
EndUndoes
Redoes
EndRedoes
EndUndoRedoHistory
Fore
SplineSet
200 560 m 4
 222 560 240 542 240 520 c 4
 240 498 222 480 200 480 c 4
 178 480 160 498 160 520 c 4
 160 542 178 560 200 560 c 4
160 480 m 4
 182 480 200 462 200 440 c 4
 200 418 182 400 160 400 c 4
 138 400 120 418 120 440 c 4
 120 462 138 480 160 480 c 4
201 440 m 4
 201 462 218 480 240 480 c 4
 262 480 280 462 280 440 c 4
 280 418 262 400 240 400 c 4
 218 400 201 418 201 440 c 4
120 400 m 4
 142 400 160 382 160 360 c 4
 160 338 142 320 120 320 c 4
 98 320 80 338 80 360 c 4
 80 382 98 400 120 400 c 4
280 400 m 4
 302 400 320 382 320 360 c 4
 320 338 302 320 280 320 c 4
 258 320 240 338 240 360 c 4
 240 382 258 400 280 400 c 4
80 320 m 4
 102 320 120 302 120 280 c 4
 120 258 102 240 80 240 c 4
 58 240 40 258 40 280 c 4
 40 302 58 320 80 320 c 4
320 320 m 4
 342 320 360 302 360 280 c 4
 360 258 342 240 320 240 c 4
 298 240 280 258 280 280 c 4
 280 302 298 320 320 320 c 4
EndSplineSet
Validated: 1
EndChar

StartChar: underscore
Encoding: 95 95 96
Width: 400
VWidth: 0
Flags: HMW
LayerCount: 2
UndoRedoHistory
Layer: 1
Undoes
UndoOperation
Index: 0
Type: 1
WasModified: 0
WasOrder2: 0
Layer: 2
Width: 200
VWidth: 0
LBearingChange: 0
UnicodeEnc: 0
InstructionsLength: 0
EndUndoOperation
EndUndoes
Redoes
EndRedoes
EndUndoRedoHistory
Fore
SplineSet
0 80 m 0
 6 80 14 76 20 74 c 0
 26 76 34 80 40 80 c 0
 46 80 54 76 60 74 c 0
 66 76 74 80 80 80 c 0
 86 80 94 76 100 74 c 0
 106 76 114 80 120 80 c 0
 126 80 134 76 140 74 c 0
 146 76 154 80 160 80 c 0
 166 80 174 76 180 74 c 0
 186 76 194 80 200 80 c 0
 206 80 214 76 220 74 c 0
 226 76 234 80 240 80 c 0
 246 80 254 76 260 74 c 0
 266 76 274 80 280 80 c 0
 286 80 294 76 300 74 c 0
 306 76 314 80 320 80 c 0
 326 80 334 76 340 74 c 0
 346 76 354 80 360 80 c 0
 366 80 374 76 380 74 c 0
 386 76 394 80 400 80 c 0
 422 80 440 62 440 40 c 0
 440 18 422 0 400 0 c 0
 394 0 386 4 380 6 c 0
 374 4 366 0 360 0 c 0
 354 0 346 4 340 6 c 0
 334 4 326 0 320 0 c 0
 314 0 306 4 300 6 c 0
 294 4 286 0 280 0 c 0
 274 0 266 4 260 6 c 0
 254 4 246 0 240 0 c 0
 234 0 226 4 220 6 c 0
 214 4 206 0 200 0 c 0
 194 0 186 4 180 6 c 0
 174 4 166 0 160 0 c 0
 154 0 146 4 140 6 c 0
 134 4 126 0 120 0 c 0
 114 0 106 4 100 6 c 0
 94 4 86 0 80 0 c 0
 74 0 66 4 60 6 c 0
 54 4 46 0 40 0 c 0
 34 0 26 4 20 6 c 0
 14 4 6 0 0 0 c 0
 -22 0 -40 18 -40 40 c 0
 -40 62 -22 80 0 80 c 0
EndSplineSet
Validated: 1
EndChar

StartChar: grave
Encoding: 96 96 97
Width: 400
VWidth: 0
Flags: HMW
LayerCount: 2
UndoRedoHistory
Layer: 1
Undoes
UndoOperation
Index: 0
Type: 1
WasModified: 0
WasOrder2: 0
Layer: 2
Width: 200
VWidth: 0
LBearingChange: 0
UnicodeEnc: 0
InstructionsLength: 0
EndUndoOperation
EndUndoes
Redoes
EndRedoes
EndUndoRedoHistory
Fore
SplineSet
160 560 m 4
 182 560 200 542 200 520 c 4
 200 498 182 480 160 480 c 4
 138 480 120 498 120 520 c 4
 120 542 138 560 160 560 c 4
200 480 m 4
 222 480 240 462 240 440 c 4
 240 418 222 400 200 400 c 4
 178 400 160 418 160 440 c 4
 160 462 178 480 200 480 c 4
240 400 m 4
 262 400 280 382 280 360 c 4
 280 338 262 320 240 320 c 4
 218 320 200 338 200 360 c 4
 200 382 218 400 240 400 c 4
EndSplineSet
Validated: 1
EndChar

StartChar: a
Encoding: 97 97 98
Width: 400
VWidth: 0
Flags: HMW
LayerCount: 2
UndoRedoHistory
Layer: 1
Undoes
UndoOperation
Index: 0
Type: 1
WasModified: 0
WasOrder2: 0
Layer: 2
Width: 200
VWidth: 0
LBearingChange: 0
UnicodeEnc: 0
InstructionsLength: 0
EndUndoOperation
EndUndoes
Redoes
EndRedoes
EndUndoRedoHistory
Fore
SplineSet
100 400 m 4
 106 400 114 396 120 394 c 4
 126 396 134 400 140 400 c 4
 146 400 154 396 160 394 c 4
 166 396 174 400 180 400 c 4
 186 400 194 396 200 394 c 4
 206 396 214 400 220 400 c 4
 226 400 234 396 240 394 c 4
 246 396 254 400 260 400 c 4
 282 400 300 382 300 360 c 4
 300 338 282 320 260 320 c 4
 254 320 246 324 240 326 c 4
 234 324 226 320 220 320 c 4
 214 320 206 324 200 326 c 4
 194 324 186 320 180 320 c 4
 174 320 166 324 160 326 c 4
 154 324 146 320 140 320 c 4
 134 320 126 324 120 326 c 4
 114 324 106 320 100 320 c 4
 78 320 60 338 60 360 c 4
 60 382 78 400 100 400 c 4
300 320 m 4
 322 320 340 302 340 280 c 4
 340 258 322 240 300 240 c 4
 278 240 260 258 260 280 c 4
 260 302 278 320 300 320 c 4
300 239 m 4
 322 239 340 222 340 200 c 4
 340 178 322 160 300 160 c 4
 294 160 286 164 280 166 c 4
 274 164 266 160 260 160 c 4
 254 160 246 164 240 166 c 4
 234 164 226 160 220 160 c 4
 214 160 206 164 200 166 c 4
 194 164 186 160 180 160 c 4
 174 160 166 164 160 166 c 4
 154 164 146 160 140 160 c 4
 134 160 126 164 120 166 c 4
 114 164 106 160 100 160 c 4
 78 160 60 178 60 200 c 4
 60 222 78 240 100 240 c 4
 106 240 114 236 120 234 c 4
 126 236 134 240 140 240 c 4
 146 240 154 236 160 234 c 4
 166 236 174 240 180 240 c 4
 186 240 194 236 200 234 c 4
 206 236 214 240 220 240 c 4
 226 240 234 236 240 234 c 4
 246 236 254 240 260 240 c 4
 266 240 274 236 280 234 c 4
 286 236 294 239 300 239 c 4
300 159 m 4
 322 159 340 142 340 120 c 4
 340 98 322 80 300 80 c 4
 278 80 260 98 260 120 c 4
 260 142 278 159 300 159 c 4
300 79 m 4
 306 79 314 76 320 74 c 4
 326 76 334 80 340 80 c 4
 362 80 380 62 380 40 c 4
 380 18 362 0 340 0 c 4
 334 0 326 4 320 6 c 4
 314 4 306 0 300 0 c 4
 294 0 286 4 280 6 c 4
 274 4 266 0 260 0 c 4
 254 0 246 4 240 6 c 4
 234 4 226 0 220 0 c 4
 214 0 206 4 200 6 c 4
 194 4 186 0 180 0 c 4
 174 0 166 4 160 6 c 4
 154 4 146 0 140 0 c 4
 134 0 126 4 120 6 c 4
 114 4 106 0 100 0 c 4
 78 0 60 18 60 40 c 4
 60 62 78 80 100 80 c 4
 106 80 114 76 120 74 c 4
 126 76 134 80 140 80 c 4
 146 80 154 76 160 74 c 4
 166 76 174 80 180 80 c 4
 186 80 194 76 200 74 c 4
 206 76 214 80 220 80 c 4
 226 80 234 76 240 74 c 4
 246 76 254 80 260 80 c 4
 266 80 274 76 280 74 c 4
 286 76 294 79 300 79 c 4
60 160 m 4
 82 160 100 142 100 120 c 4
 100 98 82 80 60 80 c 4
 38 80 20 98 20 120 c 4
 20 142 38 160 60 160 c 4
EndSplineSet
Validated: 1
EndChar

StartChar: b
Encoding: 98 98 99
Width: 400
VWidth: 0
Flags: HMW
LayerCount: 2
UndoRedoHistory
Layer: 1
Undoes
UndoOperation
Index: 0
Type: 1
WasModified: 0
WasOrder2: 0
Layer: 2
Width: 200
VWidth: 0
LBearingChange: 0
UnicodeEnc: 0
InstructionsLength: 0
EndUndoOperation
EndUndoes
Redoes
EndRedoes
EndUndoRedoHistory
Fore
SplineSet
60 560 m 0
 82 560 100 542 100 520 c 0
 100 498 82 480 60 480 c 0
 38 480 20 498 20 520 c 0
 20 542 38 560 60 560 c 0
60 479 m 0
 82 479 100 462 100 440 c 0
 100 418 82 400 60 400 c 0
 38 400 20 418 20 440 c 0
 20 462 38 479 60 479 c 0
60 399 m 0
 82 399 100 382 100 360 c 0
 100 338 82 320 60 320 c 0
 38 320 20 338 20 360 c 0
 20 382 38 399 60 399 c 0
101 360 m 0
 101 382 118 400 140 400 c 0
 146 400 154 396 160 394 c 0
 166 396 174 400 180 400 c 0
 186 400 194 396 200 394 c 0
 206 396 214 400 220 400 c 0
 226 400 234 396 240 394 c 0
 246 396 254 400 260 400 c 0
 266 400 274 396 280 394 c 0
 286 396 294 400 300 400 c 0
 322 400 340 382 340 360 c 0
 340 338 322 320 300 320 c 0
 294 320 286 324 280 326 c 0
 274 324 266 320 260 320 c 0
 254 320 246 324 240 326 c 0
 234 324 226 320 220 320 c 0
 214 320 206 324 200 326 c 0
 194 324 186 320 180 320 c 0
 174 320 166 324 160 326 c 0
 154 324 146 320 140 320 c 0
 118 320 101 338 101 360 c 0
60 319 m 0
 66 319 74 316 80 314 c 0
 86 316 94 320 100 320 c 0
 122 320 140 302 140 280 c 0
 140 258 122 240 100 240 c 0
 94 240 86 244 80 246 c 0
 74 244 66 240 60 240 c 0
 38 240 20 258 20 280 c 0
 20 302 38 319 60 319 c 0
60 239 m 0
 82 239 100 222 100 200 c 0
 100 178 82 160 60 160 c 0
 38 160 20 178 20 200 c 0
 20 222 38 239 60 239 c 0
60 159 m 0
 82 159 100 142 100 120 c 0
 100 98 82 80 60 80 c 0
 38 80 20 98 20 120 c 0
 20 142 38 159 60 159 c 0
60 79 m 0
 66 79 74 76 80 74 c 0
 86 76 94 80 100 80 c 0
 106 80 114 76 120 74 c 0
 126 76 134 80 140 80 c 0
 146 80 154 76 160 74 c 0
 166 76 174 80 180 80 c 0
 186 80 194 76 200 74 c 0
 206 76 214 80 220 80 c 0
 226 80 234 76 240 74 c 0
 246 76 254 80 260 80 c 0
 266 80 274 76 280 74 c 0
 286 76 294 80 300 80 c 0
 322 80 340 62 340 40 c 0
 340 18 322 0 300 0 c 0
 294 0 286 4 280 6 c 0
 274 4 266 0 260 0 c 0
 254 0 246 4 240 6 c 0
 234 4 226 0 220 0 c 0
 214 0 206 4 200 6 c 0
 194 4 186 0 180 0 c 0
 174 0 166 4 160 6 c 0
 154 4 146 0 140 0 c 0
 134 0 126 4 120 6 c 0
 114 4 106 0 100 0 c 0
 94 0 86 4 80 6 c 0
 74 4 66 0 60 0 c 0
 38 0 20 18 20 40 c 0
 20 62 38 79 60 79 c 0
340 320 m 0
 362 320 380 302 380 280 c 0
 380 258 362 240 340 240 c 0
 318 240 300 258 300 280 c 0
 300 302 318 320 340 320 c 0
340 239 m 0
 362 239 380 222 380 200 c 0
 380 178 362 160 340 160 c 0
 318 160 300 178 300 200 c 0
 300 222 318 239 340 239 c 0
340 159 m 0
 362 159 380 142 380 120 c 0
 380 98 362 80 340 80 c 0
 318 80 300 98 300 120 c 0
 300 142 318 159 340 159 c 0
EndSplineSet
Validated: 1
EndChar

StartChar: c
Encoding: 99 99 100
Width: 400
VWidth: 0
Flags: HMW
LayerCount: 2
UndoRedoHistory
Layer: 1
Undoes
UndoOperation
Index: 0
Type: 1
WasModified: 0
WasOrder2: 0
Layer: 2
Width: 200
VWidth: 0
LBearingChange: 0
UnicodeEnc: 0
InstructionsLength: 0
EndUndoOperation
EndUndoes
Redoes
EndRedoes
EndUndoRedoHistory
Fore
SplineSet
100 400 m 4
 106 400 114 396 120 394 c 4
 126 396 134 400 140 400 c 4
 146 400 154 396 160 394 c 4
 166 396 174 400 180 400 c 4
 186 400 194 396 200 394 c 4
 206 396 214 400 220 400 c 4
 226 400 234 396 240 394 c 4
 246 396 254 400 260 400 c 4
 266 400 274 396 280 394 c 4
 286 396 294 400 300 400 c 4
 306 400 314 396 320 394 c 4
 326 396 334 400 340 400 c 4
 362 400 380 382 380 360 c 4
 380 338 362 320 340 320 c 4
 334 320 326 324 320 326 c 4
 314 324 306 320 300 320 c 4
 294 320 286 324 280 326 c 4
 274 324 266 320 260 320 c 4
 254 320 246 324 240 326 c 4
 234 324 226 320 220 320 c 4
 214 320 206 324 200 326 c 4
 194 324 186 320 180 320 c 4
 174 320 166 324 160 326 c 4
 154 324 146 320 140 320 c 4
 134 320 126 324 120 326 c 4
 114 324 106 320 100 320 c 4
 78 320 60 338 60 360 c 4
 60 382 78 400 100 400 c 4
60 320 m 4
 82 320 100 302 100 280 c 4
 100 258 82 240 60 240 c 4
 38 240 20 258 20 280 c 4
 20 302 38 320 60 320 c 4
60 239 m 4
 82 239 100 222 100 200 c 4
 100 178 82 160 60 160 c 4
 38 160 20 178 20 200 c 4
 20 222 38 239 60 239 c 4
60 159 m 4
 82 159 100 142 100 120 c 4
 100 98 82 80 60 80 c 4
 38 80 20 98 20 120 c 4
 20 142 38 159 60 159 c 4
100 80 m 4
 106 80 114 76 120 74 c 4
 126 76 134 80 140 80 c 4
 146 80 154 76 160 74 c 4
 166 76 174 80 180 80 c 4
 186 80 194 76 200 74 c 4
 206 76 214 80 220 80 c 4
 226 80 234 76 240 74 c 4
 246 76 254 80 260 80 c 4
 266 80 274 76 280 74 c 4
 286 76 294 80 300 80 c 4
 306 80 314 76 320 74 c 4
 326 76 334 80 340 80 c 4
 362 80 380 62 380 40 c 4
 380 18 362 0 340 0 c 4
 334 0 326 4 320 6 c 4
 314 4 306 0 300 0 c 4
 294 0 286 4 280 6 c 4
 274 4 266 0 260 0 c 4
 254 0 246 4 240 6 c 4
 234 4 226 0 220 0 c 4
 214 0 206 4 200 6 c 4
 194 4 186 0 180 0 c 4
 174 0 166 4 160 6 c 4
 154 4 146 0 140 0 c 4
 134 0 126 4 120 6 c 4
 114 4 106 0 100 0 c 4
 78 0 60 18 60 40 c 4
 60 62 78 80 100 80 c 4
EndSplineSet
Validated: 1
EndChar

StartChar: d
Encoding: 100 100 101
Width: 400
VWidth: 0
Flags: HMW
LayerCount: 2
UndoRedoHistory
Layer: 1
Undoes
UndoOperation
Index: 0
Type: 1
WasModified: 0
WasOrder2: 0
Layer: 2
Width: 200
VWidth: 0
LBearingChange: 0
UnicodeEnc: 0
InstructionsLength: 0
EndUndoOperation
EndUndoes
Redoes
EndRedoes
EndUndoRedoHistory
Fore
SplineSet
340 560 m 4
 362 560 380 542 380 520 c 4
 380 498 362 480 340 480 c 4
 318 480 300 498 300 520 c 4
 300 542 318 560 340 560 c 4
340 479 m 4
 362 479 380 462 380 440 c 4
 380 418 362 400 340 400 c 4
 318 400 300 418 300 440 c 4
 300 462 318 479 340 479 c 4
340 399 m 4
 362 399 380 382 380 360 c 4
 380 338 362 320 340 320 c 4
 318 320 300 338 300 360 c 4
 300 382 318 399 340 399 c 4
340 319 m 4
 362 319 380 302 380 280 c 4
 380 258 362 240 340 240 c 4
 334 240 326 244 320 246 c 4
 314 244 306 240 300 240 c 4
 278 240 260 258 260 280 c 4
 260 302 278 320 300 320 c 4
 306 320 314 316 320 314 c 4
 326 316 334 319 340 319 c 4
340 239 m 4
 362 239 380 222 380 200 c 4
 380 178 362 160 340 160 c 4
 318 160 300 178 300 200 c 4
 300 222 318 239 340 239 c 4
340 159 m 4
 362 159 380 142 380 120 c 4
 380 98 362 80 340 80 c 4
 318 80 300 98 300 120 c 4
 300 142 318 159 340 159 c 4
340 79 m 4
 362 79 380 62 380 40 c 4
 380 18 362 0 340 0 c 4
 334 0 326 4 320 6 c 4
 314 4 306 0 300 0 c 4
 294 0 286 4 280 6 c 4
 274 4 266 0 260 0 c 4
 254 0 246 4 240 6 c 4
 234 4 226 0 220 0 c 4
 214 0 206 4 200 6 c 4
 194 4 186 0 180 0 c 4
 174 0 166 4 160 6 c 4
 154 4 146 0 140 0 c 4
 134 0 126 4 120 6 c 4
 114 4 106 0 100 0 c 4
 78 0 60 18 60 40 c 4
 60 62 78 80 100 80 c 4
 106 80 114 76 120 74 c 4
 126 76 134 80 140 80 c 4
 146 80 154 76 160 74 c 4
 166 76 174 80 180 80 c 4
 186 80 194 76 200 74 c 4
 206 76 214 80 220 80 c 4
 226 80 234 76 240 74 c 4
 246 76 254 80 260 80 c 4
 266 80 274 76 280 74 c 4
 286 76 294 80 300 80 c 4
 306 80 314 76 320 74 c 4
 326 76 334 79 340 79 c 4
299 360 m 4
 299 338 282 320 260 320 c 4
 254 320 246 324 240 326 c 4
 234 324 226 320 220 320 c 4
 214 320 206 324 200 326 c 4
 194 324 186 320 180 320 c 4
 174 320 166 324 160 326 c 4
 154 324 146 320 140 320 c 4
 134 320 126 324 120 326 c 4
 114 324 106 320 100 320 c 4
 78 320 60 338 60 360 c 4
 60 382 78 400 100 400 c 4
 106 400 114 396 120 394 c 4
 126 396 134 400 140 400 c 4
 146 400 154 396 160 394 c 4
 166 396 174 400 180 400 c 4
 186 400 194 396 200 394 c 4
 206 396 214 400 220 400 c 4
 226 400 234 396 240 394 c 4
 246 396 254 400 260 400 c 4
 282 400 299 382 299 360 c 4
60 320 m 4
 82 320 100 302 100 280 c 4
 100 258 82 240 60 240 c 4
 38 240 20 258 20 280 c 4
 20 302 38 320 60 320 c 4
60 239 m 4
 82 239 100 222 100 200 c 4
 100 178 82 160 60 160 c 4
 38 160 20 178 20 200 c 4
 20 222 38 239 60 239 c 4
60 159 m 4
 82 159 100 142 100 120 c 4
 100 98 82 80 60 80 c 4
 38 80 20 98 20 120 c 4
 20 142 38 159 60 159 c 4
EndSplineSet
Validated: 1
EndChar

StartChar: e
Encoding: 101 101 102
Width: 400
VWidth: 0
Flags: HMW
LayerCount: 2
UndoRedoHistory
Layer: 1
Undoes
UndoOperation
Index: 0
Type: 1
WasModified: 0
WasOrder2: 0
Layer: 2
Width: 200
VWidth: 0
LBearingChange: 0
UnicodeEnc: 0
InstructionsLength: 0
EndUndoOperation
EndUndoes
Redoes
EndRedoes
EndUndoRedoHistory
Fore
SplineSet
100 400 m 4
 106 400 114 396 120 394 c 4
 126 396 134 400 140 400 c 4
 146 400 154 396 160 394 c 4
 166 396 174 400 180 400 c 4
 186 400 194 396 200 394 c 4
 206 396 214 400 220 400 c 4
 226 400 234 396 240 394 c 4
 246 396 254 400 260 400 c 4
 266 400 274 396 280 394 c 4
 286 396 294 400 300 400 c 4
 322 400 340 382 340 360 c 4
 340 338 322 320 300 320 c 4
 294 320 286 324 280 326 c 4
 274 324 266 320 260 320 c 4
 254 320 246 324 240 326 c 4
 234 324 226 320 220 320 c 4
 214 320 206 324 200 326 c 4
 194 324 186 320 180 320 c 4
 174 320 166 324 160 326 c 4
 154 324 146 320 140 320 c 4
 134 320 126 324 120 326 c 4
 114 324 106 320 100 320 c 4
 78 320 60 338 60 360 c 4
 60 382 78 400 100 400 c 4
60 320 m 4
 82 320 100 302 100 280 c 4
 100 258 82 240 60 240 c 4
 38 240 20 258 20 280 c 4
 20 302 38 320 60 320 c 4
60 239 m 4
 66 239 74 236 80 234 c 4
 86 236 94 240 100 240 c 4
 106 240 114 236 120 234 c 4
 126 236 134 240 140 240 c 4
 146 240 154 236 160 234 c 4
 166 236 174 240 180 240 c 4
 186 240 194 236 200 234 c 4
 206 236 214 240 220 240 c 4
 226 240 234 236 240 234 c 4
 246 236 254 240 260 240 c 4
 266 240 274 236 280 234 c 4
 286 236 294 240 300 240 c 4
 322 240 340 222 340 200 c 4
 340 178 322 160 300 160 c 4
 294 160 286 164 280 166 c 4
 274 164 266 160 260 160 c 4
 254 160 246 164 240 166 c 4
 234 164 226 160 220 160 c 4
 214 160 206 164 200 166 c 4
 194 164 186 160 180 160 c 4
 174 160 166 164 160 166 c 4
 154 164 146 160 140 160 c 4
 134 160 126 164 120 166 c 4
 114 164 106 160 100 160 c 4
 94 160 86 164 80 166 c 4
 74 164 66 160 60 160 c 4
 38 160 20 178 20 200 c 4
 20 222 38 239 60 239 c 4
60 159 m 4
 82 159 100 142 100 120 c 4
 100 98 82 80 60 80 c 4
 38 80 20 98 20 120 c 4
 20 142 38 159 60 159 c 4
340 320 m 4
 362 320 380 302 380 280 c 4
 380 258 362 240 340 240 c 4
 318 240 300 258 300 280 c 4
 300 302 318 320 340 320 c 4
100 80 m 4
 106 80 114 76 120 74 c 4
 126 76 134 80 140 80 c 4
 146 80 154 76 160 74 c 4
 166 76 174 80 180 80 c 4
 186 80 194 76 200 74 c 4
 206 76 214 80 220 80 c 4
 226 80 234 76 240 74 c 4
 246 76 254 80 260 80 c 4
 266 80 274 76 280 74 c 4
 286 76 294 80 300 80 c 4
 322 80 340 62 340 40 c 4
 340 18 322 0 300 0 c 4
 294 0 286 4 280 6 c 4
 274 4 266 0 260 0 c 4
 254 0 246 4 240 6 c 4
 234 4 226 0 220 0 c 4
 214 0 206 4 200 6 c 4
 194 4 186 0 180 0 c 4
 174 0 166 4 160 6 c 4
 154 4 146 0 140 0 c 4
 134 0 126 4 120 6 c 4
 114 4 106 0 100 0 c 4
 78 0 60 18 60 40 c 4
 60 62 78 80 100 80 c 4
EndSplineSet
Validated: 1
EndChar

StartChar: f
Encoding: 102 102 103
Width: 400
VWidth: 0
Flags: HMW
LayerCount: 2
UndoRedoHistory
Layer: 1
Undoes
UndoOperation
Index: 0
Type: 1
WasModified: 0
WasOrder2: 0
Layer: 2
Width: 200
VWidth: 0
LBearingChange: 0
UnicodeEnc: 0
InstructionsLength: 0
EndUndoOperation
EndUndoes
Redoes
EndRedoes
EndUndoRedoHistory
Fore
SplineSet
200 560 m 4
 206 560 214 556 220 554 c 4
 226 556 234 560 240 560 c 4
 246 560 254 556 260 554 c 4
 266 556 274 560 280 560 c 4
 302 560 320 542 320 520 c 4
 320 498 302 480 280 480 c 4
 274 480 266 484 260 486 c 4
 254 484 246 480 240 480 c 4
 234 480 226 484 220 486 c 4
 214 484 206 480 200 480 c 4
 178 480 160 498 160 520 c 4
 160 542 178 560 200 560 c 4
160 480 m 4
 182 480 200 462 200 440 c 4
 200 418 182 400 160 400 c 4
 138 400 120 418 120 440 c 4
 120 462 138 480 160 480 c 4
160 399 m 4
 182 399 200 382 200 360 c 4
 200 338 182 320 160 320 c 4
 138 320 120 338 120 360 c 4
 120 382 138 399 160 399 c 4
160 319 m 4
 182 319 200 302 200 280 c 4
 200 258 182 240 160 240 c 4
 138 240 120 258 120 280 c 4
 120 302 138 319 160 319 c 4
201 280 m 4
 201 302 218 320 240 320 c 4
 262 320 280 302 280 280 c 4
 280 258 262 240 240 240 c 4
 218 240 201 258 201 280 c 4
160 239 m 4
 182 239 200 222 200 200 c 4
 200 178 182 160 160 160 c 4
 138 160 120 178 120 200 c 4
 120 222 138 239 160 239 c 4
160 159 m 4
 182 159 200 142 200 120 c 4
 200 98 182 80 160 80 c 4
 138 80 120 98 120 120 c 4
 120 142 138 159 160 159 c 4
160 79 m 4
 182 79 200 62 200 40 c 4
 200 18 182 0 160 0 c 4
 138 0 120 18 120 40 c 4
 120 62 138 79 160 79 c 4
119 280 m 4
 119 258 102 240 80 240 c 4
 58 240 40 258 40 280 c 4
 40 302 58 320 80 320 c 4
 102 320 119 302 119 280 c 4
320 480 m 4
 342 480 360 462 360 440 c 4
 360 418 342 400 320 400 c 4
 298 400 280 418 280 440 c 4
 280 462 298 480 320 480 c 4
EndSplineSet
Validated: 1
EndChar

StartChar: h
Encoding: 104 104 104
Width: 400
VWidth: 0
Flags: HMW
LayerCount: 2
UndoRedoHistory
Layer: 1
Undoes
UndoOperation
Index: 0
Type: 1
WasModified: 0
WasOrder2: 0
Layer: 2
Width: 200
VWidth: 0
LBearingChange: 0
UnicodeEnc: 0
InstructionsLength: 0
EndUndoOperation
EndUndoes
Redoes
EndRedoes
EndUndoRedoHistory
Fore
SplineSet
80 560 m 4
 102 560 120 542 120 520 c 4
 120 498 102 480 80 480 c 4
 58 480 40 498 40 520 c 4
 40 542 58 560 80 560 c 4
80 479 m 4
 102 479 120 462 120 440 c 4
 120 418 102 400 80 400 c 4
 58 400 40 418 40 440 c 4
 40 462 58 479 80 479 c 4
80 399 m 4
 86 399 94 396 100 394 c 4
 106 396 114 400 120 400 c 4
 126 400 134 396 140 394 c 4
 146 396 154 400 160 400 c 4
 166 400 174 396 180 394 c 4
 186 396 194 400 200 400 c 4
 206 400 214 396 220 394 c 4
 226 396 234 400 240 400 c 4
 246 400 254 396 260 394 c 4
 266 396 274 400 280 400 c 4
 302 400 320 382 320 360 c 4
 320 338 302 320 280 320 c 4
 274 320 266 324 260 326 c 4
 254 324 246 320 240 320 c 4
 234 320 226 324 220 326 c 4
 214 324 206 320 200 320 c 4
 194 320 186 324 180 326 c 4
 174 324 166 320 160 320 c 4
 154 320 146 324 140 326 c 4
 134 324 126 320 120 320 c 4
 114 320 106 324 100 326 c 4
 94 324 86 320 80 320 c 4
 58 320 40 338 40 360 c 4
 40 382 58 399 80 399 c 4
80 319 m 4
 102 319 120 302 120 280 c 4
 120 258 102 240 80 240 c 4
 58 240 40 258 40 280 c 4
 40 302 58 319 80 319 c 4
80 239 m 4
 102 239 120 222 120 200 c 4
 120 178 102 160 80 160 c 4
 58 160 40 178 40 200 c 4
 40 222 58 239 80 239 c 4
80 159 m 4
 102 159 120 142 120 120 c 4
 120 98 102 80 80 80 c 4
 58 80 40 98 40 120 c 4
 40 142 58 159 80 159 c 4
80 79 m 4
 102 79 120 62 120 40 c 4
 120 18 102 0 80 0 c 4
 58 0 40 18 40 40 c 4
 40 62 58 79 80 79 c 4
320 320 m 4
 342 320 360 302 360 280 c 4
 360 258 342 240 320 240 c 4
 298 240 280 258 280 280 c 4
 280 302 298 320 320 320 c 4
320 239 m 4
 342 239 360 222 360 200 c 4
 360 178 342 160 320 160 c 4
 298 160 280 178 280 200 c 4
 280 222 298 239 320 239 c 4
320 159 m 4
 342 159 360 142 360 120 c 4
 360 98 342 80 320 80 c 4
 298 80 280 98 280 120 c 4
 280 142 298 159 320 159 c 4
320 79 m 4
 342 79 360 62 360 40 c 4
 360 18 342 0 320 0 c 4
 298 0 280 18 280 40 c 4
 280 62 298 79 320 79 c 4
EndSplineSet
Validated: 1
EndChar

StartChar: i
Encoding: 105 105 105
Width: 400
VWidth: 0
Flags: HMW
LayerCount: 2
UndoRedoHistory
Layer: 1
Undoes
UndoOperation
Index: 0
Type: 1
WasModified: 0
WasOrder2: 0
Layer: 2
Width: 200
VWidth: 0
LBearingChange: 0
UnicodeEnc: 0
InstructionsLength: 0
EndUndoOperation
EndUndoes
Redoes
EndRedoes
EndUndoRedoHistory
Fore
SplineSet
200 560 m 4
 222 560 240 542 240 520 c 4
 240 498 222 480 200 480 c 4
 178 480 160 498 160 520 c 4
 160 542 178 560 200 560 c 4
160 400 m 4
 166 400 174 396 180 394 c 4
 186 396 194 400 200 400 c 4
 222 400 240 382 240 360 c 4
 240 338 222 320 200 320 c 4
 194 320 186 324 180 326 c 4
 174 324 166 320 160 320 c 4
 138 320 120 338 120 360 c 4
 120 382 138 400 160 400 c 4
200 319 m 4
 222 319 240 302 240 280 c 4
 240 258 222 240 200 240 c 4
 178 240 160 258 160 280 c 4
 160 302 178 319 200 319 c 4
200 239 m 4
 222 239 240 222 240 200 c 4
 240 178 222 160 200 160 c 4
 178 160 160 178 160 200 c 4
 160 222 178 239 200 239 c 4
200 159 m 4
 222 159 240 142 240 120 c 4
 240 98 222 80 200 80 c 4
 178 80 160 98 160 120 c 4
 160 142 178 159 200 159 c 4
200 79 m 4
 206 79 214 76 220 74 c 4
 226 76 234 80 240 80 c 4
 246 80 254 76 260 74 c 4
 266 76 274 80 280 80 c 4
 302 80 320 62 320 40 c 4
 320 18 302 0 280 0 c 4
 274 0 266 4 260 6 c 4
 254 4 246 0 240 0 c 4
 234 0 226 4 220 6 c 4
 214 4 206 0 200 0 c 4
 194 0 186 4 180 6 c 4
 174 4 166 0 160 0 c 4
 154 0 146 4 140 6 c 4
 134 4 126 0 120 0 c 4
 98 0 80 18 80 40 c 4
 80 62 98 80 120 80 c 4
 126 80 134 76 140 74 c 4
 146 76 154 80 160 80 c 4
 166 80 174 76 180 74 c 4
 186 76 194 79 200 79 c 4
EndSplineSet
Validated: 1
EndChar

StartChar: j
Encoding: 106 106 106
Width: 400
VWidth: 0
Flags: HMW
LayerCount: 2
UndoRedoHistory
Layer: 1
Undoes
UndoOperation
Index: 0
Type: 1
WasModified: 0
WasOrder2: 0
Layer: 2
Width: 200
VWidth: 0
LBearingChange: 0
UnicodeEnc: 0
InstructionsLength: 0
EndUndoOperation
EndUndoes
Redoes
EndRedoes
EndUndoRedoHistory
Fore
SplineSet
280 560 m 4
 302 560 320 542 320 520 c 4
 320 498 302 480 280 480 c 4
 258 480 240 498 240 520 c 4
 240 542 258 560 280 560 c 4
280 400 m 4
 302 400 320 382 320 360 c 4
 320 338 302 320 280 320 c 4
 258 320 240 338 240 360 c 4
 240 382 258 400 280 400 c 4
280 319 m 4
 302 319 320 302 320 280 c 4
 320 258 302 240 280 240 c 4
 258 240 240 258 240 280 c 4
 240 302 258 319 280 319 c 4
280 239 m 4
 302 239 320 222 320 200 c 4
 320 178 302 160 280 160 c 4
 258 160 240 178 240 200 c 4
 240 222 258 239 280 239 c 4
280 159 m 4
 302 159 320 142 320 120 c 4
 320 98 302 80 280 80 c 4
 258 80 240 98 240 120 c 4
 240 142 258 159 280 159 c 4
280 79 m 4
 302 79 320 62 320 40 c 4
 320 18 302 0 280 0 c 4
 258 0 240 18 240 40 c 4
 240 62 258 79 280 79 c 4
280 -1 m 4
 302 -1 320 -18 320 -40 c 4
 320 -62 302 -80 280 -80 c 4
 258 -80 240 -62 240 -40 c 4
 240 -18 258 -1 280 -1 c 4
120 0 m 4
 142 0 160 -18 160 -40 c 4
 160 -62 142 -80 120 -80 c 4
 98 -80 80 -62 80 -40 c 4
 80 -18 98 0 120 0 c 4
160 -80 m 4
 166 -80 174 -84 180 -86 c 4
 186 -84 194 -80 200 -80 c 4
 206 -80 214 -84 220 -86 c 4
 226 -84 234 -80 240 -80 c 4
 262 -80 280 -98 280 -120 c 4
 280 -142 262 -160 240 -160 c 4
 234 -160 226 -156 220 -154 c 4
 214 -156 206 -160 200 -160 c 4
 194 -160 186 -156 180 -154 c 4
 174 -156 166 -160 160 -160 c 4
 138 -160 120 -142 120 -120 c 4
 120 -98 138 -80 160 -80 c 4
EndSplineSet
Validated: 1
EndChar

StartChar: k
Encoding: 107 107 107
Width: 400
VWidth: 0
Flags: HMW
LayerCount: 2
UndoRedoHistory
Layer: 1
Undoes
UndoOperation
Index: 0
Type: 1
WasModified: 0
WasOrder2: 0
Layer: 2
Width: 200
VWidth: 0
LBearingChange: 0
UnicodeEnc: 0
InstructionsLength: 0
EndUndoOperation
EndUndoes
Redoes
EndRedoes
EndUndoRedoHistory
Fore
SplineSet
80 560 m 4
 102 560 120 542 120 520 c 4
 120 498 102 480 80 480 c 4
 58 480 40 498 40 520 c 4
 40 542 58 560 80 560 c 4
80 479 m 4
 102 479 120 462 120 440 c 4
 120 418 102 400 80 400 c 4
 58 400 40 418 40 440 c 4
 40 462 58 479 80 479 c 4
80 399 m 4
 102 399 120 382 120 360 c 4
 120 338 102 320 80 320 c 4
 58 320 40 338 40 360 c 4
 40 382 58 399 80 399 c 4
80 319 m 4
 102 319 120 302 120 280 c 4
 120 258 102 240 80 240 c 4
 58 240 40 258 40 280 c 4
 40 302 58 319 80 319 c 4
80 239 m 4
 86 239 94 236 100 234 c 4
 106 236 114 240 120 240 c 4
 126 240 134 236 140 234 c 4
 146 236 154 240 160 240 c 4
 166 240 174 236 180 234 c 4
 186 236 194 240 200 240 c 4
 222 240 240 222 240 200 c 4
 240 178 222 160 200 160 c 4
 194 160 186 164 180 166 c 4
 174 164 166 160 160 160 c 4
 154 160 146 164 140 166 c 4
 134 164 126 160 120 160 c 4
 114 160 106 164 100 166 c 4
 94 164 86 160 80 160 c 4
 58 160 40 178 40 200 c 4
 40 222 58 239 80 239 c 4
80 159 m 4
 102 159 120 142 120 120 c 4
 120 98 102 80 80 80 c 4
 58 80 40 98 40 120 c 4
 40 142 58 159 80 159 c 4
80 79 m 4
 102 79 120 62 120 40 c 4
 120 18 102 0 80 0 c 4
 58 0 40 18 40 40 c 4
 40 62 58 79 80 79 c 4
280 400 m 4
 302 400 320 382 320 360 c 4
 320 338 302 320 280 320 c 4
 258 320 240 338 240 360 c 4
 240 382 258 400 280 400 c 4
240 320 m 4
 262 320 280 302 280 280 c 4
 280 258 262 240 240 240 c 4
 218 240 200 258 200 280 c 4
 200 302 218 320 240 320 c 4
280 160 m 4
 302 160 320 142 320 120 c 4
 320 98 302 80 280 80 c 4
 258 80 240 98 240 120 c 4
 240 142 258 160 280 160 c 4
320 80 m 4
 342 80 360 62 360 40 c 4
 360 18 342 0 320 0 c 4
 298 0 280 18 280 40 c 4
 280 62 298 80 320 80 c 4
EndSplineSet
Validated: 1
EndChar

StartChar: l
Encoding: 108 108 108
Width: 400
VWidth: 0
Flags: HMW
LayerCount: 2
UndoRedoHistory
Layer: 1
Undoes
UndoOperation
Index: 0
Type: 1
WasModified: 0
WasOrder2: 0
Layer: 2
Width: 200
VWidth: 0
LBearingChange: 0
UnicodeEnc: 0
InstructionsLength: 0
EndUndoOperation
EndUndoes
Redoes
EndRedoes
EndUndoRedoHistory
Fore
SplineSet
160 560 m 4
 166 560 174 556 180 554 c 4
 186 556 194 560 200 560 c 4
 222 560 240 542 240 520 c 4
 240 498 222 480 200 480 c 4
 194 480 186 484 180 486 c 4
 174 484 166 480 160 480 c 4
 138 480 120 498 120 520 c 4
 120 542 138 560 160 560 c 4
200 479 m 4
 222 479 240 462 240 440 c 4
 240 418 222 400 200 400 c 4
 178 400 160 418 160 440 c 4
 160 462 178 479 200 479 c 4
200 399 m 4
 222 399 240 382 240 360 c 4
 240 338 222 320 200 320 c 4
 178 320 160 338 160 360 c 4
 160 382 178 399 200 399 c 4
200 319 m 4
 222 319 240 302 240 280 c 4
 240 258 222 240 200 240 c 4
 178 240 160 258 160 280 c 4
 160 302 178 319 200 319 c 4
200 239 m 4
 222 239 240 222 240 200 c 4
 240 178 222 160 200 160 c 4
 178 160 160 178 160 200 c 4
 160 222 178 239 200 239 c 4
200 159 m 4
 222 159 240 142 240 120 c 4
 240 98 222 80 200 80 c 4
 178 80 160 98 160 120 c 4
 160 142 178 159 200 159 c 4
200 79 m 4
 206 79 214 76 220 74 c 4
 226 76 234 80 240 80 c 4
 246 80 254 76 260 74 c 4
 266 76 274 80 280 80 c 4
 302 80 320 62 320 40 c 4
 320 18 302 0 280 0 c 4
 274 0 266 4 260 6 c 4
 254 4 246 0 240 0 c 4
 234 0 226 4 220 6 c 4
 214 4 206 0 200 0 c 4
 194 0 186 4 180 6 c 4
 174 4 166 0 160 0 c 4
 154 0 146 4 140 6 c 4
 134 4 126 0 120 0 c 4
 98 0 80 18 80 40 c 4
 80 62 98 80 120 80 c 4
 126 80 134 76 140 74 c 4
 146 76 154 80 160 80 c 4
 166 80 174 76 180 74 c 4
 186 76 194 79 200 79 c 4
EndSplineSet
Validated: 1
EndChar

StartChar: m
Encoding: 109 109 109
Width: 400
VWidth: 0
Flags: HMW
LayerCount: 2
UndoRedoHistory
Layer: 1
Undoes
UndoOperation
Index: 0
Type: 1
WasModified: 0
WasOrder2: 0
Layer: 2
Width: 200
VWidth: 0
LBearingChange: 0
UnicodeEnc: 0
InstructionsLength: 0
EndUndoOperation
EndUndoes
Redoes
EndRedoes
EndUndoRedoHistory
Fore
SplineSet
40 400 m 4
 46 400 54 396 60 394 c 4
 66 396 74 400 80 400 c 4
 86 400 94 396 100 394 c 4
 106 396 114 400 120 400 c 4
 126 400 134 396 140 394 c 4
 146 396 154 400 160 400 c 4
 182 400 200 382 200 360 c 4
 200 338 182 320 160 320 c 4
 154 320 146 324 140 326 c 4
 134 324 126 320 120 320 c 4
 114 320 106 324 100 326 c 4
 94 324 86 320 80 320 c 4
 74 320 66 324 60 326 c 4
 54 324 46 320 40 320 c 4
 18 320 0 338 0 360 c 4
 0 382 18 400 40 400 c 4
201 360 m 4
 201 382 218 400 240 400 c 4
 246 400 254 396 260 394 c 4
 266 396 274 400 280 400 c 4
 286 400 294 396 300 394 c 4
 306 396 314 400 320 400 c 4
 342 400 360 382 360 360 c 4
 360 338 342 320 320 320 c 4
 314 320 306 324 300 326 c 4
 294 324 286 320 280 320 c 4
 274 320 266 324 260 326 c 4
 254 324 246 320 240 320 c 4
 218 320 201 338 201 360 c 4
40 319 m 4
 62 319 80 302 80 280 c 4
 80 258 62 240 40 240 c 4
 18 240 0 258 0 280 c 4
 0 302 18 319 40 319 c 4
40 239 m 4
 62 239 80 222 80 200 c 4
 80 178 62 160 40 160 c 4
 18 160 0 178 0 200 c 4
 0 222 18 239 40 239 c 4
40 159 m 4
 62 159 80 142 80 120 c 4
 80 98 62 80 40 80 c 4
 18 80 0 98 0 120 c 4
 0 142 18 159 40 159 c 4
40 79 m 4
 62 79 80 62 80 40 c 4
 80 18 62 0 40 0 c 4
 18 0 0 18 0 40 c 4
 0 62 18 79 40 79 c 4
200 320 m 4
 222 320 240 302 240 280 c 4
 240 258 222 240 200 240 c 4
 178 240 160 258 160 280 c 4
 160 302 178 320 200 320 c 4
200 239 m 4
 222 239 240 222 240 200 c 4
 240 178 222 160 200 160 c 4
 178 160 160 178 160 200 c 4
 160 222 178 239 200 239 c 4
200 159 m 4
 222 159 240 142 240 120 c 4
 240 98 222 80 200 80 c 4
 178 80 160 98 160 120 c 4
 160 142 178 159 200 159 c 4
200 79 m 4
 222 79 240 62 240 40 c 4
 240 18 222 0 200 0 c 4
 178 0 160 18 160 40 c 4
 160 62 178 79 200 79 c 4
360 320 m 4
 382 320 400 302 400 280 c 4
 400 258 382 240 360 240 c 4
 338 240 320 258 320 280 c 4
 320 302 338 320 360 320 c 4
360 239 m 4
 382 239 400 222 400 200 c 4
 400 178 382 160 360 160 c 4
 338 160 320 178 320 200 c 4
 320 222 338 239 360 239 c 4
360 159 m 4
 382 159 400 142 400 120 c 4
 400 98 382 80 360 80 c 4
 338 80 320 98 320 120 c 4
 320 142 338 159 360 159 c 4
360 79 m 4
 382 79 400 62 400 40 c 4
 400 18 382 0 360 0 c 4
 338 0 320 18 320 40 c 4
 320 62 338 79 360 79 c 4
EndSplineSet
Validated: 1
EndChar

StartChar: n
Encoding: 110 110 110
Width: 400
VWidth: 0
Flags: HMW
LayerCount: 2
UndoRedoHistory
Layer: 1
Undoes
UndoOperation
Index: 0
Type: 1
WasModified: 0
WasOrder2: 0
Layer: 2
Width: 200
VWidth: 0
LBearingChange: 0
UnicodeEnc: 0
InstructionsLength: 0
EndUndoOperation
EndUndoes
Redoes
EndRedoes
EndUndoRedoHistory
Fore
SplineSet
80 400 m 4
 86 400 94 396 100 394 c 4
 106 396 114 400 120 400 c 4
 126 400 134 396 140 394 c 4
 146 396 154 400 160 400 c 4
 166 400 174 396 180 394 c 4
 186 396 194 400 200 400 c 4
 206 400 214 396 220 394 c 4
 226 396 234 400 240 400 c 4
 246 400 254 396 260 394 c 4
 266 396 274 400 280 400 c 4
 302 400 320 382 320 360 c 4
 320 338 302 320 280 320 c 4
 274 320 266 324 260 326 c 4
 254 324 246 320 240 320 c 4
 234 320 226 324 220 326 c 4
 214 324 206 320 200 320 c 4
 194 320 186 324 180 326 c 4
 174 324 166 320 160 320 c 4
 154 320 146 324 140 326 c 4
 134 324 126 320 120 320 c 4
 114 320 106 324 100 326 c 4
 94 324 86 320 80 320 c 4
 58 320 40 338 40 360 c 4
 40 382 58 400 80 400 c 4
80 319 m 4
 102 319 120 302 120 280 c 4
 120 258 102 240 80 240 c 4
 58 240 40 258 40 280 c 4
 40 302 58 319 80 319 c 4
80 239 m 4
 102 239 120 222 120 200 c 4
 120 178 102 160 80 160 c 4
 58 160 40 178 40 200 c 4
 40 222 58 239 80 239 c 4
80 159 m 4
 102 159 120 142 120 120 c 4
 120 98 102 80 80 80 c 4
 58 80 40 98 40 120 c 4
 40 142 58 159 80 159 c 4
80 79 m 4
 102 79 120 62 120 40 c 4
 120 18 102 0 80 0 c 4
 58 0 40 18 40 40 c 4
 40 62 58 79 80 79 c 4
320 320 m 4
 342 320 360 302 360 280 c 4
 360 258 342 240 320 240 c 4
 298 240 280 258 280 280 c 4
 280 302 298 320 320 320 c 4
320 239 m 4
 342 239 360 222 360 200 c 4
 360 178 342 160 320 160 c 4
 298 160 280 178 280 200 c 4
 280 222 298 239 320 239 c 4
320 159 m 4
 342 159 360 142 360 120 c 4
 360 98 342 80 320 80 c 4
 298 80 280 98 280 120 c 4
 280 142 298 159 320 159 c 4
320 79 m 4
 342 79 360 62 360 40 c 4
 360 18 342 0 320 0 c 4
 298 0 280 18 280 40 c 4
 280 62 298 79 320 79 c 4
EndSplineSet
Validated: 1
EndChar

StartChar: o
Encoding: 111 111 111
Width: 400
VWidth: 0
Flags: HMW
LayerCount: 2
UndoRedoHistory
Layer: 1
Undoes
UndoOperation
Index: 0
Type: 1
WasModified: 0
WasOrder2: 0
Layer: 2
Width: 200
VWidth: 0
LBearingChange: 0
UnicodeEnc: 0
InstructionsLength: 0
EndUndoOperation
EndUndoes
Redoes
EndRedoes
EndUndoRedoHistory
Fore
SplineSet
120 400 m 4
 126 400 134 396 140 394 c 4
 146 396 154 400 160 400 c 4
 166 400 174 396 180 394 c 4
 186 396 194 400 200 400 c 4
 206 400 214 396 220 394 c 4
 226 396 234 400 240 400 c 4
 246 400 254 396 260 394 c 4
 266 396 274 400 280 400 c 4
 302 400 320 382 320 360 c 4
 320 338 302 320 280 320 c 4
 274 320 266 324 260 326 c 4
 254 324 246 320 240 320 c 4
 234 320 226 324 220 326 c 4
 214 324 206 320 200 320 c 4
 194 320 186 324 180 326 c 4
 174 324 166 320 160 320 c 4
 154 320 146 324 140 326 c 4
 134 324 126 320 120 320 c 4
 98 320 80 338 80 360 c 4
 80 382 98 400 120 400 c 4
80 320 m 4
 102 320 120 302 120 280 c 4
 120 258 102 240 80 240 c 4
 58 240 40 258 40 280 c 4
 40 302 58 320 80 320 c 4
80 239 m 4
 102 239 120 222 120 200 c 4
 120 178 102 160 80 160 c 4
 58 160 40 178 40 200 c 4
 40 222 58 239 80 239 c 4
80 159 m 4
 102 159 120 142 120 120 c 4
 120 98 102 80 80 80 c 4
 58 80 40 98 40 120 c 4
 40 142 58 159 80 159 c 4
320 320 m 4
 342 320 360 302 360 280 c 4
 360 258 342 240 320 240 c 4
 298 240 280 258 280 280 c 4
 280 302 298 320 320 320 c 4
320 239 m 4
 342 239 360 222 360 200 c 4
 360 178 342 160 320 160 c 4
 298 160 280 178 280 200 c 4
 280 222 298 239 320 239 c 4
320 159 m 4
 342 159 360 142 360 120 c 4
 360 98 342 80 320 80 c 4
 298 80 280 98 280 120 c 4
 280 142 298 159 320 159 c 4
120 80 m 4
 126 80 134 76 140 74 c 4
 146 76 154 80 160 80 c 4
 166 80 174 76 180 74 c 4
 186 76 194 80 200 80 c 4
 206 80 214 76 220 74 c 4
 226 76 234 80 240 80 c 4
 246 80 254 76 260 74 c 4
 266 76 274 80 280 80 c 4
 302 80 320 62 320 40 c 4
 320 18 302 0 280 0 c 4
 274 0 266 4 260 6 c 4
 254 4 246 0 240 0 c 4
 234 0 226 4 220 6 c 4
 214 4 206 0 200 0 c 4
 194 0 186 4 180 6 c 4
 174 4 166 0 160 0 c 4
 154 0 146 4 140 6 c 4
 134 4 126 0 120 0 c 4
 98 0 80 18 80 40 c 4
 80 62 98 80 120 80 c 4
EndSplineSet
Validated: 1
EndChar

StartChar: p
Encoding: 112 112 112
Width: 400
VWidth: 0
Flags: HMW
LayerCount: 2
UndoRedoHistory
Layer: 1
Undoes
UndoOperation
Index: 0
Type: 1
WasModified: 0
WasOrder2: 0
Layer: 2
Width: 200
VWidth: 0
LBearingChange: 0
UnicodeEnc: 0
InstructionsLength: 0
EndUndoOperation
EndUndoes
Redoes
EndRedoes
EndUndoRedoHistory
Fore
SplineSet
80 400 m 0
 86 400 94 396 100 394 c 0
 106 396 114 400 120 400 c 0
 126 400 134 396 140 394 c 0
 146 396 154 400 160 400 c 0
 166 400 174 396 180 394 c 0
 186 396 194 400 200 400 c 0
 206 400 214 396 220 394 c 0
 226 396 234 400 240 400 c 0
 246 400 254 396 260 394 c 0
 266 396 274 400 280 400 c 0
 302 400 320 382 320 360 c 0
 320 338 302 320 280 320 c 0
 274 320 266 324 260 326 c 0
 254 324 246 320 240 320 c 0
 234 320 226 324 220 326 c 0
 214 324 206 320 200 320 c 0
 194 320 186 324 180 326 c 0
 174 324 166 320 160 320 c 0
 154 320 146 324 140 326 c 0
 134 324 126 320 120 320 c 0
 114 320 106 324 100 326 c 0
 94 324 86 320 80 320 c 0
 58 320 40 338 40 360 c 0
 40 382 58 400 80 400 c 0
80 319 m 0
 102 319 120 302 120 280 c 0
 120 258 102 240 80 240 c 0
 58 240 40 258 40 280 c 0
 40 302 58 319 80 319 c 0
80 239 m 0
 102 239 120 222 120 200 c 0
 120 178 102 160 80 160 c 0
 58 160 40 178 40 200 c 0
 40 222 58 239 80 239 c 0
80 159 m 0
 102 159 120 142 120 120 c 0
 120 98 102 80 80 80 c 0
 58 80 40 98 40 120 c 0
 40 142 58 159 80 159 c 0
80 79 m 0
 86 79 94 76 100 74 c 0
 106 76 114 80 120 80 c 0
 126 80 134 76 140 74 c 0
 146 76 154 80 160 80 c 0
 166 80 174 76 180 74 c 0
 186 76 194 80 200 80 c 0
 206 80 214 76 220 74 c 0
 226 76 234 80 240 80 c 0
 246 80 254 76 260 74 c 0
 266 76 274 80 280 80 c 0
 302 80 320 62 320 40 c 0
 320 18 302 0 280 0 c 0
 274 0 266 4 260 6 c 0
 254 4 246 0 240 0 c 0
 234 0 226 4 220 6 c 0
 214 4 206 0 200 0 c 0
 194 0 186 4 180 6 c 0
 174 4 166 0 160 0 c 0
 154 0 146 4 140 6 c 0
 134 4 126 0 120 0 c 0
 114 0 106 4 100 6 c 0
 94 4 86 0 80 0 c 0
 58 0 40 18 40 40 c 0
 40 62 58 79 80 79 c 0
80 -1 m 0
 102 -1 120 -18 120 -40 c 0
 120 -62 102 -80 80 -80 c 0
 58 -80 40 -62 40 -40 c 0
 40 -18 58 -1 80 -1 c 0
80 -81 m 0
 102 -81 120 -98 120 -120 c 0
 120 -142 102 -160 80 -160 c 0
 58 -160 40 -142 40 -120 c 0
 40 -98 58 -81 80 -81 c 0
320 320 m 0
 342 320 360 302 360 280 c 0
 360 258 342 240 320 240 c 0
 298 240 280 258 280 280 c 0
 280 302 298 320 320 320 c 0
320 239 m 0
 342 239 360 222 360 200 c 0
 360 178 342 160 320 160 c 0
 298 160 280 178 280 200 c 0
 280 222 298 239 320 239 c 0
320 159 m 0
 342 159 360 142 360 120 c 0
 360 98 342 80 320 80 c 0
 298 80 280 98 280 120 c 0
 280 142 298 159 320 159 c 0
EndSplineSet
Validated: 1
EndChar

StartChar: q
Encoding: 113 113 113
Width: 400
VWidth: 0
Flags: HMW
LayerCount: 2
UndoRedoHistory
Layer: 1
Undoes
UndoOperation
Index: 0
Type: 1
WasModified: 0
WasOrder2: 0
Layer: 2
Width: 200
VWidth: 0
LBearingChange: 0
UnicodeEnc: 0
InstructionsLength: 0
EndUndoOperation
EndUndoes
Redoes
EndRedoes
EndUndoRedoHistory
Fore
SplineSet
120 400 m 4
 126 400 134 396 140 394 c 4
 146 396 154 400 160 400 c 4
 166 400 174 396 180 394 c 4
 186 396 194 400 200 400 c 4
 206 400 214 396 220 394 c 4
 226 396 234 400 240 400 c 4
 246 400 254 396 260 394 c 4
 266 396 274 400 280 400 c 4
 286 400 294 396 300 394 c 4
 306 396 314 400 320 400 c 4
 342 400 360 382 360 360 c 4
 360 338 342 320 320 320 c 4
 314 320 306 324 300 326 c 4
 294 324 286 320 280 320 c 4
 274 320 266 324 260 326 c 4
 254 324 246 320 240 320 c 4
 234 320 226 324 220 326 c 4
 214 324 206 320 200 320 c 4
 194 320 186 324 180 326 c 4
 174 324 166 320 160 320 c 4
 154 320 146 324 140 326 c 4
 134 324 126 320 120 320 c 4
 98 320 80 338 80 360 c 4
 80 382 98 400 120 400 c 4
320 319 m 4
 342 319 360 302 360 280 c 4
 360 258 342 240 320 240 c 4
 298 240 280 258 280 280 c 4
 280 302 298 319 320 319 c 4
320 239 m 4
 342 239 360 222 360 200 c 4
 360 178 342 160 320 160 c 4
 298 160 280 178 280 200 c 4
 280 222 298 239 320 239 c 4
320 159 m 4
 342 159 360 142 360 120 c 4
 360 98 342 80 320 80 c 4
 298 80 280 98 280 120 c 4
 280 142 298 159 320 159 c 4
320 79 m 4
 342 79 360 62 360 40 c 4
 360 18 342 0 320 0 c 4
 314 0 306 4 300 6 c 4
 294 4 286 0 280 0 c 4
 274 0 266 4 260 6 c 4
 254 4 246 0 240 0 c 4
 234 0 226 4 220 6 c 4
 214 4 206 0 200 0 c 4
 194 0 186 4 180 6 c 4
 174 4 166 0 160 0 c 4
 154 0 146 4 140 6 c 4
 134 4 126 0 120 0 c 4
 98 0 80 18 80 40 c 4
 80 62 98 80 120 80 c 4
 126 80 134 76 140 74 c 4
 146 76 154 80 160 80 c 4
 166 80 174 76 180 74 c 4
 186 76 194 80 200 80 c 4
 206 80 214 76 220 74 c 4
 226 76 234 80 240 80 c 4
 246 80 254 76 260 74 c 4
 266 76 274 80 280 80 c 4
 286 80 294 76 300 74 c 4
 306 76 314 79 320 79 c 4
320 -1 m 4
 342 -1 360 -18 360 -40 c 4
 360 -62 342 -80 320 -80 c 4
 298 -80 280 -62 280 -40 c 4
 280 -18 298 -1 320 -1 c 4
320 -81 m 4
 342 -81 360 -98 360 -120 c 4
 360 -142 342 -160 320 -160 c 4
 298 -160 280 -142 280 -120 c 4
 280 -98 298 -81 320 -81 c 4
80 320 m 4
 102 320 120 302 120 280 c 4
 120 258 102 240 80 240 c 4
 58 240 40 258 40 280 c 4
 40 302 58 320 80 320 c 4
80 239 m 4
 102 239 120 222 120 200 c 4
 120 178 102 160 80 160 c 4
 58 160 40 178 40 200 c 4
 40 222 58 239 80 239 c 4
80 159 m 4
 102 159 120 142 120 120 c 4
 120 98 102 80 80 80 c 4
 58 80 40 98 40 120 c 4
 40 142 58 159 80 159 c 4
EndSplineSet
Validated: 1
EndChar

StartChar: r
Encoding: 114 114 114
Width: 400
VWidth: 0
Flags: HMW
LayerCount: 2
UndoRedoHistory
Layer: 1
Undoes
UndoOperation
Index: 0
Type: 1
WasModified: 0
WasOrder2: 0
Layer: 2
Width: 200
VWidth: 0
LBearingChange: 0
UnicodeEnc: 0
InstructionsLength: 0
EndUndoOperation
EndUndoes
Redoes
EndRedoes
EndUndoRedoHistory
Fore
SplineSet
80 400 m 4
 86 400 94 396 100 394 c 4
 106 396 114 400 120 400 c 4
 126 400 134 396 140 394 c 4
 146 396 154 400 160 400 c 4
 166 400 174 396 180 394 c 4
 186 396 194 400 200 400 c 4
 206 400 214 396 220 394 c 4
 226 396 234 400 240 400 c 4
 246 400 254 396 260 394 c 4
 266 396 274 400 280 400 c 4
 302 400 320 382 320 360 c 4
 320 338 302 320 280 320 c 4
 274 320 266 324 260 326 c 4
 254 324 246 320 240 320 c 4
 234 320 226 324 220 326 c 4
 214 324 206 320 200 320 c 4
 194 320 186 324 180 326 c 4
 174 324 166 320 160 320 c 4
 154 320 146 324 140 326 c 4
 134 324 126 320 120 320 c 4
 114 320 106 324 100 326 c 4
 94 324 86 320 80 320 c 4
 58 320 40 338 40 360 c 4
 40 382 58 400 80 400 c 4
80 319 m 4
 102 319 120 302 120 280 c 4
 120 258 102 240 80 240 c 4
 58 240 40 258 40 280 c 4
 40 302 58 319 80 319 c 4
80 239 m 4
 102 239 120 222 120 200 c 4
 120 178 102 160 80 160 c 4
 58 160 40 178 40 200 c 4
 40 222 58 239 80 239 c 4
80 159 m 4
 102 159 120 142 120 120 c 4
 120 98 102 80 80 80 c 4
 58 80 40 98 40 120 c 4
 40 142 58 159 80 159 c 4
80 79 m 4
 102 79 120 62 120 40 c 4
 120 18 102 0 80 0 c 4
 58 0 40 18 40 40 c 4
 40 62 58 79 80 79 c 4
320 320 m 4
 342 320 360 302 360 280 c 4
 360 258 342 240 320 240 c 4
 298 240 280 258 280 280 c 4
 280 302 298 320 320 320 c 4
EndSplineSet
Validated: 1
EndChar

StartChar: s
Encoding: 115 115 115
Width: 400
VWidth: 0
Flags: HMW
LayerCount: 2
UndoRedoHistory
Layer: 1
Undoes
UndoOperation
Index: 0
Type: 1
WasModified: 0
WasOrder2: 0
Layer: 2
Width: 200
VWidth: 0
LBearingChange: 0
UnicodeEnc: 0
InstructionsLength: 0
EndUndoOperation
EndUndoes
Redoes
EndRedoes
EndUndoRedoHistory
Fore
SplineSet
120 394 m 4
 126 394 134 392 140 390 c 4
 146 392 154 394 160 394 c 4
 166 394 174 392 180 390 c 4
 186 392 194 394 200 394 c 4
 206 394 214 392 220 390 c 4
 226 392 234 394 240 394 c 4
 246 394 254 392 260 390 c 4
 266 392 274 394 280 394 c 4
 302 394 320 376 320 354 c 4
 320 332 302 314 280 314 c 4
 274 314 266 318 260 320 c 4
 254 318 246 314 240 314 c 4
 234 314 226 318 220 320 c 4
 214 318 206 314 200 314 c 4
 194 314 186 318 180 320 c 4
 174 318 166 314 160 314 c 4
 154 314 146 318 140 320 c 4
 134 318 126 314 120 314 c 4
 98 314 80 332 80 354 c 4
 80 376 98 394 120 394 c 4
80 314 m 4
 102 314 120 296 120 274 c 4
 120 252 102 234 80 234 c 4
 58 234 40 252 40 274 c 4
 40 296 58 314 80 314 c 4
120 234 m 4
 126 234 134 232 140 230 c 4
 146 232 154 234 160 234 c 4
 166 234 174 232 180 230 c 4
 186 232 194 234 200 234 c 4
 206 234 214 232 220 230 c 4
 226 232 234 234 240 234 c 4
 246 234 254 232 260 230 c 4
 266 232 274 234 280 234 c 4
 302 234 320 216 320 194 c 4
 320 172 302 154 280 154 c 4
 274 154 266 158 260 160 c 4
 254 158 246 154 240 154 c 4
 234 154 226 158 220 160 c 4
 214 158 206 154 200 154 c 4
 194 154 186 158 180 160 c 4
 174 158 166 154 160 154 c 4
 154 154 146 158 140 160 c 4
 134 158 126 154 120 154 c 4
 98 154 80 172 80 194 c 4
 80 216 98 234 120 234 c 4
320 154 m 4
 342 154 360 136 360 114 c 4
 360 92 342 74 320 74 c 4
 298 74 280 92 280 114 c 4
 280 136 298 154 320 154 c 4
120 74 m 4
 126 74 134 72 140 70 c 4
 146 72 154 74 160 74 c 4
 166 74 174 72 180 70 c 4
 186 72 194 74 200 74 c 4
 206 74 214 72 220 70 c 4
 226 72 234 74 240 74 c 4
 246 74 254 72 260 70 c 4
 266 72 274 74 280 74 c 4
 302 74 320 56 320 34 c 4
 320 12 302 -6 280 -6 c 4
 274 -6 266 -2 260 0 c 4
 254 -2 246 -6 240 -6 c 4
 234 -6 226 -2 220 0 c 4
 214 -2 206 -6 200 -6 c 4
 194 -6 186 -2 180 0 c 4
 174 -2 166 -6 160 -6 c 4
 154 -6 146 -2 140 0 c 4
 134 -2 126 -6 120 -6 c 4
 98 -6 80 12 80 34 c 4
 80 56 98 74 120 74 c 4
EndSplineSet
Validated: 1
EndChar

StartChar: t
Encoding: 116 116 116
Width: 400
VWidth: 0
Flags: HMW
LayerCount: 2
UndoRedoHistory
Layer: 1
Undoes
UndoOperation
Index: 0
Type: 1
WasModified: 0
WasOrder2: 0
Layer: 2
Width: 200
VWidth: 0
LBearingChange: 0
UnicodeEnc: 0
InstructionsLength: 0
EndUndoOperation
EndUndoes
Redoes
EndRedoes
EndUndoRedoHistory
Fore
SplineSet
160 480 m 4
 182 480 200 462 200 440 c 4
 200 418 182 400 160 400 c 4
 138 400 120 418 120 440 c 4
 120 462 138 480 160 480 c 4
160 399 m 4
 166 399 174 396 180 394 c 4
 186 396 194 400 200 400 c 4
 206 400 214 396 220 394 c 4
 226 396 234 400 240 400 c 4
 262 400 280 382 280 360 c 4
 280 338 262 320 240 320 c 4
 234 320 226 324 220 326 c 4
 214 324 206 320 200 320 c 4
 194 320 186 324 180 326 c 4
 174 324 166 320 160 320 c 4
 154 320 146 324 140 326 c 4
 134 324 126 320 120 320 c 4
 114 320 106 324 100 326 c 4
 94 324 86 320 80 320 c 4
 58 320 40 338 40 360 c 4
 40 382 58 400 80 400 c 4
 86 400 94 396 100 394 c 4
 106 396 114 400 120 400 c 4
 126 400 134 396 140 394 c 4
 146 396 154 399 160 399 c 4
160 319 m 4
 182 319 200 302 200 280 c 4
 200 258 182 240 160 240 c 4
 138 240 120 258 120 280 c 4
 120 302 138 319 160 319 c 4
160 239 m 4
 182 239 200 222 200 200 c 4
 200 178 182 160 160 160 c 4
 138 160 120 178 120 200 c 4
 120 222 138 239 160 239 c 4
160 159 m 4
 182 159 200 142 200 120 c 4
 200 98 182 80 160 80 c 4
 138 80 120 98 120 120 c 4
 120 142 138 159 160 159 c 4
320 160 m 4
 342 160 360 142 360 120 c 4
 360 98 342 80 320 80 c 4
 298 80 280 98 280 120 c 4
 280 142 298 160 320 160 c 4
200 80 m 4
 206 80 214 76 220 74 c 4
 226 76 234 80 240 80 c 4
 246 80 254 76 260 74 c 4
 266 76 274 80 280 80 c 4
 302 80 320 62 320 40 c 4
 320 18 302 0 280 0 c 4
 274 0 266 4 260 6 c 4
 254 4 246 0 240 0 c 4
 234 0 226 4 220 6 c 4
 214 4 206 0 200 0 c 4
 178 0 160 18 160 40 c 4
 160 62 178 80 200 80 c 4
EndSplineSet
Validated: 1
EndChar

StartChar: u
Encoding: 117 117 117
Width: 400
VWidth: 0
Flags: HMW
LayerCount: 2
UndoRedoHistory
Layer: 1
Undoes
UndoOperation
Index: 0
Type: 1
WasModified: 0
WasOrder2: 0
Layer: 2
Width: 200
VWidth: 0
LBearingChange: 0
UnicodeEnc: 0
InstructionsLength: 0
EndUndoOperation
EndUndoes
Redoes
EndRedoes
EndUndoRedoHistory
Fore
SplineSet
80 400 m 4
 102 400 120 382 120 360 c 4
 120 338 102 320 80 320 c 4
 58 320 40 338 40 360 c 4
 40 382 58 400 80 400 c 4
80 319 m 4
 102 319 120 302 120 280 c 4
 120 258 102 240 80 240 c 4
 58 240 40 258 40 280 c 4
 40 302 58 319 80 319 c 4
80 239 m 4
 102 239 120 222 120 200 c 4
 120 178 102 160 80 160 c 4
 58 160 40 178 40 200 c 4
 40 222 58 239 80 239 c 4
80 159 m 4
 102 159 120 142 120 120 c 4
 120 98 102 80 80 80 c 4
 58 80 40 98 40 120 c 4
 40 142 58 159 80 159 c 4
320 400 m 4
 342 400 360 382 360 360 c 4
 360 338 342 320 320 320 c 4
 298 320 280 338 280 360 c 4
 280 382 298 400 320 400 c 4
320 319 m 4
 342 319 360 302 360 280 c 4
 360 258 342 240 320 240 c 4
 298 240 280 258 280 280 c 4
 280 302 298 319 320 319 c 4
320 239 m 4
 342 239 360 222 360 200 c 4
 360 178 342 160 320 160 c 4
 298 160 280 178 280 200 c 4
 280 222 298 239 320 239 c 4
320 159 m 4
 342 159 360 142 360 120 c 4
 360 98 342 80 320 80 c 4
 298 80 280 98 280 120 c 4
 280 142 298 159 320 159 c 4
320 79 m 4
 342 79 360 62 360 40 c 4
 360 18 342 0 320 0 c 4
 314 0 306 4 300 6 c 4
 294 4 286 0 280 0 c 4
 274 0 266 4 260 6 c 4
 254 4 246 0 240 0 c 4
 234 0 226 4 220 6 c 4
 214 4 206 0 200 0 c 4
 194 0 186 4 180 6 c 4
 174 4 166 0 160 0 c 4
 154 0 146 4 140 6 c 4
 134 4 126 0 120 0 c 4
 98 0 80 18 80 40 c 4
 80 62 98 80 120 80 c 4
 126 80 134 76 140 74 c 4
 146 76 154 80 160 80 c 4
 166 80 174 76 180 74 c 4
 186 76 194 80 200 80 c 4
 206 80 214 76 220 74 c 4
 226 76 234 80 240 80 c 4
 246 80 254 76 260 74 c 4
 266 76 274 80 280 80 c 4
 286 80 294 76 300 74 c 4
 306 76 314 79 320 79 c 4
EndSplineSet
Validated: 1
EndChar

StartChar: v
Encoding: 118 118 118
Width: 400
VWidth: 0
Flags: HMW
LayerCount: 2
UndoRedoHistory
Layer: 1
Undoes
UndoOperation
Index: 0
Type: 1
WasModified: 0
WasOrder2: 0
Layer: 2
Width: 200
VWidth: 0
LBearingChange: 0
UnicodeEnc: 0
InstructionsLength: 0
EndUndoOperation
EndUndoes
Redoes
EndRedoes
EndUndoRedoHistory
Fore
SplineSet
80 400 m 4
 102 400 120 382 120 360 c 4
 120 338 102 320 80 320 c 4
 58 320 40 338 40 360 c 4
 40 382 58 400 80 400 c 4
80 319 m 4
 102 319 120 302 120 280 c 4
 120 258 102 240 80 240 c 4
 58 240 40 258 40 280 c 4
 40 302 58 319 80 319 c 4
320 400 m 4
 342 400 360 382 360 360 c 4
 360 338 342 320 320 320 c 4
 298 320 280 338 280 360 c 4
 280 382 298 400 320 400 c 4
320 319 m 4
 342 319 360 302 360 280 c 4
 360 258 342 240 320 240 c 4
 298 240 280 258 280 280 c 4
 280 302 298 319 320 319 c 4
120 240 m 4
 142 240 160 222 160 200 c 4
 160 178 142 160 120 160 c 4
 98 160 80 178 80 200 c 4
 80 222 98 240 120 240 c 4
280 240 m 4
 302 240 320 222 320 200 c 4
 320 178 302 160 280 160 c 4
 258 160 240 178 240 200 c 4
 240 222 258 240 280 240 c 4
160 160 m 4
 182 160 200 142 200 120 c 4
 200 98 182 80 160 80 c 4
 138 80 120 98 120 120 c 4
 120 142 138 160 160 160 c 4
201 120 m 4
 201 142 218 160 240 160 c 4
 262 160 280 142 280 120 c 4
 280 98 262 80 240 80 c 4
 218 80 201 98 201 120 c 4
200 80 m 4
 222 80 240 62 240 40 c 4
 240 18 222 0 200 0 c 4
 178 0 160 18 160 40 c 4
 160 62 178 80 200 80 c 4
EndSplineSet
Validated: 1
EndChar

StartChar: w
Encoding: 119 119 119
Width: 400
VWidth: 0
Flags: HMW
LayerCount: 2
UndoRedoHistory
Layer: 1
Undoes
UndoOperation
Index: 0
Type: 1
WasModified: 0
WasOrder2: 0
Layer: 2
Width: 200
VWidth: 0
LBearingChange: 0
UnicodeEnc: 0
InstructionsLength: 0
EndUndoOperation
EndUndoes
Redoes
EndRedoes
EndUndoRedoHistory
Fore
SplineSet
40 400 m 4
 62 400 80 382 80 360 c 4
 80 338 62 320 40 320 c 4
 18 320 0 338 0 360 c 4
 0 382 18 400 40 400 c 4
40 319 m 4
 62 319 80 302 80 280 c 4
 80 258 62 240 40 240 c 4
 18 240 0 258 0 280 c 4
 0 302 18 319 40 319 c 4
40 239 m 4
 62 239 80 222 80 200 c 4
 80 178 62 160 40 160 c 4
 18 160 0 178 0 200 c 4
 0 222 18 239 40 239 c 4
40 159 m 4
 62 159 80 142 80 120 c 4
 80 98 62 80 40 80 c 4
 18 80 0 98 0 120 c 4
 0 142 18 159 40 159 c 4
200 400 m 4
 222 400 240 382 240 360 c 4
 240 338 222 320 200 320 c 4
 178 320 160 338 160 360 c 4
 160 382 178 400 200 400 c 4
200 319 m 4
 222 319 240 302 240 280 c 4
 240 258 222 240 200 240 c 4
 178 240 160 258 160 280 c 4
 160 302 178 319 200 319 c 4
200 239 m 4
 222 239 240 222 240 200 c 4
 240 178 222 160 200 160 c 4
 178 160 160 178 160 200 c 4
 160 222 178 239 200 239 c 4
360 400 m 4
 382 400 400 382 400 360 c 4
 400 338 382 320 360 320 c 4
 338 320 320 338 320 360 c 4
 320 382 338 400 360 400 c 4
360 319 m 4
 382 319 400 302 400 280 c 4
 400 258 382 240 360 240 c 4
 338 240 320 258 320 280 c 4
 320 302 338 319 360 319 c 4
360 239 m 4
 382 239 400 222 400 200 c 4
 400 178 382 160 360 160 c 4
 338 160 320 178 320 200 c 4
 320 222 338 239 360 239 c 4
360 159 m 4
 382 159 400 142 400 120 c 4
 400 98 382 80 360 80 c 4
 338 80 320 98 320 120 c 4
 320 142 338 159 360 159 c 4
160 160 m 4
 182 160 200 142 200 120 c 4
 200 98 182 80 160 80 c 4
 138 80 120 98 120 120 c 4
 120 142 138 160 160 160 c 4
201 120 m 4
 201 142 218 160 240 160 c 4
 262 160 280 142 280 120 c 4
 280 98 262 80 240 80 c 4
 218 80 201 98 201 120 c 4
80 80 m 4
 86 80 94 76 100 74 c 4
 106 76 114 80 120 80 c 4
 142 80 160 62 160 40 c 4
 160 18 142 0 120 0 c 4
 114 0 106 4 100 6 c 4
 94 4 86 0 80 0 c 4
 58 0 40 18 40 40 c 4
 40 62 58 80 80 80 c 4
280 80 m 4
 286 80 294 76 300 74 c 4
 306 76 314 80 320 80 c 4
 342 80 360 62 360 40 c 4
 360 18 342 0 320 0 c 4
 314 0 306 4 300 6 c 4
 294 4 286 0 280 0 c 4
 258 0 240 18 240 40 c 4
 240 62 258 80 280 80 c 4
EndSplineSet
Validated: 1
EndChar

StartChar: x
Encoding: 120 120 120
Width: 400
VWidth: 0
Flags: HMW
LayerCount: 2
UndoRedoHistory
Layer: 1
Undoes
UndoOperation
Index: 0
Type: 1
WasModified: 0
WasOrder2: 0
Layer: 2
Width: 200
VWidth: 0
LBearingChange: 0
UnicodeEnc: 0
InstructionsLength: 0
EndUndoOperation
EndUndoes
Redoes
EndRedoes
EndUndoRedoHistory
Fore
SplineSet
100 400 m 4
 122 400 140 382 140 360 c 4
 140 338 122 320 100 320 c 4
 78 320 60 338 60 360 c 4
 60 382 78 400 100 400 c 4
300 400 m 4
 322 400 340 382 340 360 c 4
 340 338 322 320 300 320 c 4
 278 320 260 338 260 360 c 4
 260 382 278 400 300 400 c 4
140 320 m 4
 162 320 180 302 180 280 c 4
 180 258 162 240 140 240 c 4
 118 240 100 258 100 280 c 4
 100 302 118 320 140 320 c 4
260 320 m 4
 282 320 300 302 300 280 c 4
 300 258 282 240 260 240 c 4
 238 240 220 258 220 280 c 4
 220 302 238 320 260 320 c 4
180 240 m 4
 186 240 194 236 200 234 c 4
 206 236 214 240 220 240 c 4
 242 240 260 222 260 200 c 4
 260 178 242 160 220 160 c 4
 214 160 206 164 200 166 c 4
 194 164 186 160 180 160 c 4
 158 160 140 178 140 200 c 4
 140 222 158 240 180 240 c 4
140 160 m 4
 162 160 180 142 180 120 c 4
 180 98 162 80 140 80 c 4
 118 80 100 98 100 120 c 4
 100 142 118 160 140 160 c 4
260 160 m 4
 282 160 300 142 300 120 c 4
 300 98 282 80 260 80 c 4
 238 80 220 98 220 120 c 4
 220 142 238 160 260 160 c 4
100 80 m 4
 122 80 140 62 140 40 c 4
 140 18 122 0 100 0 c 4
 78 0 60 18 60 40 c 4
 60 62 78 80 100 80 c 4
300 80 m 4
 322 80 340 62 340 40 c 4
 340 18 322 0 300 0 c 4
 278 0 260 18 260 40 c 4
 260 62 278 80 300 80 c 4
EndSplineSet
Validated: 1
EndChar

StartChar: y
Encoding: 121 121 121
Width: 400
VWidth: 0
Flags: HMW
LayerCount: 2
UndoRedoHistory
Layer: 1
Undoes
UndoOperation
Index: 0
Type: 1
WasModified: 0
WasOrder2: 0
Layer: 2
Width: 200
VWidth: 0
LBearingChange: 0
UnicodeEnc: 0
InstructionsLength: 0
EndUndoOperation
EndUndoes
Redoes
EndRedoes
EndUndoRedoHistory
Fore
SplineSet
80 400 m 4
 102 400 120 382 120 360 c 4
 120 338 102 320 80 320 c 4
 58 320 40 338 40 360 c 4
 40 382 58 400 80 400 c 4
80 319 m 4
 102 319 120 302 120 280 c 4
 120 258 102 240 80 240 c 4
 58 240 40 258 40 280 c 4
 40 302 58 319 80 319 c 4
80 239 m 4
 102 239 120 222 120 200 c 4
 120 178 102 160 80 160 c 4
 58 160 40 178 40 200 c 4
 40 222 58 239 80 239 c 4
80 159 m 4
 102 159 120 142 120 120 c 4
 120 98 102 80 80 80 c 4
 58 80 40 98 40 120 c 4
 40 142 58 159 80 159 c 4
320 400 m 4
 342 400 360 382 360 360 c 4
 360 338 342 320 320 320 c 4
 298 320 280 338 280 360 c 4
 280 382 298 400 320 400 c 4
320 319 m 4
 342 319 360 302 360 280 c 4
 360 258 342 240 320 240 c 4
 298 240 280 258 280 280 c 4
 280 302 298 319 320 319 c 4
320 239 m 4
 342 239 360 222 360 200 c 4
 360 178 342 160 320 160 c 4
 298 160 280 178 280 200 c 4
 280 222 298 239 320 239 c 4
320 159 m 4
 342 159 360 142 360 120 c 4
 360 98 342 80 320 80 c 4
 298 80 280 98 280 120 c 4
 280 142 298 159 320 159 c 4
320 79 m 4
 342 79 360 62 360 40 c 4
 360 18 342 0 320 0 c 4
 314 0 306 4 300 6 c 4
 294 4 286 0 280 0 c 4
 274 0 266 4 260 6 c 4
 254 4 246 0 240 0 c 4
 234 0 226 4 220 6 c 4
 214 4 206 0 200 0 c 4
 194 0 186 4 180 6 c 4
 174 4 166 0 160 0 c 4
 154 0 146 4 140 6 c 4
 134 4 126 0 120 0 c 4
 98 0 80 18 80 40 c 4
 80 62 98 80 120 80 c 4
 126 80 134 76 140 74 c 4
 146 76 154 80 160 80 c 4
 166 80 174 76 180 74 c 4
 186 76 194 80 200 80 c 4
 206 80 214 76 220 74 c 4
 226 76 234 80 240 80 c 4
 246 80 254 76 260 74 c 4
 266 76 274 80 280 80 c 4
 286 80 294 76 300 74 c 4
 306 76 314 79 320 79 c 4
320 -1 m 4
 342 -1 360 -18 360 -40 c 4
 360 -62 342 -80 320 -80 c 4
 298 -80 280 -62 280 -40 c 4
 280 -18 298 -1 320 -1 c 4
120 -80 m 4
 126 -80 134 -84 140 -86 c 4
 146 -84 154 -80 160 -80 c 4
 166 -80 174 -84 180 -86 c 4
 186 -84 194 -80 200 -80 c 4
 206 -80 214 -84 220 -86 c 4
 226 -84 234 -80 240 -80 c 4
 246 -80 254 -84 260 -86 c 4
 266 -84 274 -80 280 -80 c 4
 302 -80 320 -98 320 -120 c 4
 320 -142 302 -160 280 -160 c 4
 274 -160 266 -156 260 -154 c 4
 254 -156 246 -160 240 -160 c 4
 234 -160 226 -156 220 -154 c 4
 214 -156 206 -160 200 -160 c 4
 194 -160 186 -156 180 -154 c 4
 174 -156 166 -160 160 -160 c 4
 154 -160 146 -156 140 -154 c 4
 134 -156 126 -160 120 -160 c 4
 98 -160 80 -142 80 -120 c 4
 80 -98 98 -80 120 -80 c 4
EndSplineSet
Validated: 1
EndChar

StartChar: z
Encoding: 122 122 122
Width: 400
VWidth: 0
Flags: HMW
LayerCount: 2
UndoRedoHistory
Layer: 1
Undoes
UndoOperation
Index: 0
Type: 1
WasModified: 0
WasOrder2: 0
Layer: 2
Width: 200
VWidth: 0
LBearingChange: 0
UnicodeEnc: 0
InstructionsLength: 0
EndUndoOperation
EndUndoes
Redoes
EndRedoes
EndUndoRedoHistory
Fore
SplineSet
80 400 m 4
 86 400 94 396 100 394 c 4
 106 396 114 400 120 400 c 4
 126 400 134 396 140 394 c 4
 146 396 154 400 160 400 c 4
 166 400 174 396 180 394 c 4
 186 396 194 400 200 400 c 4
 206 400 214 396 220 394 c 4
 226 396 234 400 240 400 c 4
 246 400 254 396 260 394 c 4
 266 396 274 400 280 400 c 4
 286 400 294 396 300 394 c 4
 306 396 314 400 320 400 c 4
 342 400 360 382 360 360 c 4
 360 338 342 320 320 320 c 4
 314 320 306 324 300 326 c 4
 294 324 286 320 280 320 c 4
 274 320 266 324 260 326 c 4
 254 324 246 320 240 320 c 4
 234 320 226 324 220 326 c 4
 214 324 206 320 200 320 c 4
 194 320 186 324 180 326 c 4
 174 324 166 320 160 320 c 4
 154 320 146 324 140 326 c 4
 134 324 126 320 120 320 c 4
 114 320 106 324 100 326 c 4
 94 324 86 320 80 320 c 4
 58 320 40 338 40 360 c 4
 40 382 58 400 80 400 c 4
320 319 m 4
 342 319 360 302 360 280 c 4
 360 258 342 240 320 240 c 4
 298 240 280 258 280 280 c 4
 280 302 298 319 320 319 c 4
120 240 m 4
 126 240 134 236 140 234 c 4
 146 236 154 240 160 240 c 4
 166 240 174 236 180 234 c 4
 186 236 194 240 200 240 c 4
 206 240 214 236 220 234 c 4
 226 236 234 240 240 240 c 4
 246 240 254 236 260 234 c 4
 266 236 274 240 280 240 c 4
 302 240 320 222 320 200 c 4
 320 178 302 160 280 160 c 4
 274 160 266 164 260 166 c 4
 254 164 246 160 240 160 c 4
 234 160 226 164 220 166 c 4
 214 164 206 160 200 160 c 4
 194 160 186 164 180 166 c 4
 174 164 166 160 160 160 c 4
 154 160 146 164 140 166 c 4
 134 164 126 160 120 160 c 4
 98 160 80 178 80 200 c 4
 80 222 98 240 120 240 c 4
80 160 m 4
 102 160 120 142 120 120 c 4
 120 98 102 80 80 80 c 4
 58 80 40 98 40 120 c 4
 40 142 58 160 80 160 c 4
80 79 m 4
 86 79 94 76 100 74 c 4
 106 76 114 80 120 80 c 4
 126 80 134 76 140 74 c 4
 146 76 154 80 160 80 c 4
 166 80 174 76 180 74 c 4
 186 76 194 80 200 80 c 4
 206 80 214 76 220 74 c 4
 226 76 234 80 240 80 c 4
 246 80 254 76 260 74 c 4
 266 76 274 80 280 80 c 4
 286 80 294 76 300 74 c 4
 306 76 314 80 320 80 c 4
 342 80 360 62 360 40 c 4
 360 18 342 0 320 0 c 4
 314 0 306 4 300 6 c 4
 294 4 286 0 280 0 c 4
 274 0 266 4 260 6 c 4
 254 4 246 0 240 0 c 4
 234 0 226 4 220 6 c 4
 214 4 206 0 200 0 c 4
 194 0 186 4 180 6 c 4
 174 4 166 0 160 0 c 4
 154 0 146 4 140 6 c 4
 134 4 126 0 120 0 c 4
 114 0 106 4 100 6 c 4
 94 4 86 0 80 0 c 4
 58 0 40 18 40 40 c 4
 40 62 58 79 80 79 c 4
EndSplineSet
Validated: 1
EndChar

StartChar: braceleft
Encoding: 123 123 123
Width: 400
VWidth: 0
Flags: HMW
LayerCount: 2
UndoRedoHistory
Layer: 1
Undoes
UndoOperation
Index: 0
Type: 1
WasModified: 0
WasOrder2: 0
Layer: 2
Width: 200
VWidth: 0
LBearingChange: 0
UnicodeEnc: 0
InstructionsLength: 0
EndUndoOperation
EndUndoes
Redoes
EndRedoes
EndUndoRedoHistory
Fore
SplineSet
220 560 m 4
 226 560 234 556 240 554 c 4
 246 556 254 560 260 560 c 4
 266 560 274 556 280 554 c 4
 286 556 294 560 300 560 c 4
 322 560 340 542 340 520 c 4
 340 498 322 480 300 480 c 4
 294 480 286 484 280 486 c 4
 274 484 266 480 260 480 c 4
 254 480 246 484 240 486 c 4
 234 484 226 480 220 480 c 4
 198 480 180 498 180 520 c 4
 180 542 198 560 220 560 c 4
180 480 m 4
 202 480 220 462 220 440 c 4
 220 418 202 400 180 400 c 4
 158 400 140 418 140 440 c 4
 140 462 158 480 180 480 c 4
180 399 m 4
 202 399 220 382 220 360 c 4
 220 338 202 320 180 320 c 4
 158 320 140 338 140 360 c 4
 140 382 158 399 180 399 c 4
100 320 m 4
 106 320 114 316 120 314 c 4
 126 316 134 320 140 320 c 4
 162 320 180 302 180 280 c 4
 180 258 162 240 140 240 c 4
 134 240 126 244 120 246 c 4
 114 244 106 240 100 240 c 4
 78 240 60 258 60 280 c 4
 60 302 78 320 100 320 c 4
180 240 m 4
 202 240 220 222 220 200 c 4
 220 178 202 160 180 160 c 4
 158 160 140 178 140 200 c 4
 140 222 158 240 180 240 c 4
180 159 m 4
 202 159 220 142 220 120 c 4
 220 98 202 80 180 80 c 4
 158 80 140 98 140 120 c 4
 140 142 158 159 180 159 c 4
220 80 m 4
 226 80 234 76 240 74 c 4
 246 76 254 80 260 80 c 4
 266 80 274 76 280 74 c 4
 286 76 294 80 300 80 c 4
 322 80 340 62 340 40 c 4
 340 18 322 0 300 0 c 4
 294 0 286 4 280 6 c 4
 274 4 266 0 260 0 c 4
 254 0 246 4 240 6 c 4
 234 4 226 0 220 0 c 4
 198 0 180 18 180 40 c 4
 180 62 198 80 220 80 c 4
EndSplineSet
Validated: 1
EndChar

